<?xml version="1.0" standalone="no"?>
<!DOCTYPE svg PUBLIC "-//W3C//DTD SVG 1.1//EN" "http://www.w3.org/Graphics/SVG/1.1/DTD/svg11.dtd" >
<svg>
<metadata>
Created by FontForge 20120731 at Mon Jan 29 14:34:02 2018
 By www-data
2009 published by Monotype GmbH
</metadata>
<defs>
<font id="DINOffcPro-Medium" horiz-adv-x="537" >
  <font-face 
    font-family="DIN Offc Pro Medium"
    font-weight="500"
    font-stretch="normal"
    units-per-em="1000"
    panose-1="2 11 6 4 2 1 1 1 1 2"
    ascent="764"
    descent="-236"
    x-height="507"
    cap-height="712"
    bbox="-191 -285 1137 1134"
    underline-thickness="70"
    underline-position="-67"
    unicode-range="U+0020-FEFF"
  />
<missing-glyph horiz-adv-x="568" 
d="M487 0h-406v712h406v-712zM151 642v-572h266v572h-266z" />
    <glyph glyph-name=".notdef" horiz-adv-x="568" 
d="M487 0h-406v712h406v-712zM151 642v-572h266v572h-266z" />
    <glyph glyph-name=".null" horiz-adv-x="0" 
 />
    <glyph glyph-name="nonmarkingreturn" horiz-adv-x="240" 
 />
    <glyph glyph-name="space" unicode=" " horiz-adv-x="240" 
 />
    <glyph glyph-name="exclam" unicode="!" horiz-adv-x="332" 
d="M223 212h-80l-22 500h124zM239 0h-112v109h112v-109z" />
    <glyph glyph-name="quotedbl" unicode="&#x22;" horiz-adv-x="444" 
d="M366 521h-101v191h101v-191zM179 521h-101v191h101v-191z" />
    <glyph glyph-name="numbersign" unicode="#" horiz-adv-x="689" 
d="M544 520h78v-94h-92l-20 -124h79v-94h-94l-33 -208h-106l33 208h-137l-32 -208h-107l33 208h-79v94h94l20 124h-81v94h95l31 196h107l-31 -196h136l31 196h106zM287 426l-20 -124h137l19 124h-136z" />
    <glyph glyph-name="dollar" unicode="$" horiz-adv-x="608" 
d="M340 717q60 -4 105 -23t86 -57l-69 -68q-26 25 -59.5 38t-71.5 16v-216q40 -6 67 -12t45 -12.5t30.5 -15t24.5 -18.5q29 -26 43.5 -63t14.5 -83q0 -45 -15.5 -81t-44 -62t-68.5 -42.5t-88 -20.5v-111h-82v108q-72 3 -126 24.5t-102 69.5l72 71q36 -36 76.5 -51t88.5 -17
v222q-65 7 -100.5 22t-59.5 38q-53 50 -53 136t53.5 142t150.5 65v90h82v-89zM331 93q56 5 87 32.5t31 74.5q0 49 -28 74q-18 17 -40 22t-50 9v-212zM267 622q-53 -5 -80.5 -35t-27.5 -74q0 -20 6.5 -36.5t20.5 -29.5q16 -14 37 -22t44 -11v208z" />
    <glyph glyph-name="percent" unicode="%" horiz-adv-x="841" 
d="M548 712h81l-335 -712h-82zM198 344q-29 0 -54.5 9t-44.5 26.5t-30 43t-11 58.5v101q0 33 11 58.5t30 42.5t44.5 26t54.5 9t54.5 -9t44.5 -26t30 -42.5t11 -58.5v-101q0 -33 -11 -58.5t-30 -43t-44.5 -26.5t-54.5 -9zM198 413q29 0 46.5 18.5t17.5 54.5v90
q0 36 -17.5 54.5t-46.5 18.5t-46 -18.5t-17 -54.5v-90q0 -36 17 -54.5t46 -18.5zM643 -6q-29 0 -54.5 9t-44.5 26t-30 42.5t-11 58.5v101q0 33 11 58.5t30 43t44.5 26.5t54.5 9t54.5 -9t44.5 -26.5t30 -43t11 -58.5v-101q0 -33 -11 -58.5t-30 -42.5t-44.5 -26t-54.5 -9z
M643 63q29 0 46 18.5t17 54.5v90q0 36 -17 54.5t-46 18.5t-46.5 -18.5t-17.5 -54.5v-90q0 -36 17.5 -54.5t46.5 -18.5z" />
    <glyph glyph-name="ampersand" unicode="&#x26;" horiz-adv-x="707" 
d="M310 718q38 0 69 -12t53.5 -33.5t34.5 -50.5t12 -63q0 -42 -21 -72.5t-55 -53.5l-52 -36l150 -179q20 28 28.5 61t9.5 82h98q-2 -69 -18.5 -123t-52.5 -96l119 -142h-131l-58 70q-12 -10 -29 -23t-41 -25t-55.5 -20t-71.5 -8q-112 0 -171 57.5t-59 154.5q0 37 12 66.5
t32 53.5t45.5 44t51.5 37q-12 14 -25 30.5t-24 35.5t-18 40.5t-7 46.5q0 34 12.5 63t35 50t54.5 33t72 12zM266 343q-20 -14 -37 -27.5t-30.5 -29t-21 -34.5t-7.5 -44q0 -54 36.5 -87.5t92.5 -33.5q36 0 68.5 11.5t67.5 43.5zM310 629q-33 0 -51.5 -20t-18.5 -50
q0 -22 14 -44t41 -54l34 23q21 14 36.5 31.5t15.5 42.5q0 30 -19.5 50.5t-51.5 20.5z" />
    <glyph glyph-name="quotesingle" unicode="'" horiz-adv-x="257" 
d="M179 521h-101v191h101v-191z" />
    <glyph glyph-name="parenleft" unicode="(" horiz-adv-x="316" 
d="M255 736l-32 -32q-13 -13 -24 -34q-15 -29 -15 -81v-466q0 -53 15 -81q11 -21 24 -35l32 -31l-70 -70q-29 29 -48 49.5t-33 45.5q-16 28 -19.5 56.5t-3.5 59.5v478q0 30 4 59.5t19 56.5q7 12 14.5 22.5t17 21.5t21.5 23l28 28z" />
    <glyph glyph-name="parenright" unicode=")" horiz-adv-x="316" 
d="M131 806q29 -29 48 -49.5t33 -45.5q16 -28 19.5 -56.5t3.5 -59.5v-478q0 -30 -4 -59.5t-19 -56.5q-7 -12 -14.5 -22.5t-17 -21.5t-21.5 -23l-28 -28l-70 70l31 31q14 14 25 35q15 28 15 81v466q0 52 -15 81q-11 21 -25 34l-31 32z" />
    <glyph glyph-name="asterisk" unicode="*" horiz-adv-x="497" 
d="M282 582l111 69l37 -65l-115 -62l115 -61l-37 -65l-111 69l4 -131h-75l4 131l-111 -69l-37 65l115 61l-115 62l37 65l111 -69l-4 130h75z" />
    <glyph glyph-name="plus" unicode="+" horiz-adv-x="533" 
d="M314 325h168v-95h-168v-168h-95v168h-168v95h168v167h95v-167z" />
    <glyph glyph-name="comma" unicode="," horiz-adv-x="272" 
d="M194 -60l-116 -95v271h116v-176z" />
    <glyph glyph-name="hyphen" unicode="-" horiz-adv-x="426" 
d="M359 230h-292v95h292v-95z" />
    <glyph glyph-name="period" unicode="." horiz-adv-x="278" 
d="M200 0h-122v122h122v-122z" />
    <glyph glyph-name="slash" unicode="/" horiz-adv-x="383" 
d="M98 -74h-98l285 860h98z" />
    <glyph glyph-name="zero" unicode="0" horiz-adv-x="533" 
d="M266 -6q-42 0 -79.5 14t-65.5 40.5t-44 64t-16 85.5v316q0 48 16 85.5t44 64t65.5 40.5t79.5 14q43 0 80.5 -14t65.5 -40.5t44 -64t16 -85.5v-316q0 -48 -16 -85.5t-44 -64t-65.5 -40.5t-80.5 -14zM266 85q49 0 76.5 32.5t27.5 83.5v310q0 51 -27.5 83.5t-76.5 32.5
q-48 0 -75.5 -32.5t-27.5 -83.5v-310q0 -51 27.5 -83.5t75.5 -32.5z" />
    <glyph glyph-name="one" unicode="1" horiz-adv-x="533" 
d="M253 601l-139 -122v113l139 120h102v-712h-102v601z" />
    <glyph glyph-name="two" unicode="2" horiz-adv-x="533" 
d="M63 91l274 333q20 25 29 46.5t9 48.5q0 48 -27 78t-77 30q-20 0 -39 -6t-33.5 -19t-23.5 -34t-9 -51h-102q0 45 15.5 82.5t43 63.5t65.5 40.5t83 14.5q46 0 84 -14t65 -40t42 -63t15 -83q0 -47 -17 -80.5t-50 -73.5l-223 -273h290v-91h-414v91z" />
    <glyph glyph-name="three" unicode="3" horiz-adv-x="533" 
d="M260 -7q-43 0 -81.5 11.5t-68.5 36t-48.5 62.5t-19.5 90h102q1 -29 11.5 -49t26 -33.5t36 -19.5t42.5 -6q50 0 83 30.5t33 87.5q0 54 -29.5 85.5t-89.5 31.5h-17v89h17q56 0 82 29t26 78q0 54 -30.5 82t-74.5 28q-47 0 -75 -27t-32 -75h-102q2 45 19 81t45 61t65 38.5
t80 13.5q45 0 83 -14.5t65.5 -41t43 -63t15.5 -80.5q0 -57 -23.5 -94t-65.5 -57q46 -20 73 -61t27 -107q0 -51 -17.5 -90t-47 -65t-69 -39t-84.5 -13z" />
    <glyph glyph-name="four" unicode="4" horiz-adv-x="533" 
d="M323 107h-288v95l251 510h110l-250 -510h177v166h99v-166h76v-95h-76v-107h-99v107z" />
    <glyph glyph-name="five" unicode="5" horiz-adv-x="533" 
d="M269 -6q-51 0 -90 16t-62 39q-29 29 -40 63.5t-14 72.5h102q6 -48 31 -73.5t73 -25.5q46 0 74 28q23 23 28.5 56t5.5 69q0 32 -4.5 59t-16.5 47t-32 31t-51 11q-44 0 -68.5 -19t-32.5 -45h-93v389h384v-91h-292v-188q18 19 48.5 30t69.5 11q42 0 74 -12t54 -34
q20 -20 32.5 -43t19 -47t8.5 -49t2 -50q0 -57 -10.5 -103.5t-49.5 -85.5q-24 -24 -61 -40t-89 -16z" />
    <glyph glyph-name="six" unicode="6" horiz-adv-x="533" 
d="M267 -6q-47 0 -85.5 14.5t-66.5 42.5t-43.5 67t-15.5 89q0 37 11 75t39 95l165 335h109l-155 -310q14 8 31 11.5t34 3.5q39 0 73 -15t59.5 -42t40 -65t14.5 -84q0 -49 -15.5 -89t-43 -68.5t-66.5 -44t-85 -15.5zM266 85q49 0 79 33t30 91q0 53 -29 88t-80 35
q-48 0 -78 -33t-30 -90q0 -58 30 -91t78 -33z" />
    <glyph glyph-name="seven" unicode="7" horiz-adv-x="533" 
d="M378 621h-217v-112h-98v203h424v-91l-238 -621h-110z" />
    <glyph glyph-name="eight" unicode="8" horiz-adv-x="533" 
d="M266 -6q-46 0 -86 14t-69.5 41t-46.5 65.5t-17 86.5q0 32 8.5 58t22 46.5t31 36t36.5 26.5q-35 21 -60.5 58.5t-25.5 94.5q0 45 16 81t44 62t65.5 40t81.5 14q43 0 81 -14t66.5 -40t44.5 -62t16 -81q0 -57 -25.5 -94.5t-60.5 -58.5q19 -11 36.5 -26.5t31 -36t22 -46.5
t8.5 -58q0 -48 -17 -86.5t-47 -65.5t-70 -41t-86 -14zM266 85q25 0 46 9t37 25t25 37.5t9 46.5t-9 46.5t-25 37.5t-37 25.5t-46 9.5t-46.5 -9.5t-37 -25.5t-24.5 -37.5t-9 -46.5t9 -46.5t24.5 -37.5t37 -25t46.5 -9zM266 410q47 0 76.5 30t29.5 78q0 47 -29.5 78t-76.5 31
t-76 -31t-29 -78q0 -48 29 -78t76 -30z" />
    <glyph glyph-name="nine" unicode="9" horiz-adv-x="533" 
d="M310 310q-14 -8 -31.5 -11.5t-34.5 -3.5q-38 0 -72 14.5t-59.5 41.5t-40 65t-14.5 85q0 49 15.5 89t43 68.5t66 44t85.5 15.5q46 0 84.5 -14.5t66.5 -42.5t43.5 -67.5t15.5 -88.5q0 -37 -10.5 -75t-38.5 -95l-165 -335h-110zM268 380q49 0 78.5 33t29.5 90q0 58 -29.5 91
t-78.5 33q-48 0 -78 -33t-30 -91q0 -53 28.5 -88t79.5 -35z" />
    <glyph glyph-name="colon" unicode=":" horiz-adv-x="303" 
d="M225 285h-121v122h121v-122zM225 0h-121v122h121v-122z" />
    <glyph glyph-name="semicolon" unicode=";" horiz-adv-x="303" 
d="M222 -60l-116 -95v271h116v-176zM225 285h-121v122h121v-122z" />
    <glyph glyph-name="less" unicode="&#x3c;" horiz-adv-x="533" 
d="M451 392l-245 -115l245 -114v-108l-369 177v91l369 177v-108z" />
    <glyph glyph-name="equal" unicode="=" horiz-adv-x="533" 
d="M482 327h-431v95h431v-95zM482 133h-431v95h431v-95z" />
    <glyph glyph-name="greater" unicode="&#x3e;" horiz-adv-x="533" 
d="M451 323v-91l-369 -177v108l245 114l-245 115v108z" />
    <glyph glyph-name="question" unicode="?" horiz-adv-x="511" 
d="M270 718q41 0 77.5 -13.5t63.5 -38t43 -60t16 -79.5q0 -36 -14 -65.5t-34 -57.5l-77 -108q-8 -11 -13 -26.5t-5 -27.5v-30h-102v35q0 31 8 53t26 46l78 105q14 18 22.5 36.5t8.5 39.5q0 42 -27 71t-71 29q-47 0 -72 -30t-25 -71h-102q0 42 15 77.5t42 61t63.5 39.5
t78.5 14zM332 0h-113v109h113v-109z" />
    <glyph glyph-name="at" unicode="@" horiz-adv-x="756" 
d="M444 715q54 0 96 -13.5t74 -45.5t46 -75t14 -100v-481h-95v52q-29 -33 -59 -45.5t-71 -12.5q-38 0 -68.5 11.5t-50.5 31.5q-35 35 -45.5 85t-10.5 112t10 112.5t46 85.5q20 20 50.5 31t68.5 11t69 -11.5t58 -43.5v61q0 35 -7.5 60.5t-29.5 47.5q-20 20 -46 27.5t-59 7.5
h-127q-32 0 -57.5 -7t-47.5 -28q-23 -22 -30 -47t-7 -61v-312q0 -21 2.5 -36.5t8.5 -27.5t15.5 -23t24.5 -23l-70 -70q-22 18 -37 35t-24.5 37.5t-13.5 45t-4 57.5v318q0 57 13.5 100t45.5 75t74 45.5t97 13.5h147zM475 388q-31 0 -51 -12t-31 -32.5t-15.5 -48.5t-4.5 -61
t4.5 -61t15.5 -48.5t31 -32.5t51 -12t50.5 12t30.5 32.5t15.5 48.5t4.5 61t-4.5 61t-15.5 48.5t-30.5 32.5t-50.5 12z" />
    <glyph glyph-name="A" unicode="A" horiz-adv-x="625" 
d="M617 0h-115l-49 143h-281l-49 -143h-115l261 712h87zM203 235h219l-110 316z" />
    <glyph glyph-name="B" unicode="B" horiz-adv-x="663" 
d="M370 712q100 0 157.5 -52t57.5 -143q0 -29 -8.5 -53.5t-22 -44t-30.5 -33t-35 -20.5q21 -8 40 -22.5t34 -34.5t24 -47t9 -61q0 -49 -16 -86.5t-44.5 -63t-68 -38.5t-86.5 -13h-288v712h277zM201 314v-217h170q57 0 87 30.5t30 78.5t-30 78t-87 30h-170zM201 615v-204h160
q52 0 84 26t32 76t-32 76t-84 26h-160z" />
    <glyph glyph-name="C" unicode="C" horiz-adv-x="628" 
d="M323 718q99 0 167 -56.5t87 -162.5h-110q-12 55 -48 88.5t-96 33.5q-65 0 -105 -43q-14 -14 -22 -31t-13 -41.5t-6.5 -60.5t-1.5 -89t1.5 -89t6.5 -60.5t13 -41.5t22 -31q40 -43 105 -43q60 0 96 33.5t48 88.5h110q-19 -106 -87.5 -162.5t-166.5 -56.5q-59 0 -104 18.5
t-80 53.5q-26 26 -40.5 54t-21.5 61.5t-8.5 76t-1.5 98.5t1.5 98.5t8.5 76t21.5 61.5t40.5 54q35 35 80 53.5t104 18.5z" />
    <glyph glyph-name="D" unicode="D" horiz-adv-x="666" 
d="M343 712q67 0 115.5 -21.5t86.5 -68.5q19 -24 30 -52.5t16.5 -61.5t6.5 -71t1 -81t-1 -81t-6.5 -71t-16.5 -61.5t-30 -52.5q-38 -47 -86.5 -68.5t-115.5 -21.5h-250v712h250zM201 615v-518h130q38 0 68.5 11t53.5 37q26 29 32 80t6 131t-6 131t-32 80q-23 26 -53.5 37
t-68.5 11h-130z" />
    <glyph glyph-name="E" unicode="E" horiz-adv-x="603" 
d="M548 615h-347v-208h296v-97h-296v-213h347v-97h-455v712h455v-97z" />
    <glyph glyph-name="F" unicode="F" horiz-adv-x="585" 
d="M548 615h-347v-217h296v-97h-296v-301h-108v712h455v-97z" />
    <glyph glyph-name="G" unicode="G" horiz-adv-x="649" 
d="M323 718q56 0 101 -17.5t77.5 -47.5t52.5 -70t27 -85h-108q-14 59 -52 91t-98 32q-65 0 -106 -43q-13 -14 -21.5 -31t-13 -41.5t-6 -60.5t-1.5 -89t1.5 -89t6 -60.5t13 -41.5t21.5 -31q41 -43 106 -43q35 0 65.5 12.5t51.5 37.5q20 23 27.5 50t7.5 62v40h-152v92h260
v-109q0 -70 -14.5 -116.5t-49.5 -84.5q-40 -42 -89.5 -61.5t-106.5 -19.5q-59 0 -104 18.5t-80 53.5q-26 26 -40.5 54t-21.5 61.5t-8.5 76t-1.5 98.5t1.5 98.5t8.5 76t21.5 61.5t40.5 54q35 35 80 53.5t104 18.5z" />
    <glyph glyph-name="H" unicode="H" horiz-adv-x="691" 
d="M598 0h-108v311h-289v-311h-108v712h108v-304h289v304h108v-712z" />
    <glyph glyph-name="I" unicode="I" horiz-adv-x="294" 
d="M201 0h-108v712h108v-712z" />
    <glyph glyph-name="J" unicode="J" horiz-adv-x="505" 
d="M423 225q0 -56 -18.5 -99t-51 -72t-75.5 -44.5t-92 -15.5q-55 0 -95.5 16t-77.5 53l72 71q19 -19 40.5 -31t60.5 -12q60 0 94.5 36t34.5 106v479h108v-487z" />
    <glyph glyph-name="K" unicode="K" horiz-adv-x="658" 
d="M393 433l255 -433h-127l-200 351l-120 -144v-207h-108v712h108v-358l291 358h132z" />
    <glyph glyph-name="L" unicode="L" horiz-adv-x="574" 
d="M201 97h343v-97h-451v712h108v-615z" />
    <glyph glyph-name="M" unicode="M" horiz-adv-x="814" 
d="M721 0h-108v476l-164 -347h-80l-168 347v-476h-108v712h108l208 -443l204 443h108v-712z" />
    <glyph glyph-name="N" unicode="N" horiz-adv-x="722" 
d="M629 0h-99l-329 501v-501h-108v712h99l329 -501v501h108v-712z" />
    <glyph glyph-name="O" unicode="O" horiz-adv-x="646" 
d="M323 718q59 0 104 -18.5t80 -53.5q26 -26 40.5 -54t21.5 -61.5t8.5 -76t1.5 -98.5t-1.5 -98.5t-8.5 -76t-21.5 -61.5t-40.5 -54q-35 -35 -80 -53.5t-104 -18.5t-104 18.5t-80 53.5q-26 26 -40.5 54t-21.5 61.5t-8.5 76t-1.5 98.5t1.5 98.5t8.5 76t21.5 61.5t40.5 54
q35 35 80 53.5t104 18.5zM323 621q-65 0 -106 -43q-13 -14 -21.5 -31t-13 -41.5t-6 -60.5t-1.5 -89t1.5 -88.5t6 -60.5t13 -41.5t21.5 -30.5q42 -44 106 -44t106 44q13 14 21.5 30.5t13 41t6 60.5t1.5 89t-1.5 89t-6 61t-13 41.5t-21.5 30.5q-41 43 -106 43z" />
    <glyph glyph-name="P" unicode="P" horiz-adv-x="629" 
d="M363 712q52 0 94 -16.5t72 -45t46 -68.5t16 -86q0 -47 -16 -86t-46 -68t-72 -45t-94 -16h-162v-281h-108v712h270zM201 615v-237h156q57 0 91.5 30.5t34.5 87.5t-34.5 88t-91.5 31h-156z" />
    <glyph glyph-name="Q" unicode="Q" horiz-adv-x="646" 
d="M323 718q59 0 104 -18.5t80 -53.5q26 -26 40.5 -54t21.5 -61.5t8.5 -76t1.5 -98.5q0 -48 -1 -85.5t-5.5 -68.5t-13.5 -56.5t-26 -48.5l70 -70l-60 -59l-70 70q-61 -44 -150 -44q-59 0 -104 18.5t-80 53.5q-26 26 -40.5 54t-21.5 61.5t-8.5 76t-1.5 98.5t1.5 98.5t8.5 76
t21.5 61.5t40.5 54q35 35 80 53.5t104 18.5zM323 621q-65 0 -106 -43q-13 -14 -21.5 -31t-13 -41.5t-6 -60.5t-1.5 -89t1.5 -88.5t6 -60.5t13 -41.5t21.5 -30.5q42 -44 106 -44q42 0 76 20l-78 78l60 60l74 -74q10 26 13 67.5t3 113.5q0 53 -1.5 89t-6 61t-13 41.5
t-21.5 30.5q-41 43 -106 43z" />
    <glyph glyph-name="R" unicode="R" horiz-adv-x="655" 
d="M369 712q51 0 91.5 -15.5t69.5 -43t44.5 -66t15.5 -83.5q0 -77 -41 -124.5t-101 -64.5l164 -315h-126l-150 300h-135v-300h-108v712h276zM201 615v-223h160q54 0 87.5 29t33.5 82t-33.5 82.5t-87.5 29.5h-160z" />
    <glyph glyph-name="S" unicode="S" horiz-adv-x="590" 
d="M292 718q72 0 123.5 -19t97.5 -62l-68 -68q-33 32 -72 43.5t-85 11.5q-63 0 -96 -31t-33 -80q0 -20 6 -37t20 -29t31.5 -19.5t46.5 -12.5l85 -13q49 -8 79 -20t53 -33q58 -53 58 -146q0 -49 -19 -88t-53 -66t-81 -41t-103 -14q-81 0 -140.5 21t-111.5 73l71 71
q39 -39 84 -54t99 -15q71 0 109 28.5t38 81.5q0 50 -28 74q-26 23 -78 30l-84 12q-89 14 -134 57q-53 48 -53 137q0 46 16.5 84.5t47 66t74.5 42.5t100 15z" />
    <glyph glyph-name="T" unicode="T" horiz-adv-x="560" 
d="M530 615h-196v-615h-108v615h-196v97h500v-97z" />
    <glyph glyph-name="U" unicode="U" horiz-adv-x="675" 
d="M593 240q0 -55 -19.5 -100.5t-54 -77.5t-81.5 -50t-101 -18t-101 18t-81 50t-53.5 77.5t-19.5 100.5v472h108v-467q0 -72 40 -113t107 -41t107.5 41t40.5 113v467h108v-472z" />
    <glyph glyph-name="V" unicode="V" horiz-adv-x="564" 
d="M6 712h112l164 -519l164 519h112l-235 -712h-83z" />
    <glyph glyph-name="W" unicode="W" horiz-adv-x="871" 
d="M674 0h-94l-145 499l-144 -499h-94l-186 712h114l124 -509l143 509h87l143 -509l124 509h114z" />
    <glyph glyph-name="X" unicode="X" horiz-adv-x="578" 
d="M347 365l221 -365h-125l-155 273l-154 -273h-124l220 365l-206 347h124l140 -255l141 255h124z" />
    <glyph glyph-name="Y" unicode="Y" horiz-adv-x="544" 
d="M326 293v-293h-108v293l-213 419h118l149 -313l149 313h118z" />
    <glyph glyph-name="Z" unicode="Z" horiz-adv-x="552" 
d="M504 624l-330 -527h330v-97h-456v88l330 527h-316v97h442v-88z" />
    <glyph glyph-name="bracketleft" unicode="[" horiz-adv-x="339" 
d="M299 695h-116v-678h116v-91h-218v860h218v-91z" />
    <glyph glyph-name="backslash" unicode="\" horiz-adv-x="380" 
d="M380 -74h-98l-282 852h98z" />
    <glyph glyph-name="bracketright" unicode="]" horiz-adv-x="339" 
d="M258 -74h-218v91h116v678h-116v91h218v-860z" />
    <glyph glyph-name="asciicircum" unicode="^" horiz-adv-x="533" 
d="M484 400h-106l-112 207l-112 -207h-106l172 318h93z" />
    <glyph glyph-name="underscore" unicode="_" horiz-adv-x="571" 
d="M571 -172h-571v69h571v-69z" />
    <glyph glyph-name="grave" unicode="`" 
d="M309 599h-77l-111 162h113z" />
    <glyph glyph-name="a" unicode="a" horiz-adv-x="530" 
d="M245 513q106 0 157.5 -44t51.5 -130v-339h-100v46q-28 -28 -58 -40t-77 -12q-48 0 -80.5 11.5t-55.5 34.5q-40 42 -40 109q0 64 44 105t132 41h133v36q0 49 -25.5 72t-85.5 23q-41 0 -65 -11.5t-46 -38.5l-66 63q18 21 36.5 35t40 23t47 12.5t57.5 3.5zM235 224
q-93 0 -93 -73q0 -35 22.5 -53.5t73.5 -18.5q27 0 49.5 5t42.5 24q22 21 22 75v41h-117z" />
    <glyph glyph-name="b" unicode="b" horiz-adv-x="553" 
d="M183 456q28 33 60 45t73 12q38 0 70 -12t53 -33q18 -19 29.5 -43t17.5 -51.5t8 -58t2 -61.5q0 -63 -10 -120t-47 -95q-21 -21 -53.5 -33t-70.5 -12q-41 0 -73 12.5t-61 47.5v-54h-100v712h102v-256zM289 422q-35 0 -56 -13.5t-32 -36.5t-14.5 -53.5t-3.5 -64.5t3.5 -64.5
t14.5 -54t32 -37t56 -13.5q34 0 55 13.5t32 37t14.5 54t3.5 64.5t-3.5 64.5t-14.5 53.5t-32 36.5t-55 13.5z" />
    <glyph glyph-name="c" unicode="c" horiz-adv-x="487" 
d="M283 513q53 0 92 -16.5t75 -54.5l-70 -68q-24 26 -45.5 37t-51.5 11q-60 0 -94 -45q-17 -21 -23.5 -49.5t-6.5 -73.5t6.5 -74t23.5 -50q34 -45 94 -45q30 0 51.5 11t45.5 37l70 -67q-36 -38 -75 -55t-92 -17q-43 0 -83.5 14t-72 45t-51 80.5t-19.5 120.5t19.5 120.5
t51 80t72 44.5t83.5 14z" />
    <glyph glyph-name="d" unicode="d" horiz-adv-x="553" 
d="M472 0h-100v54q-29 -35 -61 -47.5t-73 -12.5q-39 0 -71 12t-53 33q-18 19 -29.5 43t-17.5 51.5t-8 58t-2 61.5t2 61.5t8 58.5t17.5 52t29.5 43q21 21 52.5 33t70.5 12q41 0 73 -12t60 -46v257h102v-712zM264 422q-35 0 -55.5 -14t-31.5 -37t-14.5 -53.5t-3.5 -64.5
t3.5 -64.5t14.5 -53.5t31.5 -36.5t55.5 -13.5t56 13.5t32 36.5t14.5 53.5t3.5 64.5t-3.5 64.5t-14.5 53.5t-32 37t-56 14z" />
    <glyph glyph-name="e" unicode="e" horiz-adv-x="540" 
d="M156 224q0 -66 33 -104t96 -38q43 0 69.5 12.5t53.5 39.5l65 -61q-20 -20 -39.5 -34.5t-42 -24.5t-49 -15t-59.5 -5q-48 0 -89.5 13.5t-72 44t-48.5 80.5t-18 122q0 125 58.5 192t156.5 67q51 0 91 -17.5t67.5 -50t42 -78t14.5 -100.5v-43h-329zM384 295q-2 23 -4 37.5
t-10 31.5q-13 29 -38.5 46.5t-61.5 17.5q-37 0 -62.5 -17.5t-38.5 -46.5q-8 -17 -10 -31.5t-3 -37.5h228z" />
    <glyph glyph-name="f" unicode="f" horiz-adv-x="328" 
d="M300 625h-45q-29 0 -42.5 -15.5t-13.5 -43.5v-59h101v-78h-101v-429h-102v429h-58v78h58v64q0 27 8.5 52.5t25.5 45t43 31.5t62 12h64v-87z" />
    <glyph glyph-name="g" unicode="g" horiz-adv-x="549" 
d="M236 513q41 0 72.5 -12.5t60.5 -47.5v54h99v-504q0 -47 -15 -86t-43 -67.5t-68 -44.5t-91 -16q-58 0 -98.5 15t-80.5 52l65 65q24 -23 48 -34t62 -11q32 0 54.5 10.5t37 28.5t21 41t6.5 49v65q-28 -33 -60 -45.5t-71 -12.5q-38 0 -69 12t-52 33q-37 37 -47 89t-10 117
t10 117t47 89q44 44 122 44zM263 422q-35 0 -55.5 -13.5t-31 -36t-14 -51t-3.5 -58.5t3.5 -58.5t14 -51t31 -36t55.5 -13.5q34 0 54.5 13.5t31.5 36t14 51t3 58.5t-3 58.5t-14 51t-31.5 36t-54.5 13.5z" />
    <glyph glyph-name="h" unicode="h" horiz-adv-x="568" 
d="M183 456q26 29 60 43t73 14t70.5 -12t54.5 -34q29 -29 40 -64.5t11 -78.5v-324h-102v309q0 59 -29.5 86t-72.5 27t-74 -27.5t-31 -85.5v-309h-102v712h102v-256z" />
    <glyph glyph-name="i" unicode="i" horiz-adv-x="264" 
d="M183 0h-102v507h102v-507zM186 607h-108v108h108v-108z" />
    <glyph glyph-name="j" unicode="j" horiz-adv-x="264" 
d="M183 -65q0 -28 -8 -53.5t-25 -44.5t-43.5 -30.5t-62.5 -11.5h-63v87h45q31 0 43 15t12 44v566h102v-572zM186 607h-108v108h108v-108z" />
    <glyph glyph-name="k" unicode="k" horiz-adv-x="548" 
d="M183 273l197 234h124l-176 -199l198 -308h-126l-142 234l-75 -85v-149h-102v712h102v-439z" />
    <glyph glyph-name="l" unicode="l" horiz-adv-x="311" 
d="M180 163q0 -41 12 -56.5t43 -15.5h45v-91h-56q-146 0 -146 157v555h102v-549z" />
    <glyph glyph-name="m" unicode="m" horiz-adv-x="877" 
d="M619 513q39 0 72 -12t56 -34q29 -29 41.5 -64.5t12.5 -78.5v-324h-102v309q0 59 -29.5 86t-72.5 27q-21 0 -40 -6.5t-33.5 -20t-23 -34t-8.5 -47.5v-314h-102v309q0 59 -29.5 86t-72.5 27t-74 -27.5t-31 -85.5v-309h-102v507h100v-51q26 28 61.5 42.5t73.5 14.5
q96 0 144 -74q61 74 159 74z" />
    <glyph glyph-name="n" unicode="n" horiz-adv-x="568" 
d="M316 513q39 0 70.5 -12t54.5 -34q29 -29 40 -64.5t11 -78.5v-324h-102v309q0 59 -29.5 86t-72.5 27t-74 -27.5t-31 -85.5v-309h-102v507h100v-51q26 29 61.5 43t73.5 14z" />
    <glyph glyph-name="o" unicode="o" 
d="M268 513q52 0 89.5 -17t62.5 -43q36 -38 48 -86.5t12 -112.5q0 -65 -12 -113.5t-48 -86.5q-25 -26 -62.5 -43t-89.5 -17t-89 17t-62 43q-36 38 -48 86.5t-12 113.5q0 64 12 112.5t48 86.5q25 26 62 43t89 17zM268 422q-45 0 -74 -29q-23 -23 -29 -60t-6 -79t6 -79t29 -60
q30 -30 74 -30q45 0 75 30q23 23 29 60t6 79t-6 79t-29 60q-29 29 -75 29z" />
    <glyph glyph-name="p" unicode="p" horiz-adv-x="553" 
d="M315 513q39 0 71 -12t53 -33q18 -19 29.5 -43t17.5 -51.5t8 -58t2 -61.5t-2 -61.5t-8 -58.5t-17.5 -52t-29.5 -43q-21 -21 -52.5 -33t-70.5 -12q-41 0 -73 12t-60 46v-257h-102v712h100v-54q29 35 61 47.5t73 12.5zM289 422q-35 0 -56 -13.5t-32 -36.5t-14.5 -53.5
t-3.5 -64.5t3.5 -64.5t14.5 -54t32 -37t56 -13.5q34 0 55 13.5t32 37t14.5 54t3.5 64.5t-3.5 64.5t-14.5 53.5t-32 36.5t-55 13.5z" />
    <glyph glyph-name="q" unicode="q" horiz-adv-x="553" 
d="M238 513q41 0 73 -12.5t61 -47.5v54h100v-712h-102v256q-28 -33 -60 -45t-73 -12q-38 0 -70 12t-53 33q-18 19 -29.5 43t-17.5 51.5t-8 58t-2 61.5q0 63 10 120t47 95q21 21 53.5 33t70.5 12zM264 422q-35 0 -55.5 -14t-31.5 -37t-14.5 -53.5t-3.5 -64.5t3.5 -64.5
t14.5 -53.5t31.5 -36.5t55.5 -13.5t56 13.5t32 36.5t14.5 53.5t3.5 64.5t-3.5 64.5t-14.5 53.5t-32 37t-56 14z" />
    <glyph glyph-name="r" unicode="r" horiz-adv-x="439" 
d="M316 513q37 0 66 -11t55 -37l-77 -77q-17 17 -33.5 25.5t-42.5 8.5q-42 0 -71.5 -30.5t-29.5 -83.5v-308h-102v507h100v-55q20 27 56 44t79 17z" />
    <glyph glyph-name="s" unicode="s" horiz-adv-x="499" 
d="M248 513q58 0 105.5 -13t82.5 -44l-64 -65q-24 20 -56.5 28.5t-68.5 8.5q-47 0 -69.5 -18t-22.5 -47q0 -26 16 -40t54 -18l71 -6q79 -7 119.5 -42t40.5 -102q0 -40 -16 -70t-44 -50.5t-67 -30.5t-84 -10q-62 0 -115 14.5t-98 58.5l67 67q31 -32 69.5 -42.5t76.5 -10.5
q48 0 79.5 17t31.5 53q0 26 -15.5 41t-52.5 19l-81 7q-72 7 -111 40t-39 100q0 37 15 66t41 49t60.5 30t74.5 10z" />
    <glyph glyph-name="t" unicode="t" horiz-adv-x="342" 
d="M195 507h98v-78h-98v-283q0 -59 56 -59h42v-87h-61q-36 0 -62 11.5t-43 31t-25.5 45t-8.5 53.5v288h-58v78h58v145h102v-145z" />
    <glyph glyph-name="u" unicode="u" horiz-adv-x="568" 
d="M487 0h-100v51q-26 -29 -61.5 -43t-73.5 -14q-39 0 -70.5 12t-54.5 34q-29 29 -40 64.5t-11 78.5v324h102v-309q0 -59 29.5 -86t72.5 -27q21 0 40.5 6.5t33.5 20.5t22.5 35.5t8.5 50.5v309h102v-507z" />
    <glyph glyph-name="v" unicode="v" horiz-adv-x="471" 
d="M277 0h-83l-186 507h108l120 -357l119 357h108z" />
    <glyph glyph-name="w" unicode="w" horiz-adv-x="743" 
d="M8 507h108l99 -357l116 357h80l116 -357l99 357h109l-158 -507h-88l-118 366l-118 -366h-87z" />
    <glyph glyph-name="x" unicode="x" horiz-adv-x="503" 
d="M308 259l173 -259h-123l-106 173l-107 -173h-123l174 259l-167 248h123l100 -165l99 165h123z" />
    <glyph glyph-name="y" unicode="y" horiz-adv-x="472" 
d="M239 -105q-14 -40 -37 -63q-21 -21 -48 -29t-56 -8h-41v92h26q32 0 47 11.5t26 42.5l29 83l-177 483h108l121 -357l118 357h109z" />
    <glyph glyph-name="z" unicode="z" horiz-adv-x="469" 
d="M43 79l251 337h-237v91h364v-79l-252 -337h252v-91h-378v79z" />
    <glyph glyph-name="braceleft" unicode="{" horiz-adv-x="409" 
d="M363 695h-39q-24 0 -37 -3t-21 -11t-11.5 -23t-3.5 -41v-161q0 -24 -6 -41t-15 -28t-21 -18.5t-24 -12.5q12 -5 24 -12.5t21 -18.5t15 -28t6 -41v-161q0 -26 3.5 -41t11.5 -23t21 -11t37 -3h39v-91h-71q-38 0 -64 8.5t-43 25.5q-20 20 -28 44.5t-8 60.5v167q0 42 -18 60
q-8 8 -19.5 13.5t-28.5 5.5h-37v90h37q17 0 28.5 5.5t19.5 13.5q18 18 18 60v167q0 36 8 60.5t28 44.5q17 17 43 25.5t64 8.5h71v-91z" />
    <glyph glyph-name="bar" unicode="|" horiz-adv-x="338" 
d="M220 -74h-102v860h102v-860z" />
    <glyph glyph-name="braceright" unicode="}" horiz-adv-x="409" 
d="M117 786q38 0 64 -8.5t43 -25.5q20 -20 28 -44.5t8 -60.5v-167q0 -42 18 -60q8 -8 19.5 -13.5t28.5 -5.5h37v-90h-37q-17 0 -28.5 -5.5t-19.5 -13.5q-18 -18 -18 -60v-167q0 -36 -8 -60.5t-28 -44.5q-17 -17 -43 -25.5t-64 -8.5h-71v91h39q24 0 37 3t21 11t11.5 23
t3.5 41v161q0 24 6 41t15 28t21 18.5t24 12.5q-12 5 -24 12.5t-21 18.5t-15 28t-6 41v161q0 26 -3.5 41t-11.5 23t-21 11t-37 3h-39v91h71z" />
    <glyph glyph-name="asciitilde" unicode="~" horiz-adv-x="574" 
d="M190 357q29 0 54.5 -9t56.5 -24q21 -11 40 -17.5t40 -6.5q10 0 19.5 1.5t19 6t21 13.5t25.5 23l65 -64q-22 -22 -40.5 -37t-36 -24t-34.5 -13t-37 -4q-29 0 -55 9t-57 24q-21 11 -39.5 17.5t-39.5 6.5t-39 -8t-46 -36l-64 64q22 22 40.5 37t35.5 24t34 13t37 4z" />
    <glyph glyph-name="uni00A0" unicode="&#xa0;" horiz-adv-x="240" 
 />
    <glyph glyph-name="exclamdown" unicode="&#xa1;" horiz-adv-x="332" 
d="M211 -205h-124l22 500h80zM205 398h-112v109h112v-109z" />
    <glyph glyph-name="cent" unicode="&#xa2;" horiz-adv-x="505" 
d="M324 625q43 -5 77.5 -22t66.5 -49l-73 -68q-20 21 -38.5 32t-41.5 15v-334q23 4 41.5 15t38.5 32l73 -68q-32 -32 -66.5 -49t-77.5 -22v-107h-80v110q-38 7 -72 24.5t-59.5 48.5t-40.5 76t-15 107q0 61 15 106.5t40.5 76.5t59.5 48.5t72 24.5v90h80v-87zM253 529
q-35 -11 -57 -39q-17 -22 -24.5 -50.5t-7.5 -73.5t7.5 -73.5t24.5 -50.5q22 -29 57 -39v326z" />
    <glyph glyph-name="sterling" unicode="&#xa3;" horiz-adv-x="564" 
d="M343 718q55 0 95.5 -16t77.5 -53l-72 -71q-19 19 -40.5 31t-60.5 12q-61 0 -95.5 -36t-34.5 -106v-88h130v-78h-130v-216h303v-97h-411v313h-62v78h62v96q0 55 19 98.5t51 72.5t75.5 44.5t92.5 15.5z" />
    <glyph glyph-name="currency" unicode="&#xa4;" horiz-adv-x="664" 
d="M596 475l-71 -71q40 -57 40 -125q0 -69 -41 -127l72 -71l-66 -67l-73 72q-25 -17 -57.5 -26.5t-67.5 -9.5t-67.5 9.5t-57.5 26.5l-72 -72l-67 67l72 71q-41 58 -41 127t41 125l-72 71l67 67l71 -71q25 17 58 26.5t68 9.5t68 -9.5t58 -26.5l72 71zM332 416
q-27 0 -51.5 -10.5t-43 -29.5t-29 -44t-10.5 -53q0 -29 10.5 -54t29 -44t43 -29.5t51.5 -10.5t51.5 10.5t43 29.5t29 44t10.5 54q0 28 -10.5 53t-29 44t-43 29.5t-51.5 10.5z" />
    <glyph glyph-name="yen" unicode="&#xa5;" horiz-adv-x="544" 
d="M218 182h-153v67h153v44l-21 43h-132v66h98l-157 310h117l151 -314l147 314h117l-157 -310h98v-66h-132l-21 -43v-44h153v-67h-153v-182h-108v182z" />
    <glyph glyph-name="brokenbar" unicode="&#xa6;" horiz-adv-x="338" 
d="M220 436h-102v350h102v-350zM220 -74h-102v350h102v-350z" />
    <glyph glyph-name="section" unicode="&#xa7;" horiz-adv-x="546" 
d="M273 718q44 0 78.5 -12.5t58.5 -34t37 -52t14 -66.5h-98q-3 41 -27.5 58.5t-62.5 17.5q-42 0 -65 -20t-23 -57q0 -31 20 -50.5t55 -30.5l70 -21q69 -21 105.5 -66.5t36.5 -119.5q0 -29 -9 -54t-23 -44.5t-31 -34t-34 -23.5q38 -17 63 -50.5t25 -90.5q0 -43 -15.5 -76
t-42 -55.5t-61 -34.5t-72.5 -12q-37 0 -71 10t-61 31t-44 53t-18 76h100q3 -37 27.5 -58t66.5 -21q43 0 67 22.5t24 61.5q0 27 -18 51t-60 37l-70 21q-69 21 -105 66t-36 120q0 29 8.5 54t22.5 44.5t31.5 34t34.5 23.5q-37 18 -60.5 48.5t-23.5 85.5q0 35 12.5 65.5
t36.5 53.5t58.5 36.5t78.5 13.5zM273 369q-45 0 -71 -28q-14 -14 -21 -32.5t-7 -47.5t8 -47.5t20 -31.5q26 -28 71 -28q44 0 70 28q12 13 20.5 31t8.5 48q0 52 -29 80q-14 13 -30.5 20.5t-39.5 7.5z" />
    <glyph glyph-name="dieresis" unicode="&#xa8;" 
d="M423 604h-92v108h92v-108zM207 604h-92v108h92v-108z" />
    <glyph glyph-name="copyright" unicode="&#xa9;" horiz-adv-x="858" 
d="M429 -6q-75 0 -141 28.5t-115 77.5t-77.5 115t-28.5 141t28.5 141t77.5 115t115 77.5t141 28.5t141 -28.5t115 -77.5t77.5 -115t28.5 -141t-28.5 -141t-77.5 -115t-115 -77.5t-141 -28.5zM435 156q-40 0 -73 14t-56 40t-36 63t-13 83t13 83t36 63t56 40t73 14
q42 0 72.5 -13t59.5 -39l-47 -47q-23 20 -41 27.5t-44 7.5q-57 0 -82 -38t-25 -98t25 -98t82 -38q26 0 44 7.5t41 27.5l47 -47q-29 -25 -59.5 -38.5t-72.5 -13.5zM429 62q60 0 113 22.5t92 62.5t61.5 93.5t22.5 115.5t-22.5 115.5t-61.5 93.5t-92 62.5t-113 22.5t-113 -22.5
t-92 -62.5t-61.5 -93.5t-22.5 -115.5t22.5 -115.5t61.5 -93.5t92 -62.5t113 -22.5z" />
    <glyph glyph-name="ordfeminine" unicode="&#xaa;" horiz-adv-x="452" 
d="M212 716q167 0 167 -139v-270h-82v36q-22 -22 -45 -31t-60 -9q-38 0 -63.5 8.5t-44.5 27.5q-17 17 -24.5 39t-7.5 48q0 51 34.5 84t103.5 33h106v28q0 38 -19.5 56t-67.5 18q-33 0 -52 -8.5t-36 -30.5l-54 52q29 34 62 46t83 12zM203 485q-35 0 -52.5 -15t-17.5 -42
q0 -55 71 -55q23 0 41.5 3.5t33.5 18.5q17 17 17 58v32h-93z" />
    <glyph glyph-name="guillemotleft" unicode="&#xab;" horiz-adv-x="592" 
d="M520 378l-108 -106l108 -107v-123l-230 230l230 229v-123zM267 378l-107 -106l107 -107v-123l-230 230l230 229v-123z" />
    <glyph glyph-name="logicalnot" unicode="&#xac;" horiz-adv-x="533" 
d="M484 89h-95v141h-341v95h436v-236z" />
    <glyph glyph-name="uni00AD" unicode="&#xad;" horiz-adv-x="426" 
d="M359 230h-292v95h292v-95z" />
    <glyph glyph-name="registered" unicode="&#xae;" horiz-adv-x="858" 
d="M429 -6q-75 0 -141 28.5t-115 77.5t-77.5 115t-28.5 141t28.5 141t77.5 115t115 77.5t141 28.5t141 -28.5t115 -77.5t77.5 -115t28.5 -141t-28.5 -141t-77.5 -115t-115 -77.5t-141 -28.5zM429 62q60 0 113 22.5t92 62.5t61.5 93.5t22.5 115.5t-22.5 115.5t-61.5 93.5
t-92 62.5t-113 22.5t-113 -22.5t-92 -62.5t-61.5 -93.5t-22.5 -115.5t22.5 -115.5t61.5 -93.5t92 -62.5t113 -22.5zM305 552h147q28 0 51 -9.5t39.5 -26t26 -38.5t9.5 -46q0 -42 -22.5 -68.5t-54.5 -37.5l87 -165h-81l-80 155h-50v-155h-72v391zM443 373q29 0 46.5 17
t17.5 42t-17.5 42t-46.5 17h-66v-118h66z" />
    <glyph glyph-name="macron" unicode="&#xaf;" 
d="M423 618h-309v73h309v-73z" />
    <glyph glyph-name="degree" unicode="&#xb0;" horiz-adv-x="471" 
d="M235 724q36 0 68 -14t55.5 -37.5t37.5 -55.5t14 -68t-14 -67.5t-37.5 -55.5t-55.5 -37.5t-68 -13.5t-67.5 13.5t-55.5 37.5t-37.5 55.5t-13.5 67.5t13.5 68t37.5 55.5t55.5 37.5t67.5 14zM235 642q-38 0 -64 -27t-26 -66t26 -65.5t64 -26.5t64.5 26.5t26.5 65.5
q0 19 -7 36t-19.5 30t-29 20t-35.5 7z" />
    <glyph glyph-name="plusminus" unicode="&#xb1;" horiz-adv-x="533" 
d="M314 411h168v-95h-168v-169h-95v169h-168v95h168v168h95v-168zM482 0h-431v95h431v-95z" />
    <glyph glyph-name="twosuperior" unicode="&#xb2;" horiz-adv-x="231" 
d="M26 482l111 116q11 11 14.5 20.5t3.5 20.5q0 13 -10 22.5t-27 9.5q-34 0 -37 -36h-56q2 41 28.5 62.5t64.5 21.5q41 0 66 -22.5t25 -57.5q0 -20 -7.5 -34t-24.5 -32l-86 -91h115v-48h-180v48z" />
    <glyph glyph-name="threesuperior" unicode="&#xb3;" horiz-adv-x="232" 
d="M113 431q-39 0 -66.5 20.5t-29.5 67.5h57q2 -17 12.5 -27t26.5 -10q17 0 28.5 10.5t11.5 30.5t-12 28.5t-29 8.5h-9v39h9q17 0 27 8.5t10 24.5q0 17 -10.5 26t-25.5 9q-14 0 -23.5 -8.5t-11.5 -25.5h-57q2 42 27 64t65 22q44 0 68.5 -23.5t24.5 -55.5q0 -25 -10.5 -39
t-26.5 -20q17 -8 29 -24t12 -42q0 -38 -26.5 -61t-70.5 -23z" />
    <glyph glyph-name="acute" unicode="&#xb4;" 
d="M303 599h-77l75 162h113z" />
    <glyph glyph-name="mu" unicode="&#xb5;" horiz-adv-x="574" 
d="M392 0v51q-26 -29 -61 -43t-73 -14q-45 0 -75 25v-224h-102v712h102v-309q0 -59 30 -86t73 -27t73.5 27t30.5 86v309h102v-507h-100z" />
    <glyph glyph-name="paragraph" unicode="&#xb6;" horiz-adv-x="637" 
d="M544 -205h-102v820h-108v-820h-102v522q-41 0 -76.5 16t-61.5 43t-41 62.5t-15 74.5q0 45 16 81.5t45 62.5t71 40.5t93 14.5h281v-917z" />
    <glyph glyph-name="periodcentered" unicode="&#xb7;" horiz-adv-x="278" 
d="M200 217h-122v122h122v-122z" />
    <glyph glyph-name="cedilla" unicode="&#xb8;" 
d="M233 -63h82l-51 -147h-101z" />
    <glyph glyph-name="onesuperior" unicode="&#xb9;" horiz-adv-x="237" 
d="M109 651l-63 -53v65l63 53h57v-282h-57v217z" />
    <glyph glyph-name="ordmasculine" unicode="&#xba;" horiz-adv-x="459" 
d="M398 510q0 -52 -9.5 -90.5t-38.5 -68.5q-20 -20 -49.5 -34t-71.5 -14t-71 14t-49 34q-29 30 -38.5 68.5t-9.5 90.5q0 51 9.5 89.5t38.5 68.5q20 20 49 34t71 14t71.5 -14t49.5 -34q29 -30 38.5 -68.5t9.5 -89.5zM314 510q0 32 -3.5 61t-22.5 48q-23 23 -59 23
q-35 0 -58 -23q-19 -19 -23 -48t-4 -61t4 -61.5t23 -48.5q23 -23 58 -23q36 0 59 23q19 19 22.5 48.5t3.5 61.5z" />
    <glyph glyph-name="guillemotright" unicode="&#xbb;" horiz-adv-x="592" 
d="M555 271l-230 -229v123l107 106l-107 107v123zM302 271l-230 -229v123l108 106l-108 107v123z" />
    <glyph glyph-name="onequarter" unicode="&#xbc;" horiz-adv-x="873" 
d="M564 712h82l-335 -712h-82zM733 63h-171v66l147 298h75l-146 -298h95v89h70v-89h41v-66h-41v-63h-70v63zM155 626l-87 -76v87l87 75h77v-427h-77v341z" />
    <glyph glyph-name="onehalf" unicode="&#xbd;" horiz-adv-x="873" 
d="M564 712h82l-335 -712h-82zM574 69l167 186q14 15 18.5 27t4.5 29q0 23 -15.5 37t-42.5 14q-23 0 -40 -12t-17 -43h-75q0 58 37 91t95 33q60 0 96 -32t36 -88q0 -15 -2.5 -27.5t-8.5 -23.5t-15 -22.5t-22 -26.5l-130 -143h179v-68h-265v69zM155 626l-87 -76v87l87 75h77
v-427h-77v341z" />
    <glyph glyph-name="threequarters" unicode="&#xbe;" horiz-adv-x="873" 
d="M564 712h82l-335 -712h-82zM733 63h-171v66l147 298h75l-146 -298h95v89h70v-89h41v-66h-41v-63h-70v63zM166 281q-27 0 -52 7t-44.5 22.5t-31.5 39t-13 56.5h76q2 -31 20.5 -44.5t44.5 -13.5t45 16.5t19 44.5q0 61 -66 61h-11v67h11q29 0 44.5 15t15.5 40q0 29 -17 43
t-41 14q-27 0 -42 -14.5t-17 -39.5h-76q1 28 12 50.5t29 38t42.5 24t51.5 8.5q29 0 53.5 -9t42.5 -25t28 -38.5t10 -49.5q0 -35 -13 -55t-40 -33q29 -13 44 -36.5t15 -61.5q0 -32 -11 -56t-30.5 -39.5t-45 -23.5t-53.5 -8z" />
    <glyph glyph-name="questiondown" unicode="&#xbf;" horiz-adv-x="511" 
d="M286 260q0 -31 -8 -53t-26 -46l-78 -105q-14 -18 -22.5 -36.5t-8.5 -39.5q0 -42 27 -71t71 -29q47 0 72 30t25 71h102q0 -42 -15 -77.5t-42 -61t-63.5 -39.5t-78.5 -14q-41 0 -77.5 13t-63.5 38t-43 60.5t-16 79.5q0 36 14 65.5t34 57.5l77 108q8 11 13 26.5t5 27.5v30
h102v-35zM292 398h-113v109h113v-109z" />
    <glyph glyph-name="Agrave" unicode="&#xc0;" horiz-adv-x="625" 
d="M617 0h-115l-49 143h-281l-49 -143h-115l261 712h87zM203 235h219l-110 316zM359 781h-77l-111 162h113z" />
    <glyph glyph-name="Aacute" unicode="&#xc1;" horiz-adv-x="625" 
d="M617 0h-115l-49 143h-281l-49 -143h-115l261 712h87zM203 235h219l-110 316zM341 781h-77l75 162h113z" />
    <glyph glyph-name="Acircumflex" unicode="&#xc2;" horiz-adv-x="625" 
d="M617 0h-115l-49 143h-281l-49 -143h-115l261 712h87zM203 235h219l-110 316zM485 781h-85l-87 97l-87 -97h-85l129 161h86z" />
    <glyph glyph-name="Atilde" unicode="&#xc3;" horiz-adv-x="625" 
d="M617 0h-115l-49 143h-281l-49 -143h-115l261 712h87zM203 235h219l-110 316zM247 905q22 0 38.5 -6t36.5 -18q15 -9 27.5 -14t27.5 -5q12 0 25.5 5.5t33.5 25.5l48 -47q-34 -34 -57.5 -44.5t-46.5 -10.5q-22 0 -38.5 6t-36.5 17q-14 8 -27.5 13.5t-28.5 5.5
q-13 0 -25 -4.5t-33 -25.5l-48 47q34 34 57 44.5t47 10.5z" />
    <glyph glyph-name="Adieresis" unicode="&#xc4;" horiz-adv-x="625" 
d="M617 0h-115l-49 143h-281l-49 -143h-115l261 712h87zM203 235h219l-110 316zM467 786h-92v108h92v-108zM251 786h-92v108h92v-108z" />
    <glyph glyph-name="Aring" unicode="&#xc5;" horiz-adv-x="625" 
d="M617 0h-115l-49 143h-281l-49 -143h-115l261 712h87zM203 235h219l-110 316zM313 1004q26 0 48.5 -10t39.5 -27t27 -39.5t10 -48.5t-10 -48.5t-27 -39.5t-39.5 -27t-48.5 -10t-48.5 10t-39.5 27t-27 39.5t-10 48.5t10 48.5t27 39.5t39.5 27t48.5 10zM313 942
q-26 0 -45 -18.5t-19 -44.5t19 -44.5t45 -18.5t45 18.5t19 44.5t-19 44.5t-45 18.5z" />
    <glyph glyph-name="AE" unicode="&#xc6;" horiz-adv-x="955" 
d="M900 615h-347v-207h296v-97h-296v-214h347v-97h-455v162h-235l-84 -162h-118l374 712h518v-97zM257 254h188v361z" />
    <glyph glyph-name="Ccedilla" unicode="&#xc7;" horiz-adv-x="628" 
d="M323 718q99 0 167 -56.5t87 -162.5h-110q-12 55 -48 88.5t-96 33.5q-65 0 -105 -43q-14 -14 -22 -31t-13 -41.5t-6.5 -60.5t-1.5 -89t1.5 -89t6.5 -60.5t13 -41.5t22 -31q40 -43 105 -43q60 0 96 33.5t48 88.5h110q-19 -106 -87.5 -162.5t-166.5 -56.5q-59 0 -104 18.5
t-80 53.5q-26 26 -40.5 54t-21.5 61.5t-8.5 76t-1.5 98.5t1.5 98.5t8.5 76t21.5 61.5t40.5 54q35 35 80 53.5t104 18.5zM320 -209h-101l70 147h82z" />
    <glyph glyph-name="Egrave" unicode="&#xc8;" horiz-adv-x="603" 
d="M548 615h-347v-208h296v-97h-296v-213h347v-97h-455v712h455v-97zM355 781h-77l-111 162h113z" />
    <glyph glyph-name="Eacute" unicode="&#xc9;" horiz-adv-x="603" 
d="M548 615h-347v-208h296v-97h-296v-213h347v-97h-455v712h455v-97zM337 781h-77l75 162h113z" />
    <glyph glyph-name="Ecircumflex" unicode="&#xca;" horiz-adv-x="603" 
d="M548 615h-347v-208h296v-97h-296v-213h347v-97h-455v712h455v-97zM481 781h-85l-87 97l-87 -97h-85l129 161h86z" />
    <glyph glyph-name="Edieresis" unicode="&#xcb;" horiz-adv-x="603" 
d="M548 615h-347v-208h296v-97h-296v-213h347v-97h-455v712h455v-97zM463 786h-92v108h92v-108zM247 786h-92v108h92v-108z" />
    <glyph glyph-name="Igrave" unicode="&#xcc;" horiz-adv-x="294" 
d="M201 0h-108v712h108v-712zM195 781h-77l-111 162h113z" />
    <glyph glyph-name="Iacute" unicode="&#xcd;" horiz-adv-x="294" 
d="M201 0h-108v712h108v-712zM177 781h-77l75 162h113z" />
    <glyph glyph-name="Icircumflex" unicode="&#xce;" horiz-adv-x="294" 
d="M201 0h-108v712h108v-712zM321 781h-85l-87 97l-87 -97h-85l129 161h86z" />
    <glyph glyph-name="Idieresis" unicode="&#xcf;" horiz-adv-x="294" 
d="M201 0h-108v712h108v-712zM303 786h-92v108h92v-108zM87 786h-92v108h92v-108z" />
    <glyph glyph-name="Eth" unicode="&#xd0;" horiz-adv-x="685" 
d="M362 712q67 0 115.5 -21.5t86.5 -68.5q19 -24 30 -52.5t16.5 -61.5t6.5 -71t1 -81t-1 -81t-6.5 -71t-16.5 -61.5t-30 -52.5q-38 -47 -86.5 -68.5t-115.5 -21.5h-250v318h-74v83h74v311h250zM220 615v-214h138v-83h-138v-221h130q38 0 68.5 11t53.5 37q26 29 32 80t6 131
t-6 131t-32 80q-23 26 -53.5 37t-68.5 11h-130z" />
    <glyph glyph-name="Ntilde" unicode="&#xd1;" horiz-adv-x="722" 
d="M629 0h-99l-329 501v-501h-108v712h99l329 -501v501h108v-712zM295 905q22 0 38.5 -6t36.5 -18q15 -9 27.5 -14t27.5 -5q12 0 25.5 5.5t33.5 25.5l48 -47q-34 -34 -57.5 -44.5t-46.5 -10.5q-22 0 -38.5 6t-36.5 17q-14 8 -27.5 13.5t-28.5 5.5q-13 0 -25 -4.5t-33 -25.5
l-48 47q34 34 57 44.5t47 10.5z" />
    <glyph glyph-name="Ograve" unicode="&#xd2;" horiz-adv-x="646" 
d="M323 718q59 0 104 -18.5t80 -53.5q26 -26 40.5 -54t21.5 -61.5t8.5 -76t1.5 -98.5t-1.5 -98.5t-8.5 -76t-21.5 -61.5t-40.5 -54q-35 -35 -80 -53.5t-104 -18.5t-104 18.5t-80 53.5q-26 26 -40.5 54t-21.5 61.5t-8.5 76t-1.5 98.5t1.5 98.5t8.5 76t21.5 61.5t40.5 54
q35 35 80 53.5t104 18.5zM323 621q-65 0 -106 -43q-13 -14 -21.5 -31t-13 -41.5t-6 -60.5t-1.5 -89t1.5 -88.5t6 -60.5t13 -41.5t21.5 -30.5q42 -44 106 -44t106 44q13 14 21.5 30.5t13 41t6 60.5t1.5 89t-1.5 89t-6 61t-13 41.5t-21.5 30.5q-41 43 -106 43zM369 781h-77
l-111 162h113z" />
    <glyph glyph-name="Oacute" unicode="&#xd3;" horiz-adv-x="646" 
d="M323 718q59 0 104 -18.5t80 -53.5q26 -26 40.5 -54t21.5 -61.5t8.5 -76t1.5 -98.5t-1.5 -98.5t-8.5 -76t-21.5 -61.5t-40.5 -54q-35 -35 -80 -53.5t-104 -18.5t-104 18.5t-80 53.5q-26 26 -40.5 54t-21.5 61.5t-8.5 76t-1.5 98.5t1.5 98.5t8.5 76t21.5 61.5t40.5 54
q35 35 80 53.5t104 18.5zM323 621q-65 0 -106 -43q-13 -14 -21.5 -31t-13 -41.5t-6 -60.5t-1.5 -89t1.5 -88.5t6 -60.5t13 -41.5t21.5 -30.5q42 -44 106 -44t106 44q13 14 21.5 30.5t13 41t6 60.5t1.5 89t-1.5 89t-6 61t-13 41.5t-21.5 30.5q-41 43 -106 43zM351 781h-77
l75 162h113z" />
    <glyph glyph-name="Ocircumflex" unicode="&#xd4;" horiz-adv-x="646" 
d="M323 718q59 0 104 -18.5t80 -53.5q26 -26 40.5 -54t21.5 -61.5t8.5 -76t1.5 -98.5t-1.5 -98.5t-8.5 -76t-21.5 -61.5t-40.5 -54q-35 -35 -80 -53.5t-104 -18.5t-104 18.5t-80 53.5q-26 26 -40.5 54t-21.5 61.5t-8.5 76t-1.5 98.5t1.5 98.5t8.5 76t21.5 61.5t40.5 54
q35 35 80 53.5t104 18.5zM323 621q-65 0 -106 -43q-13 -14 -21.5 -31t-13 -41.5t-6 -60.5t-1.5 -89t1.5 -88.5t6 -60.5t13 -41.5t21.5 -30.5q42 -44 106 -44t106 44q13 14 21.5 30.5t13 41t6 60.5t1.5 89t-1.5 89t-6 61t-13 41.5t-21.5 30.5q-41 43 -106 43zM495 781h-85
l-87 97l-87 -97h-85l129 161h86z" />
    <glyph glyph-name="Otilde" unicode="&#xd5;" horiz-adv-x="646" 
d="M323 718q59 0 104 -18.5t80 -53.5q26 -26 40.5 -54t21.5 -61.5t8.5 -76t1.5 -98.5t-1.5 -98.5t-8.5 -76t-21.5 -61.5t-40.5 -54q-35 -35 -80 -53.5t-104 -18.5t-104 18.5t-80 53.5q-26 26 -40.5 54t-21.5 61.5t-8.5 76t-1.5 98.5t1.5 98.5t8.5 76t21.5 61.5t40.5 54
q35 35 80 53.5t104 18.5zM323 621q-65 0 -106 -43q-13 -14 -21.5 -31t-13 -41.5t-6 -60.5t-1.5 -89t1.5 -88.5t6 -60.5t13 -41.5t21.5 -30.5q42 -44 106 -44t106 44q13 14 21.5 30.5t13 41t6 60.5t1.5 89t-1.5 89t-6 61t-13 41.5t-21.5 30.5q-41 43 -106 43zM257 905
q22 0 38.5 -6t36.5 -18q15 -9 27.5 -14t27.5 -5q12 0 25.5 5.5t33.5 25.5l48 -47q-34 -34 -57.5 -44.5t-46.5 -10.5q-22 0 -38.5 6t-36.5 17q-14 8 -27.5 13.5t-28.5 5.5q-13 0 -25 -4.5t-33 -25.5l-48 47q34 34 57 44.5t47 10.5z" />
    <glyph glyph-name="Odieresis" unicode="&#xd6;" horiz-adv-x="646" 
d="M323 718q59 0 104 -18.5t80 -53.5q26 -26 40.5 -54t21.5 -61.5t8.5 -76t1.5 -98.5t-1.5 -98.5t-8.5 -76t-21.5 -61.5t-40.5 -54q-35 -35 -80 -53.5t-104 -18.5t-104 18.5t-80 53.5q-26 26 -40.5 54t-21.5 61.5t-8.5 76t-1.5 98.5t1.5 98.5t8.5 76t21.5 61.5t40.5 54
q35 35 80 53.5t104 18.5zM323 621q-65 0 -106 -43q-13 -14 -21.5 -31t-13 -41.5t-6 -60.5t-1.5 -89t1.5 -88.5t6 -60.5t13 -41.5t21.5 -30.5q42 -44 106 -44t106 44q13 14 21.5 30.5t13 41t6 60.5t1.5 89t-1.5 89t-6 61t-13 41.5t-21.5 30.5q-41 43 -106 43zM477 786h-92
v108h92v-108zM261 786h-92v108h92v-108z" />
    <glyph glyph-name="multiply" unicode="&#xd7;" horiz-adv-x="533" 
d="M476 424l-146 -146l146 -146l-64 -63l-146 145l-145 -145l-64 63l146 146l-146 146l64 64l145 -146l146 146z" />
    <glyph glyph-name="Oslash" unicode="&#xd8;" horiz-adv-x="646" 
d="M504 649q28 -27 43 -55t22 -62.5t8.5 -77t1.5 -98.5t-1.5 -98.5t-8.5 -76t-21.5 -61.5t-40.5 -54q-35 -35 -80 -53.5t-104 -18.5q-68 0 -120 26l-30 -64h-82l51 107l-3 3q-26 26 -40.5 53.5t-21.5 61.5t-8.5 76.5t-1.5 98.5t1.5 98.5t8.5 76t21.5 61.5t40.5 54
q35 35 80 53.5t104 18.5q68 0 120 -26l30 64h83zM175 356q0 -40 1 -69.5t3 -52t6.5 -39t10.5 -29.5l207 433q-34 23 -80 23q-64 0 -106 -44q-13 -14 -21.5 -31t-13 -41.5t-6 -60.5t-1.5 -89zM471 356q0 39 -1 69t-3 52.5t-6 39t-10 29.5l-207 -433q34 -23 79 -23q32 0 59 12
t47 33q13 14 21.5 30.5t13 41.5t6 60.5t1.5 88.5z" />
    <glyph glyph-name="Ugrave" unicode="&#xd9;" horiz-adv-x="675" 
d="M593 240q0 -55 -19.5 -100.5t-54 -77.5t-81.5 -50t-101 -18t-101 18t-81 50t-53.5 77.5t-19.5 100.5v472h108v-467q0 -72 40 -113t107 -41t107.5 41t40.5 113v467h108v-472zM384 781h-77l-111 162h113z" />
    <glyph glyph-name="Uacute" unicode="&#xda;" horiz-adv-x="675" 
d="M593 240q0 -55 -19.5 -100.5t-54 -77.5t-81.5 -50t-101 -18t-101 18t-81 50t-53.5 77.5t-19.5 100.5v472h108v-467q0 -72 40 -113t107 -41t107.5 41t40.5 113v467h108v-472zM366 781h-77l75 162h113z" />
    <glyph glyph-name="Ucircumflex" unicode="&#xdb;" horiz-adv-x="675" 
d="M593 240q0 -55 -19.5 -100.5t-54 -77.5t-81.5 -50t-101 -18t-101 18t-81 50t-53.5 77.5t-19.5 100.5v472h108v-467q0 -72 40 -113t107 -41t107.5 41t40.5 113v467h108v-472zM510 781h-85l-87 97l-87 -97h-85l129 161h86z" />
    <glyph glyph-name="Udieresis" unicode="&#xdc;" horiz-adv-x="675" 
d="M593 240q0 -55 -19.5 -100.5t-54 -77.5t-81.5 -50t-101 -18t-101 18t-81 50t-53.5 77.5t-19.5 100.5v472h108v-467q0 -72 40 -113t107 -41t107.5 41t40.5 113v467h108v-472zM492 786h-92v108h92v-108zM276 786h-92v108h92v-108z" />
    <glyph glyph-name="Yacute" unicode="&#xdd;" horiz-adv-x="544" 
d="M326 293v-293h-108v293l-213 419h118l149 -313l149 313h118zM301 781h-77l75 162h113z" />
    <glyph glyph-name="Thorn" unicode="&#xde;" horiz-adv-x="637" 
d="M201 575h162q52 0 94 -16.5t71.5 -45t45.5 -68.5t16 -86q0 -47 -16 -86t-45.5 -68t-71.5 -45t-94 -16h-162v-144h-108v712h108v-137zM201 478v-237h155q57 0 91.5 30.5t34.5 87.5t-34.5 88t-91.5 31h-155z" />
    <glyph glyph-name="germandbls" unicode="&#xdf;" horiz-adv-x="565" 
d="M295 718q44 0 81.5 -10t65 -31t43 -53.5t15.5 -76.5t-18 -71.5t-44 -44.5q32 -16 47.5 -41.5t15.5 -73.5v-164q0 -72 -41 -113q-21 -20 -47.5 -29.5t-66.5 -9.5h-53v87h32q19 0 30 4t22 13q21 18 21 57v155q0 19 -4.5 30.5t-13.5 22.5t-22 15t-30 4h-35v81h31q32 0 53 19
t21 56q0 38 -25 60q-26 24 -81 24q-60 0 -84 -30.5t-24 -82.5v-515h-103v521q0 50 15.5 87t44 61.5t67.5 36.5t87 12z" />
    <glyph glyph-name="agrave" unicode="&#xe0;" horiz-adv-x="530" 
d="M245 513q106 0 157.5 -44t51.5 -130v-339h-100v46q-28 -28 -58 -40t-77 -12q-48 0 -80.5 11.5t-55.5 34.5q-40 42 -40 109q0 64 44 105t132 41h133v36q0 49 -25.5 72t-85.5 23q-41 0 -65 -11.5t-46 -38.5l-66 63q18 21 36.5 35t40 23t47 12.5t57.5 3.5zM235 224
q-93 0 -93 -73q0 -35 22.5 -53.5t73.5 -18.5q27 0 49.5 5t42.5 24q22 21 22 75v41h-117zM299 599h-77l-111 162h113z" />
    <glyph glyph-name="aacute" unicode="&#xe1;" horiz-adv-x="530" 
d="M245 513q106 0 157.5 -44t51.5 -130v-339h-100v46q-28 -28 -58 -40t-77 -12q-48 0 -80.5 11.5t-55.5 34.5q-40 42 -40 109q0 64 44 105t132 41h133v36q0 49 -25.5 72t-85.5 23q-41 0 -65 -11.5t-46 -38.5l-66 63q18 21 36.5 35t40 23t47 12.5t57.5 3.5zM235 224
q-93 0 -93 -73q0 -35 22.5 -53.5t73.5 -18.5q27 0 49.5 5t42.5 24q22 21 22 75v41h-117zM293 599h-77l75 162h113z" />
    <glyph glyph-name="acircumflex" unicode="&#xe2;" horiz-adv-x="530" 
d="M245 513q106 0 157.5 -44t51.5 -130v-339h-100v46q-28 -28 -58 -40t-77 -12q-48 0 -80.5 11.5t-55.5 34.5q-40 42 -40 109q0 64 44 105t132 41h133v36q0 49 -25.5 72t-85.5 23q-41 0 -65 -11.5t-46 -38.5l-66 63q18 21 36.5 35t40 23t47 12.5t57.5 3.5zM235 224
q-93 0 -93 -73q0 -35 22.5 -53.5t73.5 -18.5q27 0 49.5 5t42.5 24q22 21 22 75v41h-117zM431 599h-85l-87 97l-87 -97h-85l129 161h86z" />
    <glyph glyph-name="atilde" unicode="&#xe3;" horiz-adv-x="530" 
d="M245 513q106 0 157.5 -44t51.5 -130v-339h-100v46q-28 -28 -58 -40t-77 -12q-48 0 -80.5 11.5t-55.5 34.5q-40 42 -40 109q0 64 44 105t132 41h133v36q0 49 -25.5 72t-85.5 23q-41 0 -65 -11.5t-46 -38.5l-66 63q18 21 36.5 35t40 23t47 12.5t57.5 3.5zM235 224
q-93 0 -93 -73q0 -35 22.5 -53.5t73.5 -18.5q27 0 49.5 5t42.5 24q22 21 22 75v41h-117zM192 723q22 0 38.5 -6t36.5 -18q15 -9 27.5 -14t27.5 -5q12 0 25.5 5.5t33.5 25.5l48 -47q-34 -34 -57.5 -44.5t-46.5 -10.5q-22 0 -38.5 6t-36.5 17q-14 8 -27.5 13.5t-28.5 5.5
q-13 0 -25 -4.5t-33 -25.5l-48 47q34 34 57 44.5t47 10.5z" />
    <glyph glyph-name="adieresis" unicode="&#xe4;" horiz-adv-x="530" 
d="M245 513q106 0 157.5 -44t51.5 -130v-339h-100v46q-28 -28 -58 -40t-77 -12q-48 0 -80.5 11.5t-55.5 34.5q-40 42 -40 109q0 64 44 105t132 41h133v36q0 49 -25.5 72t-85.5 23q-41 0 -65 -11.5t-46 -38.5l-66 63q18 21 36.5 35t40 23t47 12.5t57.5 3.5zM235 224
q-93 0 -93 -73q0 -35 22.5 -53.5t73.5 -18.5q27 0 49.5 5t42.5 24q22 21 22 75v41h-117zM413 604h-92v108h92v-108zM197 604h-92v108h92v-108z" />
    <glyph glyph-name="aring" unicode="&#xe5;" horiz-adv-x="530" 
d="M245 513q106 0 157.5 -44t51.5 -130v-339h-100v46q-28 -28 -58 -40t-77 -12q-48 0 -80.5 11.5t-55.5 34.5q-40 42 -40 109q0 64 44 105t132 41h133v36q0 49 -25.5 72t-85.5 23q-41 0 -65 -11.5t-46 -38.5l-66 63q18 21 36.5 35t40 23t47 12.5t57.5 3.5zM235 224
q-93 0 -93 -73q0 -35 22.5 -53.5t73.5 -18.5q27 0 49.5 5t42.5 24q22 21 22 75v41h-117zM259 826q26 0 48.5 -10t39.5 -27t27 -39.5t10 -48.5t-10 -48.5t-27 -39.5t-39.5 -27t-48.5 -10t-48.5 10t-39.5 27t-27 39.5t-10 48.5t10 48.5t27 39.5t39.5 27t48.5 10zM259 764
q-26 0 -45 -18.5t-19 -44.5t19 -44.5t45 -18.5t45 18.5t19 44.5t-19 44.5t-45 18.5z" />
    <glyph glyph-name="ae" unicode="&#xe6;" horiz-adv-x="837" 
d="M567 513q51 0 91 -17.5t67.5 -50t42 -78t14.5 -100.5v-43h-329q0 -66 33 -104t96 -38q43 0 70 12.5t53 39.5l65 -61q-19 -20 -38.5 -34.5t-42 -24.5t-49.5 -15t-60 -5q-56 0 -102 18.5t-77 60.5q-39 -47 -81 -63t-101 -16q-48 0 -80.5 11.5t-55.5 34.5q-40 42 -40 109
q0 64 44 105t132 41h133v36q0 49 -25.5 72t-85.5 23q-41 0 -65 -11.5t-46 -38.5l-66 63q18 21 36.5 35t40 23t47 12.5t57.5 3.5q124 0 172 -67q26 34 64 50.5t86 16.5zM235 224q-93 0 -93 -73q0 -35 22.5 -53.5t73.5 -18.5q27 0 49.5 5t42.5 24q22 21 22 75v41h-117z
M568 428q-37 0 -62.5 -17.5t-38.5 -46.5q-8 -17 -10 -31.5t-3 -37.5h228q-2 23 -4 37.5t-10 31.5q-13 29 -38.5 46.5t-61.5 17.5z" />
    <glyph glyph-name="ccedilla" unicode="&#xe7;" horiz-adv-x="487" 
d="M283 513q53 0 92 -16.5t75 -54.5l-70 -68q-24 26 -45.5 37t-51.5 11q-60 0 -94 -45q-17 -21 -23.5 -49.5t-6.5 -73.5t6.5 -74t23.5 -50q34 -45 94 -45q30 0 51.5 11t45.5 37l70 -67q-36 -38 -75 -55t-92 -17q-43 0 -83.5 14t-72 45t-51 80.5t-19.5 120.5t19.5 120.5
t51 80t72 44.5t83.5 14zM233 -63h82l-51 -147h-101z" />
    <glyph glyph-name="egrave" unicode="&#xe8;" horiz-adv-x="540" 
d="M156 224q0 -66 33 -104t96 -38q43 0 69.5 12.5t53.5 39.5l65 -61q-20 -20 -39.5 -34.5t-42 -24.5t-49 -15t-59.5 -5q-48 0 -89.5 13.5t-72 44t-48.5 80.5t-18 122q0 125 58.5 192t156.5 67q51 0 91 -17.5t67.5 -50t42 -78t14.5 -100.5v-43h-329zM384 295q-2 23 -4 37.5
t-10 31.5q-13 29 -38.5 46.5t-61.5 17.5q-37 0 -62.5 -17.5t-38.5 -46.5q-8 -17 -10 -31.5t-3 -37.5h228zM309 599h-77l-111 162h113z" />
    <glyph glyph-name="eacute" unicode="&#xe9;" horiz-adv-x="540" 
d="M156 224q0 -66 33 -104t96 -38q43 0 69.5 12.5t53.5 39.5l65 -61q-20 -20 -39.5 -34.5t-42 -24.5t-49 -15t-59.5 -5q-48 0 -89.5 13.5t-72 44t-48.5 80.5t-18 122q0 125 58.5 192t156.5 67q51 0 91 -17.5t67.5 -50t42 -78t14.5 -100.5v-43h-329zM384 295q-2 23 -4 37.5
t-10 31.5q-13 29 -38.5 46.5t-61.5 17.5q-37 0 -62.5 -17.5t-38.5 -46.5q-8 -17 -10 -31.5t-3 -37.5h228zM303 599h-77l75 162h113z" />
    <glyph glyph-name="ecircumflex" unicode="&#xea;" horiz-adv-x="540" 
d="M156 224q0 -66 33 -104t96 -38q43 0 69.5 12.5t53.5 39.5l65 -61q-20 -20 -39.5 -34.5t-42 -24.5t-49 -15t-59.5 -5q-48 0 -89.5 13.5t-72 44t-48.5 80.5t-18 122q0 125 58.5 192t156.5 67q51 0 91 -17.5t67.5 -50t42 -78t14.5 -100.5v-43h-329zM384 295q-2 23 -4 37.5
t-10 31.5q-13 29 -38.5 46.5t-61.5 17.5q-37 0 -62.5 -17.5t-38.5 -46.5q-8 -17 -10 -31.5t-3 -37.5h228zM441 599h-85l-87 97l-87 -97h-85l129 161h86z" />
    <glyph glyph-name="edieresis" unicode="&#xeb;" horiz-adv-x="540" 
d="M156 224q0 -66 33 -104t96 -38q43 0 69.5 12.5t53.5 39.5l65 -61q-20 -20 -39.5 -34.5t-42 -24.5t-49 -15t-59.5 -5q-48 0 -89.5 13.5t-72 44t-48.5 80.5t-18 122q0 125 58.5 192t156.5 67q51 0 91 -17.5t67.5 -50t42 -78t14.5 -100.5v-43h-329zM384 295q-2 23 -4 37.5
t-10 31.5q-13 29 -38.5 46.5t-61.5 17.5q-37 0 -62.5 -17.5t-38.5 -46.5q-8 -17 -10 -31.5t-3 -37.5h228zM423 604h-92v108h92v-108zM207 604h-92v108h92v-108z" />
    <glyph glyph-name="igrave" unicode="&#xec;" horiz-adv-x="264" 
d="M174 599h-77l-111 162h113zM183 0h-102v507h102v-507z" />
    <glyph glyph-name="iacute" unicode="&#xed;" horiz-adv-x="264" 
d="M168 599h-77l75 162h113zM183 0h-102v507h102v-507z" />
    <glyph glyph-name="icircumflex" unicode="&#xee;" horiz-adv-x="264" 
d="M306 599h-85l-87 97l-87 -97h-85l129 161h86zM183 0h-102v507h102v-507z" />
    <glyph glyph-name="idieresis" unicode="&#xef;" horiz-adv-x="264" 
d="M288 604h-92v108h92v-108zM72 604h-92v108h92v-108zM183 0h-102v507h102v-507z" />
    <glyph glyph-name="eth" unicode="&#xf0;" horiz-adv-x="529" 
d="M321 647h87v-72h-50l51 -94q19 -35 31.5 -62.5t19.5 -53.5t9.5 -53.5t2.5 -62.5q0 -63 -11.5 -111t-47.5 -85q-24 -26 -61 -42.5t-88 -16.5t-87.5 16.5t-60.5 42.5q-36 37 -47.5 85t-11.5 111t11.5 111t47.5 85q29 30 68 42t70 12q20 0 42 -5l-45 81h-116v72h78l-39 70
h108zM264 413q-43 0 -72 -29q-23 -23 -28 -59t-5 -76t5 -76t28 -59q29 -29 72 -29q22 0 40.5 7.5t32.5 21.5q23 23 28 59t5 76t-5 76t-28 59q-14 14 -32.5 21.5t-40.5 7.5z" />
    <glyph glyph-name="ntilde" unicode="&#xf1;" horiz-adv-x="568" 
d="M316 513q39 0 70.5 -12t54.5 -34q29 -29 40 -64.5t11 -78.5v-324h-102v309q0 59 -29.5 86t-72.5 27t-74 -27.5t-31 -85.5v-309h-102v507h100v-51q26 29 61.5 43t73.5 14zM220 723q22 0 38.5 -6t36.5 -18q15 -9 27.5 -14t27.5 -5q12 0 25.5 5.5t33.5 25.5l48 -47
q-34 -34 -57.5 -44.5t-46.5 -10.5q-22 0 -38.5 6t-36.5 17q-14 8 -27.5 13.5t-28.5 5.5q-13 0 -25 -4.5t-33 -25.5l-48 47q34 34 57 44.5t47 10.5z" />
    <glyph glyph-name="ograve" unicode="&#xf2;" 
d="M268 513q52 0 89.5 -17t62.5 -43q36 -38 48 -86.5t12 -112.5q0 -65 -12 -113.5t-48 -86.5q-25 -26 -62.5 -43t-89.5 -17t-89 17t-62 43q-36 38 -48 86.5t-12 113.5q0 64 12 112.5t48 86.5q25 26 62 43t89 17zM268 422q-45 0 -74 -29q-23 -23 -29 -60t-6 -79t6 -79t29 -60
q30 -30 74 -30q45 0 75 30q23 23 29 60t6 79t-6 79t-29 60q-29 29 -75 29zM309 599h-77l-111 162h113z" />
    <glyph glyph-name="oacute" unicode="&#xf3;" 
d="M268 513q52 0 89.5 -17t62.5 -43q36 -38 48 -86.5t12 -112.5q0 -65 -12 -113.5t-48 -86.5q-25 -26 -62.5 -43t-89.5 -17t-89 17t-62 43q-36 38 -48 86.5t-12 113.5q0 64 12 112.5t48 86.5q25 26 62 43t89 17zM268 422q-45 0 -74 -29q-23 -23 -29 -60t-6 -79t6 -79t29 -60
q30 -30 74 -30q45 0 75 30q23 23 29 60t6 79t-6 79t-29 60q-29 29 -75 29zM303 599h-77l75 162h113z" />
    <glyph glyph-name="ocircumflex" unicode="&#xf4;" 
d="M268 513q52 0 89.5 -17t62.5 -43q36 -38 48 -86.5t12 -112.5q0 -65 -12 -113.5t-48 -86.5q-25 -26 -62.5 -43t-89.5 -17t-89 17t-62 43q-36 38 -48 86.5t-12 113.5q0 64 12 112.5t48 86.5q25 26 62 43t89 17zM268 422q-45 0 -74 -29q-23 -23 -29 -60t-6 -79t6 -79t29 -60
q30 -30 74 -30q45 0 75 30q23 23 29 60t6 79t-6 79t-29 60q-29 29 -75 29zM441 599h-85l-87 97l-87 -97h-85l129 161h86z" />
    <glyph glyph-name="otilde" unicode="&#xf5;" 
d="M268 513q52 0 89.5 -17t62.5 -43q36 -38 48 -86.5t12 -112.5q0 -65 -12 -113.5t-48 -86.5q-25 -26 -62.5 -43t-89.5 -17t-89 17t-62 43q-36 38 -48 86.5t-12 113.5q0 64 12 112.5t48 86.5q25 26 62 43t89 17zM268 422q-45 0 -74 -29q-23 -23 -29 -60t-6 -79t6 -79t29 -60
q30 -30 74 -30q45 0 75 30q23 23 29 60t6 79t-6 79t-29 60q-29 29 -75 29zM202 723q22 0 38.5 -6t36.5 -18q15 -9 27.5 -14t27.5 -5q12 0 25.5 5.5t33.5 25.5l48 -47q-34 -34 -57.5 -44.5t-46.5 -10.5q-22 0 -38.5 6t-36.5 17q-14 8 -27.5 13.5t-28.5 5.5q-13 0 -25 -4.5
t-33 -25.5l-48 47q34 34 57 44.5t47 10.5z" />
    <glyph glyph-name="odieresis" unicode="&#xf6;" 
d="M268 513q52 0 89.5 -17t62.5 -43q36 -38 48 -86.5t12 -112.5q0 -65 -12 -113.5t-48 -86.5q-25 -26 -62.5 -43t-89.5 -17t-89 17t-62 43q-36 38 -48 86.5t-12 113.5q0 64 12 112.5t48 86.5q25 26 62 43t89 17zM268 422q-45 0 -74 -29q-23 -23 -29 -60t-6 -79t6 -79t29 -60
q30 -30 74 -30q45 0 75 30q23 23 29 60t6 79t-6 79t-29 60q-29 29 -75 29zM423 604h-92v108h92v-108zM207 604h-92v108h92v-108z" />
    <glyph glyph-name="divide" unicode="&#xf7;" horiz-adv-x="533" 
d="M484 230h-436v95h436v-95zM321 33h-109v109h109v-109zM321 414h-109v109h109v-109z" />
    <glyph glyph-name="oslash" unicode="&#xf8;" 
d="M420 453q36 -38 48 -86.5t12 -112.5q0 -65 -12 -113.5t-48 -86.5q-25 -26 -62.5 -43t-89.5 -17q-32 0 -57.5 7t-46.5 18l-37 -63h-69l58 99q-35 38 -47 86.5t-12 112.5t12 112.5t48 86.5q25 26 62 43t89 17q32 0 58 -7t47 -18l37 63h69zM209 103q25 -18 59 -18
q45 0 75 30q23 23 29 60t6 79q0 30 -2.5 58t-12.5 51zM268 422q-45 0 -74 -29q-23 -23 -29 -60t-6 -79q0 -30 2.5 -58t12.5 -51l154 260q-26 17 -60 17z" />
    <glyph glyph-name="ugrave" unicode="&#xf9;" horiz-adv-x="568" 
d="M487 0h-100v51q-26 -29 -61.5 -43t-73.5 -14q-39 0 -70.5 12t-54.5 34q-29 29 -40 64.5t-11 78.5v324h102v-309q0 -59 29.5 -86t72.5 -27q21 0 40.5 6.5t33.5 20.5t22.5 35.5t8.5 50.5v309h102v-507zM321 599h-77l-111 162h113z" />
    <glyph glyph-name="uacute" unicode="&#xfa;" horiz-adv-x="568" 
d="M487 0h-100v51q-26 -29 -61.5 -43t-73.5 -14q-39 0 -70.5 12t-54.5 34q-29 29 -40 64.5t-11 78.5v324h102v-309q0 -59 29.5 -86t72.5 -27q21 0 40.5 6.5t33.5 20.5t22.5 35.5t8.5 50.5v309h102v-507zM315 599h-77l75 162h113z" />
    <glyph glyph-name="ucircumflex" unicode="&#xfb;" horiz-adv-x="568" 
d="M487 0h-100v51q-26 -29 -61.5 -43t-73.5 -14q-39 0 -70.5 12t-54.5 34q-29 29 -40 64.5t-11 78.5v324h102v-309q0 -59 29.5 -86t72.5 -27q21 0 40.5 6.5t33.5 20.5t22.5 35.5t8.5 50.5v309h102v-507zM453 599h-85l-87 97l-87 -97h-85l129 161h86z" />
    <glyph glyph-name="udieresis" unicode="&#xfc;" horiz-adv-x="568" 
d="M487 0h-100v51q-26 -29 -61.5 -43t-73.5 -14q-39 0 -70.5 12t-54.5 34q-29 29 -40 64.5t-11 78.5v324h102v-309q0 -59 29.5 -86t72.5 -27q21 0 40.5 6.5t33.5 20.5t22.5 35.5t8.5 50.5v309h102v-507zM435 604h-92v108h92v-108zM219 604h-92v108h92v-108z" />
    <glyph glyph-name="yacute" unicode="&#xfd;" horiz-adv-x="472" 
d="M239 -105q-14 -40 -37 -63q-21 -21 -48 -29t-56 -8h-41v92h26q32 0 47 11.5t26 42.5l29 83l-177 483h108l121 -357l118 357h109zM272 599h-77l75 162h113z" />
    <glyph glyph-name="thorn" unicode="&#xfe;" horiz-adv-x="553" 
d="M183 456q28 33 60 45t73 12q38 0 70 -12t53 -33q18 -19 29.5 -43t17.5 -51.5t8 -58t2 -61.5t-2 -61.5t-8 -58.5t-17.5 -52t-29.5 -43q-21 -21 -53 -33t-70 -12q-41 0 -73 12t-60 46v-257h-102v917h102v-256zM289 422q-35 0 -56 -13.5t-32 -36.5t-14.5 -53.5t-3.5 -64.5
t3.5 -64.5t14.5 -54t32 -37t56 -13.5q34 0 55 13.5t32 37t14.5 54t3.5 64.5t-3.5 64.5t-14.5 53.5t-32 36.5t-55 13.5z" />
    <glyph glyph-name="ydieresis" unicode="&#xff;" horiz-adv-x="472" 
d="M239 -105q-14 -40 -37 -63q-21 -21 -48 -29t-56 -8h-41v92h26q32 0 47 11.5t26 42.5l29 83l-177 483h108l121 -357l118 357h109zM392 604h-92v108h92v-108zM176 604h-92v108h92v-108z" />
    <glyph glyph-name="Amacron" unicode="&#x100;" horiz-adv-x="625" 
d="M617 0h-115l-49 143h-281l-49 -143h-115l261 712h87zM203 235h219l-110 316zM468 795h-309v73h309v-73z" />
    <glyph glyph-name="amacron" unicode="&#x101;" horiz-adv-x="530" 
d="M245 513q106 0 157.5 -44t51.5 -130v-339h-100v46q-28 -28 -58 -40t-77 -12q-48 0 -80.5 11.5t-55.5 34.5q-40 42 -40 109q0 64 44 105t132 41h133v36q0 49 -25.5 72t-85.5 23q-41 0 -65 -11.5t-46 -38.5l-66 63q18 21 36.5 35t40 23t47 12.5t57.5 3.5zM235 224
q-93 0 -93 -73q0 -35 22.5 -53.5t73.5 -18.5q27 0 49.5 5t42.5 24q22 21 22 75v41h-117zM413 618h-309v73h309v-73z" />
    <glyph glyph-name="Abreve" unicode="&#x102;" horiz-adv-x="625" 
d="M617 0h-115l-49 143h-281l-49 -143h-115l261 712h87zM203 235h219l-110 316zM478 929q-5 -75 -49 -110t-115 -35q-72 0 -116 35t-49 110h72q5 -35 30 -52.5t63 -17.5q14 0 29.5 4t28.5 12.5t22.5 21.5t11.5 32h72z" />
    <glyph glyph-name="abreve" unicode="&#x103;" horiz-adv-x="530" 
d="M245 513q106 0 157.5 -44t51.5 -130v-339h-100v46q-28 -28 -58 -40t-77 -12q-48 0 -80.5 11.5t-55.5 34.5q-40 42 -40 109q0 64 44 105t132 41h133v36q0 49 -25.5 72t-85.5 23q-41 0 -65 -11.5t-46 -38.5l-66 63q18 21 36.5 35t40 23t47 12.5t57.5 3.5zM235 224
q-93 0 -93 -73q0 -35 22.5 -53.5t73.5 -18.5q27 0 49.5 5t42.5 24q22 21 22 75v41h-117zM423 738q-5 -75 -49 -110t-115 -35q-72 0 -116 35t-49 110h72q5 -35 30 -52.5t63 -17.5q14 0 29.5 4t28.5 12.5t22.5 21.5t11.5 32h72z" />
    <glyph glyph-name="Aogonek" unicode="&#x104;" horiz-adv-x="625" 
d="M617 0h-115l-49 143h-281l-49 -143h-115l261 712h87zM203 235h219l-110 316zM531 -64h80l-51 -146h-98z" />
    <glyph glyph-name="aogonek" unicode="&#x105;" horiz-adv-x="530" 
d="M245 513q106 0 157.5 -44t51.5 -130v-339h-100v46q-28 -28 -58 -40t-77 -12q-48 0 -80.5 11.5t-55.5 34.5q-40 42 -40 109q0 64 44 105t132 41h133v36q0 49 -25.5 72t-85.5 23q-41 0 -65 -11.5t-46 -38.5l-66 63q18 21 36.5 35t40 23t47 12.5t57.5 3.5zM235 224
q-93 0 -93 -73q0 -35 22.5 -53.5t73.5 -18.5q27 0 49.5 5t42.5 24q22 21 22 75v41h-117zM374 -64h80l-51 -146h-98z" />
    <glyph glyph-name="Cacute" unicode="&#x106;" horiz-adv-x="628" 
d="M323 718q99 0 167 -56.5t87 -162.5h-110q-12 55 -48 88.5t-96 33.5q-65 0 -105 -43q-14 -14 -22 -31t-13 -41.5t-6.5 -60.5t-1.5 -89t1.5 -89t6.5 -60.5t13 -41.5t22 -31q40 -43 105 -43q60 0 96 33.5t48 88.5h110q-19 -106 -87.5 -162.5t-166.5 -56.5q-59 0 -104 18.5
t-80 53.5q-26 26 -40.5 54t-21.5 61.5t-8.5 76t-1.5 98.5t1.5 98.5t8.5 76t21.5 61.5t40.5 54q35 35 80 53.5t104 18.5zM351 781h-77l75 162h113z" />
    <glyph glyph-name="cacute" unicode="&#x107;" horiz-adv-x="487" 
d="M283 513q53 0 92 -16.5t75 -54.5l-70 -68q-24 26 -45.5 37t-51.5 11q-60 0 -94 -45q-17 -21 -23.5 -49.5t-6.5 -73.5t6.5 -74t23.5 -50q34 -45 94 -45q30 0 51.5 11t45.5 37l70 -67q-36 -38 -75 -55t-92 -17q-43 0 -83.5 14t-72 45t-51 80.5t-19.5 120.5t19.5 120.5
t51 80t72 44.5t83.5 14zM303 599h-77l75 162h113z" />
    <glyph glyph-name="Ccircumflex" unicode="&#x108;" horiz-adv-x="628" 
d="M323 718q99 0 167 -56.5t87 -162.5h-110q-12 55 -48 88.5t-96 33.5q-65 0 -105 -43q-14 -14 -22 -31t-13 -41.5t-6.5 -60.5t-1.5 -89t1.5 -89t6.5 -60.5t13 -41.5t22 -31q40 -43 105 -43q60 0 96 33.5t48 88.5h110q-19 -106 -87.5 -162.5t-166.5 -56.5q-59 0 -104 18.5
t-80 53.5q-26 26 -40.5 54t-21.5 61.5t-8.5 76t-1.5 98.5t1.5 98.5t8.5 76t21.5 61.5t40.5 54q35 35 80 53.5t104 18.5zM495 781h-85l-87 97l-87 -97h-85l129 161h86z" />
    <glyph glyph-name="ccircumflex" unicode="&#x109;" horiz-adv-x="487" 
d="M283 513q53 0 92 -16.5t75 -54.5l-70 -68q-24 26 -45.5 37t-51.5 11q-60 0 -94 -45q-17 -21 -23.5 -49.5t-6.5 -73.5t6.5 -74t23.5 -50q34 -45 94 -45q30 0 51.5 11t45.5 37l70 -67q-36 -38 -75 -55t-92 -17q-43 0 -83.5 14t-72 45t-51 80.5t-19.5 120.5t19.5 120.5
t51 80t72 44.5t83.5 14zM441 599h-85l-87 97l-87 -97h-85l129 161h86z" />
    <glyph glyph-name="Cdotaccent" unicode="&#x10a;" horiz-adv-x="628" 
d="M323 718q99 0 167 -56.5t87 -162.5h-110q-12 55 -48 88.5t-96 33.5q-65 0 -105 -43q-14 -14 -22 -31t-13 -41.5t-6.5 -60.5t-1.5 -89t1.5 -89t6.5 -60.5t13 -41.5t22 -31q40 -43 105 -43q60 0 96 33.5t48 88.5h110q-19 -106 -87.5 -162.5t-166.5 -56.5q-59 0 -104 18.5
t-80 53.5q-26 26 -40.5 54t-21.5 61.5t-8.5 76t-1.5 98.5t1.5 98.5t8.5 76t21.5 61.5t40.5 54q35 35 80 53.5t104 18.5zM277 894h92v-108h-92v108z" />
    <glyph glyph-name="cdotaccent" unicode="&#x10b;" horiz-adv-x="487" 
d="M283 513q53 0 92 -16.5t75 -54.5l-70 -68q-24 26 -45.5 37t-51.5 11q-60 0 -94 -45q-17 -21 -23.5 -49.5t-6.5 -73.5t6.5 -74t23.5 -50q34 -45 94 -45q30 0 51.5 11t45.5 37l70 -67q-36 -38 -75 -55t-92 -17q-43 0 -83.5 14t-72 45t-51 80.5t-19.5 120.5t19.5 120.5
t51 80t72 44.5t83.5 14zM314 604h-92v108h92v-108z" />
    <glyph glyph-name="Ccaron" unicode="&#x10c;" horiz-adv-x="628" 
d="M323 718q99 0 167 -56.5t87 -162.5h-110q-12 55 -48 88.5t-96 33.5q-65 0 -105 -43q-14 -14 -22 -31t-13 -41.5t-6.5 -60.5t-1.5 -89t1.5 -89t6.5 -60.5t13 -41.5t22 -31q40 -43 105 -43q60 0 96 33.5t48 88.5h110q-19 -106 -87.5 -162.5t-166.5 -56.5q-59 0 -104 18.5
t-80 53.5q-26 26 -40.5 54t-21.5 61.5t-8.5 76t-1.5 98.5t1.5 98.5t8.5 76t21.5 61.5t40.5 54q35 35 80 53.5t104 18.5zM366 781h-86l-129 161h85l87 -97l87 97h85z" />
    <glyph glyph-name="ccaron" unicode="&#x10d;" horiz-adv-x="487" 
d="M283 513q53 0 92 -16.5t75 -54.5l-70 -68q-24 26 -45.5 37t-51.5 11q-60 0 -94 -45q-17 -21 -23.5 -49.5t-6.5 -73.5t6.5 -74t23.5 -50q34 -45 94 -45q30 0 51.5 11t45.5 37l70 -67q-36 -38 -75 -55t-92 -17q-43 0 -83.5 14t-72 45t-51 80.5t-19.5 120.5t19.5 120.5
t51 80t72 44.5t83.5 14zM312 599h-86l-129 161h85l87 -97l87 97h85z" />
    <glyph glyph-name="Dcaron" unicode="&#x10e;" horiz-adv-x="666" 
d="M343 712q67 0 115.5 -21.5t86.5 -68.5q19 -24 30 -52.5t16.5 -61.5t6.5 -71t1 -81t-1 -81t-6.5 -71t-16.5 -61.5t-30 -52.5q-38 -47 -86.5 -68.5t-115.5 -21.5h-250v712h250zM201 615v-518h130q38 0 68.5 11t53.5 37q26 29 32 80t6 131t-6 131t-32 80q-23 26 -53.5 37
t-68.5 11h-130zM375 781h-86l-129 161h85l87 -97l87 97h85z" />
    <glyph glyph-name="dcaron" unicode="&#x10f;" horiz-adv-x="553" 
d="M472 0h-100v54q-29 -35 -61 -47.5t-73 -12.5q-39 0 -71 12t-53 33q-18 19 -29.5 43t-17.5 51.5t-8 58t-2 61.5t2 61.5t8 58.5t17.5 52t29.5 43q21 21 52.5 33t70.5 12q41 0 73 -12t60 -46v257h102v-712zM264 422q-35 0 -55.5 -14t-31.5 -37t-14.5 -53.5t-3.5 -64.5
t3.5 -64.5t14.5 -53.5t31.5 -36.5t55.5 -13.5t56 13.5t32 36.5t14.5 53.5t3.5 64.5t-3.5 64.5t-14.5 53.5t-32 37t-56 14zM607 571h-75l37 159h94z" />
    <glyph glyph-name="Dcroat" unicode="&#x110;" horiz-adv-x="685" 
d="M362 712q67 0 115.5 -21.5t86.5 -68.5q19 -24 30 -52.5t16.5 -61.5t6.5 -71t1 -81t-1 -81t-6.5 -71t-16.5 -61.5t-30 -52.5q-38 -47 -86.5 -68.5t-115.5 -21.5h-250v318h-74v83h74v311h250zM220 615v-214h138v-83h-138v-221h130q38 0 68.5 11t53.5 37q26 29 32 80t6 131
t-6 131t-32 80q-23 26 -53.5 37t-68.5 11h-130z" />
    <glyph glyph-name="dcroat" unicode="&#x111;" horiz-adv-x="553" 
d="M472 635h56v-66h-56v-569h-100v54q-29 -35 -60.5 -47.5t-73.5 -12.5q-38 0 -70.5 12t-53.5 33q-37 38 -47 95t-10 120q0 31 2 61.5t8 58t17.5 51.5t29.5 43q21 21 53 33t70 12q41 0 73 -12t60 -45v113h-106v66h106v77h102v-77zM265 422q-35 0 -56 -13.5t-32 -36.5
t-14.5 -53.5t-3.5 -64.5t3.5 -64.5t14.5 -54t32 -37t56 -13.5q34 0 55 13.5t32 37t14.5 54t3.5 64.5t-3.5 64.5t-14.5 53.5t-32 36.5t-55 13.5z" />
    <glyph glyph-name="Emacron" unicode="&#x112;" horiz-adv-x="603" 
d="M548 615h-347v-208h296v-97h-296v-213h347v-97h-455v712h455v-97zM464 795h-309v73h309v-73z" />
    <glyph glyph-name="emacron" unicode="&#x113;" horiz-adv-x="540" 
d="M156 224q0 -66 33 -104t96 -38q43 0 69.5 12.5t53.5 39.5l65 -61q-20 -20 -39.5 -34.5t-42 -24.5t-49 -15t-59.5 -5q-48 0 -89.5 13.5t-72 44t-48.5 80.5t-18 122q0 125 58.5 192t156.5 67q51 0 91 -17.5t67.5 -50t42 -78t14.5 -100.5v-43h-329zM384 295q-2 23 -4 37.5
t-10 31.5q-13 29 -38.5 46.5t-61.5 17.5q-37 0 -62.5 -17.5t-38.5 -46.5q-8 -17 -10 -31.5t-3 -37.5h228zM423 618h-309v73h309v-73z" />
    <glyph glyph-name="Ebreve" unicode="&#x114;" horiz-adv-x="603" 
d="M548 615h-347v-208h296v-97h-296v-213h347v-97h-455v712h455v-97zM474 929q-5 -75 -49 -110t-115 -35q-72 0 -116 35t-49 110h72q5 -35 30 -52.5t63 -17.5q14 0 29.5 4t28.5 12.5t22.5 21.5t11.5 32h72z" />
    <glyph glyph-name="ebreve" unicode="&#x115;" horiz-adv-x="540" 
d="M156 224q0 -66 33 -104t96 -38q43 0 69.5 12.5t53.5 39.5l65 -61q-20 -20 -39.5 -34.5t-42 -24.5t-49 -15t-59.5 -5q-48 0 -89.5 13.5t-72 44t-48.5 80.5t-18 122q0 125 58.5 192t156.5 67q51 0 91 -17.5t67.5 -50t42 -78t14.5 -100.5v-43h-329zM384 295q-2 23 -4 37.5
t-10 31.5q-13 29 -38.5 46.5t-61.5 17.5q-37 0 -62.5 -17.5t-38.5 -46.5q-8 -17 -10 -31.5t-3 -37.5h228zM433 738q-5 -75 -49 -110t-115 -35q-72 0 -116 35t-49 110h72q5 -35 30 -52.5t63 -17.5q14 0 29.5 4t28.5 12.5t22.5 21.5t11.5 32h72z" />
    <glyph glyph-name="Edotaccent" unicode="&#x116;" horiz-adv-x="603" 
d="M548 615h-347v-208h296v-97h-296v-213h347v-97h-455v712h455v-97zM263 894h92v-108h-92v108z" />
    <glyph glyph-name="edotaccent" unicode="&#x117;" horiz-adv-x="540" 
d="M156 224q0 -66 33 -104t96 -38q43 0 69.5 12.5t53.5 39.5l65 -61q-20 -20 -39.5 -34.5t-42 -24.5t-49 -15t-59.5 -5q-48 0 -89.5 13.5t-72 44t-48.5 80.5t-18 122q0 125 58.5 192t156.5 67q51 0 91 -17.5t67.5 -50t42 -78t14.5 -100.5v-43h-329zM384 295q-2 23 -4 37.5
t-10 31.5q-13 29 -38.5 46.5t-61.5 17.5q-37 0 -62.5 -17.5t-38.5 -46.5q-8 -17 -10 -31.5t-3 -37.5h228zM314 604h-92v108h92v-108z" />
    <glyph glyph-name="Eogonek" unicode="&#x118;" horiz-adv-x="603" 
d="M548 615h-347v-208h296v-97h-296v-213h347v-97h-455v712h455v-97zM444 -64h80l-51 -146h-98z" />
    <glyph glyph-name="eogonek" unicode="&#x119;" horiz-adv-x="540" 
d="M156 224q0 -66 33 -104t96 -38q43 0 69.5 12.5t53.5 39.5l65 -61q-20 -20 -39.5 -34.5t-42 -24.5t-49 -15t-59.5 -5q-48 0 -89.5 13.5t-72 44t-48.5 80.5t-18 122q0 125 58.5 192t156.5 67q51 0 91 -17.5t67.5 -50t42 -78t14.5 -100.5v-43h-329zM384 295q-2 23 -4 37.5
t-10 31.5q-13 29 -38.5 46.5t-61.5 17.5q-37 0 -62.5 -17.5t-38.5 -46.5q-8 -17 -10 -31.5t-3 -37.5h228zM337 -64h80l-51 -146h-98z" />
    <glyph glyph-name="Ecaron" unicode="&#x11a;" horiz-adv-x="603" 
d="M548 615h-347v-208h296v-97h-296v-213h347v-97h-455v712h455v-97zM352 781h-86l-129 161h85l87 -97l87 97h85z" />
    <glyph glyph-name="ecaron" unicode="&#x11b;" horiz-adv-x="540" 
d="M156 224q0 -66 33 -104t96 -38q43 0 69.5 12.5t53.5 39.5l65 -61q-20 -20 -39.5 -34.5t-42 -24.5t-49 -15t-59.5 -5q-48 0 -89.5 13.5t-72 44t-48.5 80.5t-18 122q0 125 58.5 192t156.5 67q51 0 91 -17.5t67.5 -50t42 -78t14.5 -100.5v-43h-329zM384 295q-2 23 -4 37.5
t-10 31.5q-13 29 -38.5 46.5t-61.5 17.5q-37 0 -62.5 -17.5t-38.5 -46.5q-8 -17 -10 -31.5t-3 -37.5h228zM312 599h-86l-129 161h85l87 -97l87 97h85z" />
    <glyph glyph-name="Gcircumflex" unicode="&#x11c;" horiz-adv-x="649" 
d="M323 718q56 0 101 -17.5t77.5 -47.5t52.5 -70t27 -85h-108q-14 59 -52 91t-98 32q-65 0 -106 -43q-13 -14 -21.5 -31t-13 -41.5t-6 -60.5t-1.5 -89t1.5 -89t6 -60.5t13 -41.5t21.5 -31q41 -43 106 -43q35 0 65.5 12.5t51.5 37.5q20 23 27.5 50t7.5 62v40h-152v92h260
v-109q0 -70 -14.5 -116.5t-49.5 -84.5q-40 -42 -89.5 -61.5t-106.5 -19.5q-59 0 -104 18.5t-80 53.5q-26 26 -40.5 54t-21.5 61.5t-8.5 76t-1.5 98.5t1.5 98.5t8.5 76t21.5 61.5t40.5 54q35 35 80 53.5t104 18.5zM495 781h-85l-87 97l-87 -97h-85l129 161h86z" />
    <glyph glyph-name="gcircumflex" unicode="&#x11d;" horiz-adv-x="549" 
d="M236 513q41 0 72.5 -12.5t60.5 -47.5v54h99v-504q0 -47 -15 -86t-43 -67.5t-68 -44.5t-91 -16q-58 0 -98.5 15t-80.5 52l65 65q24 -23 48 -34t62 -11q32 0 54.5 10.5t37 28.5t21 41t6.5 49v65q-28 -33 -60 -45.5t-71 -12.5q-38 0 -69 12t-52 33q-37 37 -47 89t-10 117
t10 117t47 89q44 44 122 44zM263 422q-35 0 -55.5 -13.5t-31 -36t-14 -51t-3.5 -58.5t3.5 -58.5t14 -51t31 -36t55.5 -13.5q34 0 54.5 13.5t31.5 36t14 51t3 58.5t-3 58.5t-14 51t-31.5 36t-54.5 13.5zM441 599h-85l-87 97l-87 -97h-85l129 161h86z" />
    <glyph glyph-name="Gbreve" unicode="&#x11e;" horiz-adv-x="649" 
d="M323 718q56 0 101 -17.5t77.5 -47.5t52.5 -70t27 -85h-108q-14 59 -52 91t-98 32q-65 0 -106 -43q-13 -14 -21.5 -31t-13 -41.5t-6 -60.5t-1.5 -89t1.5 -89t6 -60.5t13 -41.5t21.5 -31q41 -43 106 -43q35 0 65.5 12.5t51.5 37.5q20 23 27.5 50t7.5 62v40h-152v92h260
v-109q0 -70 -14.5 -116.5t-49.5 -84.5q-40 -42 -89.5 -61.5t-106.5 -19.5q-59 0 -104 18.5t-80 53.5q-26 26 -40.5 54t-21.5 61.5t-8.5 76t-1.5 98.5t1.5 98.5t8.5 76t21.5 61.5t40.5 54q35 35 80 53.5t104 18.5zM488 929q-5 -75 -49 -110t-115 -35q-72 0 -116 35t-49 110
h72q5 -35 30 -52.5t63 -17.5q14 0 29.5 4t28.5 12.5t22.5 21.5t11.5 32h72z" />
    <glyph glyph-name="gbreve" unicode="&#x11f;" horiz-adv-x="549" 
d="M236 513q41 0 72.5 -12.5t60.5 -47.5v54h99v-504q0 -47 -15 -86t-43 -67.5t-68 -44.5t-91 -16q-58 0 -98.5 15t-80.5 52l65 65q24 -23 48 -34t62 -11q32 0 54.5 10.5t37 28.5t21 41t6.5 49v65q-28 -33 -60 -45.5t-71 -12.5q-38 0 -69 12t-52 33q-37 37 -47 89t-10 117
t10 117t47 89q44 44 122 44zM263 422q-35 0 -55.5 -13.5t-31 -36t-14 -51t-3.5 -58.5t3.5 -58.5t14 -51t31 -36t55.5 -13.5q34 0 54.5 13.5t31.5 36t14 51t3 58.5t-3 58.5t-14 51t-31.5 36t-54.5 13.5zM433 738q-5 -75 -49 -110t-115 -35q-72 0 -116 35t-49 110h72
q5 -35 30 -52.5t63 -17.5q14 0 29.5 4t28.5 12.5t22.5 21.5t11.5 32h72z" />
    <glyph glyph-name="Gdotaccent" unicode="&#x120;" horiz-adv-x="649" 
d="M323 718q56 0 101 -17.5t77.5 -47.5t52.5 -70t27 -85h-108q-14 59 -52 91t-98 32q-65 0 -106 -43q-13 -14 -21.5 -31t-13 -41.5t-6 -60.5t-1.5 -89t1.5 -89t6 -60.5t13 -41.5t21.5 -31q41 -43 106 -43q35 0 65.5 12.5t51.5 37.5q20 23 27.5 50t7.5 62v40h-152v92h260
v-109q0 -70 -14.5 -116.5t-49.5 -84.5q-40 -42 -89.5 -61.5t-106.5 -19.5q-59 0 -104 18.5t-80 53.5q-26 26 -40.5 54t-21.5 61.5t-8.5 76t-1.5 98.5t1.5 98.5t8.5 76t21.5 61.5t40.5 54q35 35 80 53.5t104 18.5zM277 894h92v-108h-92v108z" />
    <glyph glyph-name="gdotaccent" unicode="&#x121;" horiz-adv-x="549" 
d="M236 513q41 0 72.5 -12.5t60.5 -47.5v54h99v-504q0 -47 -15 -86t-43 -67.5t-68 -44.5t-91 -16q-58 0 -98.5 15t-80.5 52l65 65q24 -23 48 -34t62 -11q32 0 54.5 10.5t37 28.5t21 41t6.5 49v65q-28 -33 -60 -45.5t-71 -12.5q-38 0 -69 12t-52 33q-37 37 -47 89t-10 117
t10 117t47 89q44 44 122 44zM263 422q-35 0 -55.5 -13.5t-31 -36t-14 -51t-3.5 -58.5t3.5 -58.5t14 -51t31 -36t55.5 -13.5q34 0 54.5 13.5t31.5 36t14 51t3 58.5t-3 58.5t-14 51t-31.5 36t-54.5 13.5zM314 604h-92v108h92v-108z" />
    <glyph glyph-name="uni0122" unicode="&#x122;" horiz-adv-x="649" 
d="M323 718q56 0 101 -17.5t77.5 -47.5t52.5 -70t27 -85h-108q-14 59 -52 91t-98 32q-65 0 -106 -43q-13 -14 -21.5 -31t-13 -41.5t-6 -60.5t-1.5 -89t1.5 -89t6 -60.5t13 -41.5t21.5 -31q41 -43 106 -43q35 0 65.5 12.5t51.5 37.5q20 23 27.5 50t7.5 62v40h-152v92h260
v-109q0 -70 -14.5 -116.5t-49.5 -84.5q-40 -42 -89.5 -61.5t-106.5 -19.5q-59 0 -104 18.5t-80 53.5q-26 26 -40.5 54t-21.5 61.5t-8.5 76t-1.5 98.5t1.5 98.5t8.5 76t21.5 61.5t40.5 54q35 35 80 53.5t104 18.5zM292 -64h80l-51 -146h-98z" />
    <glyph glyph-name="uni0123" unicode="&#x123;" horiz-adv-x="549" 
d="M236 513q41 0 72.5 -12.5t60.5 -47.5v54h99v-504q0 -47 -15 -86t-43 -67.5t-68 -44.5t-91 -16q-58 0 -98.5 15t-80.5 52l65 65q24 -23 48 -34t62 -11q32 0 54.5 10.5t37 28.5t21 41t6.5 49v65q-28 -33 -60 -45.5t-71 -12.5q-38 0 -69 12t-52 33q-37 37 -47 89t-10 117
t10 117t47 89q44 44 122 44zM263 422q-35 0 -55.5 -13.5t-31 -36t-14 -51t-3.5 -58.5t3.5 -58.5t14 -51t31 -36t55.5 -13.5q34 0 54.5 13.5t31.5 36t14 51t3 58.5t-3 58.5t-14 51t-31.5 36t-54.5 13.5zM307 599h-82l51 147h101z" />
    <glyph glyph-name="Hcircumflex" unicode="&#x124;" horiz-adv-x="691" 
d="M598 0h-108v311h-289v-311h-108v712h108v-304h289v304h108v-712zM518 781h-85l-87 97l-87 -97h-85l129 161h86z" />
    <glyph glyph-name="hcircumflex" unicode="&#x125;" horiz-adv-x="568" 
d="M183 456q26 29 60 43t73 14t70.5 -12t54.5 -34q29 -29 40 -64.5t11 -78.5v-324h-102v309q0 59 -29.5 86t-72.5 27t-74 -27.5t-31 -85.5v-309h-102v712h102v-256zM306 781h-85l-87 97l-87 -97h-85l129 161h86z" />
    <glyph glyph-name="Hbar" unicode="&#x126;" horiz-adv-x="724" 
d="M615 595h71v-84h-71v-511h-108v311h-290v-311h-108v511h-71v84h71v117h108v-117h290v117h108v-117zM217 511v-103h290v103h-290z" />
    <glyph glyph-name="hbar" unicode="&#x127;" horiz-adv-x="567" 
d="M80 569h-55v66h55v77h102v-77h106v-66h-106v-113q26 29 60 43t73 14t70.5 -12t54.5 -34q29 -29 40 -64.5t11 -78.5v-324h-102v309q0 59 -29.5 86t-72.5 27t-74 -27.5t-31 -85.5v-309h-102v569z" />
    <glyph glyph-name="Itilde" unicode="&#x128;" horiz-adv-x="294" 
d="M201 0h-108v712h108v-712zM83 905q22 0 38.5 -6t36.5 -18q15 -9 27.5 -14t27.5 -5q12 0 25.5 5.5t33.5 25.5l48 -47q-34 -34 -57.5 -44.5t-46.5 -10.5q-22 0 -38.5 6t-36.5 17q-14 8 -27.5 13.5t-28.5 5.5q-13 0 -25 -4.5t-33 -25.5l-48 47q34 34 57 44.5t47 10.5z" />
    <glyph glyph-name="itilde" unicode="&#x129;" horiz-adv-x="264" 
d="M67 723q22 0 38.5 -6t36.5 -18q15 -9 27.5 -14t27.5 -5q12 0 25.5 5.5t33.5 25.5l48 -47q-34 -34 -57.5 -44.5t-46.5 -10.5q-22 0 -38.5 6t-36.5 17q-14 8 -27.5 13.5t-28.5 5.5q-13 0 -25 -4.5t-33 -25.5l-48 47q34 34 57 44.5t47 10.5zM183 0h-102v507h102v-507z" />
    <glyph glyph-name="Imacron" unicode="&#x12a;" horiz-adv-x="294" 
d="M201 0h-108v712h108v-712zM304 795h-309v73h309v-73z" />
    <glyph glyph-name="imacron" unicode="&#x12b;" horiz-adv-x="264" 
d="M288 618h-309v73h309v-73zM183 0h-102v507h102v-507z" />
    <glyph glyph-name="Ibreve" unicode="&#x12c;" horiz-adv-x="294" 
d="M201 0h-108v712h108v-712zM314 929q-5 -75 -49 -110t-115 -35q-72 0 -116 35t-49 110h72q5 -35 30 -52.5t63 -17.5q14 0 29.5 4t28.5 12.5t22.5 21.5t11.5 32h72z" />
    <glyph glyph-name="ibreve" unicode="&#x12d;" horiz-adv-x="264" 
d="M298 738q-5 -75 -49 -110t-115 -35q-72 0 -116 35t-49 110h72q5 -35 30 -52.5t63 -17.5q14 0 29.5 4t28.5 12.5t22.5 21.5t11.5 32h72zM183 0h-102v507h102v-507z" />
    <glyph glyph-name="Iogonek" unicode="&#x12e;" horiz-adv-x="294" 
d="M201 0h-108v712h108v-712zM118 -64h80l-51 -146h-98z" />
    <glyph glyph-name="iogonek" unicode="&#x12f;" horiz-adv-x="264" 
d="M183 0h-102v507h102v-507zM186 607h-108v108h108v-108zM98 -64h80l-51 -146h-98z" />
    <glyph glyph-name="Idotaccent" unicode="&#x130;" horiz-adv-x="294" 
d="M201 0h-108v712h108v-712zM103 894h92v-108h-92v108z" />
    <glyph glyph-name="dotlessi" unicode="&#x131;" horiz-adv-x="264" 
d="M183 0h-102v507h102v-507z" />
    <glyph glyph-name="IJ" unicode="&#x132;" horiz-adv-x="799" 
d="M201 0h-108v712h108v-712zM717 225q0 -56 -18.5 -99t-51 -72t-75.5 -44.5t-92 -15.5q-55 0 -95.5 16t-77.5 53l72 71q19 -19 40.5 -31t60.5 -12q60 0 94.5 36t34.5 106v479h108v-487z" />
    <glyph glyph-name="ij" unicode="&#x133;" horiz-adv-x="528" 
d="M183 0h-102v507h102v-507zM186 607h-108v108h108v-108zM447 -65q0 -28 -8 -53.5t-25 -44.5t-43.5 -30.5t-62.5 -11.5h-63v87h45q31 0 43 15t12 44v566h102v-572zM450 607h-108v108h108v-108z" />
    <glyph glyph-name="Jcircumflex" unicode="&#x134;" horiz-adv-x="505" 
d="M423 225q0 -56 -18.5 -99t-51 -72t-75.5 -44.5t-92 -15.5q-55 0 -95.5 16t-77.5 53l72 71q19 -19 40.5 -31t60.5 -12q60 0 94.5 36t34.5 106v479h108v-487zM541 781h-85l-87 97l-87 -97h-85l129 161h86z" />
    <glyph glyph-name="jcircumflex" unicode="&#x135;" horiz-adv-x="264" 
d="M183 -65q0 -28 -8 -53.5t-25 -44.5t-43.5 -30.5t-62.5 -11.5h-63v87h45q31 0 43 15t12 44v566h102v-572zM306 599h-85l-87 97l-87 -97h-85l129 161h86z" />
    <glyph glyph-name="uni0136" unicode="&#x136;" horiz-adv-x="658" 
d="M393 433l255 -433h-127l-200 351l-120 -144v-207h-108v712h108v-358l291 358h132zM316 -64h80l-51 -146h-98z" />
    <glyph glyph-name="uni0137" unicode="&#x137;" horiz-adv-x="548" 
d="M183 273l197 234h124l-176 -199l198 -308h-126l-142 234l-75 -85v-149h-102v712h102v-439zM284 -210h-101l70 147h82z" />
    <glyph glyph-name="kgreenlandic" unicode="&#x138;" horiz-adv-x="548" 
d="M328 308l198 -308h-126l-142 234l-75 -85v-149h-102v507h102v-234l197 234h124z" />
    <glyph glyph-name="Lacute" unicode="&#x139;" horiz-adv-x="574" 
d="M201 97h343v-97h-451v712h108v-615zM177 781h-77l75 162h113z" />
    <glyph glyph-name="lacute" unicode="&#x13a;" horiz-adv-x="311" 
d="M180 163q0 -41 12 -56.5t43 -15.5h45v-91h-56q-146 0 -146 157v555h102v-549zM163 781h-77l75 162h113z" />
    <glyph glyph-name="uni013B" unicode="&#x13b;" horiz-adv-x="574" 
d="M201 97h343v-97h-451v712h108v-615zM292 -64h80l-51 -146h-98z" />
    <glyph glyph-name="uni013C" unicode="&#x13c;" horiz-adv-x="311" 
d="M180 163q0 -41 12 -56.5t43 -15.5h45v-91h-56q-146 0 -146 157v555h102v-549zM165 -210h-101l70 147h82z" />
    <glyph glyph-name="Lcaron" unicode="&#x13d;" horiz-adv-x="574" 
d="M201 97h343v-97h-451v712h108v-615zM382 554h-75l37 159h94z" />
    <glyph glyph-name="lcaron" unicode="&#x13e;" horiz-adv-x="311" 
d="M180 163q0 -41 12 -56.5t43 -15.5h45v-91h-56q-146 0 -146 157v555h102v-549zM315 571h-75l37 159h94z" />
    <glyph glyph-name="Ldot" unicode="&#x13f;" horiz-adv-x="574" 
d="M201 97h343v-97h-451v712h108v-615zM385 413h92v-108h-92v108z" />
    <glyph glyph-name="ldot" unicode="&#x140;" horiz-adv-x="340" 
d="M180 163q0 -41 12 -56.5t43 -15.5h45v-91h-56q-146 0 -146 157v555h102v-549zM349 224h-92v108h92v-108z" />
    <glyph glyph-name="Lslash" unicode="&#x141;" horiz-adv-x="587" 
d="M215 426l141 89v-91l-141 -89v-238h342v-97h-450v266l-69 -44v93l69 43v354h108v-286z" />
    <glyph glyph-name="lslash" unicode="&#x142;" horiz-adv-x="325" 
d="M194 470l70 43v-86l-70 -43v-221q0 -41 12 -56.5t43 -15.5h45v-91h-56q-146 0 -146 157v164l-59 -36v87l59 36v304h102v-242z" />
    <glyph glyph-name="Nacute" unicode="&#x143;" horiz-adv-x="722" 
d="M629 0h-99l-329 501v-501h-108v712h99l329 -501v501h108v-712zM389 781h-77l75 162h113z" />
    <glyph glyph-name="nacute" unicode="&#x144;" horiz-adv-x="568" 
d="M316 513q39 0 70.5 -12t54.5 -34q29 -29 40 -64.5t11 -78.5v-324h-102v309q0 59 -29.5 86t-72.5 27t-74 -27.5t-31 -85.5v-309h-102v507h100v-51q26 29 61.5 43t73.5 14zM321 599h-77l75 162h113z" />
    <glyph glyph-name="uni0145" unicode="&#x145;" horiz-adv-x="722" 
d="M629 0h-99l-329 501v-501h-108v712h99l329 -501v501h108v-712zM330 -64h80l-51 -146h-98z" />
    <glyph glyph-name="uni0146" unicode="&#x146;" horiz-adv-x="568" 
d="M316 513q39 0 70.5 -12t54.5 -34q29 -29 40 -64.5t11 -78.5v-324h-102v309q0 59 -29.5 86t-72.5 27t-74 -27.5t-31 -85.5v-309h-102v507h100v-51q26 29 61.5 43t73.5 14zM282 -210h-101l70 147h82z" />
    <glyph glyph-name="Ncaron" unicode="&#x147;" horiz-adv-x="722" 
d="M629 0h-99l-329 501v-501h-108v712h99l329 -501v501h108v-712zM404 781h-86l-129 161h85l87 -97l87 97h85z" />
    <glyph glyph-name="ncaron" unicode="&#x148;" horiz-adv-x="568" 
d="M316 513q39 0 70.5 -12t54.5 -34q29 -29 40 -64.5t11 -78.5v-324h-102v309q0 59 -29.5 86t-72.5 27t-74 -27.5t-31 -85.5v-309h-102v507h100v-51q26 29 61.5 43t73.5 14zM330 599h-86l-129 161h85l87 -97l87 97h85z" />
    <glyph glyph-name="napostrophe" unicode="&#x149;" horiz-adv-x="836" 
d="M190 600l-112 -92v204h112v-112zM584 513q39 0 70.5 -12t54.5 -34q29 -29 40 -64.5t11 -78.5v-324h-102v309q0 59 -29.5 86t-72.5 27t-74 -27.5t-31 -85.5v-309h-102v507h100v-51q26 29 61.5 43t73.5 14z" />
    <glyph glyph-name="Eng" unicode="&#x14a;" horiz-adv-x="722" 
d="M629 -71q0 -28 -8 -53.5t-25 -44.5t-43.5 -30.5t-62.5 -11.5h-63v86h38q31 0 43.5 15t12.5 45v80l-320 488v-503h-108v712h98l330 -501v501h108v-783z" />
    <glyph glyph-name="eng" unicode="&#x14b;" horiz-adv-x="568" 
d="M316 513q39 0 70.5 -12t54.5 -34q29 -29 40 -64.5t11 -78.5v-395q0 -28 -8 -53.5t-25 -44.5t-43.5 -30.5t-62.5 -11.5h-63v87h45q31 0 43 15t12 44v374q0 59 -29.5 86t-72.5 27t-74 -27.5t-31 -85.5v-309h-102v507h100v-51q26 29 61.5 43t73.5 14z" />
    <glyph glyph-name="Omacron" unicode="&#x14c;" horiz-adv-x="646" 
d="M323 718q59 0 104 -18.5t80 -53.5q26 -26 40.5 -54t21.5 -61.5t8.5 -76t1.5 -98.5t-1.5 -98.5t-8.5 -76t-21.5 -61.5t-40.5 -54q-35 -35 -80 -53.5t-104 -18.5t-104 18.5t-80 53.5q-26 26 -40.5 54t-21.5 61.5t-8.5 76t-1.5 98.5t1.5 98.5t8.5 76t21.5 61.5t40.5 54
q35 35 80 53.5t104 18.5zM323 621q-65 0 -106 -43q-13 -14 -21.5 -31t-13 -41.5t-6 -60.5t-1.5 -89t1.5 -88.5t6 -60.5t13 -41.5t21.5 -30.5q42 -44 106 -44t106 44q13 14 21.5 30.5t13 41t6 60.5t1.5 89t-1.5 89t-6 61t-13 41.5t-21.5 30.5q-41 43 -106 43zM478 795h-309
v73h309v-73z" />
    <glyph glyph-name="omacron" unicode="&#x14d;" 
d="M268 513q52 0 89.5 -17t62.5 -43q36 -38 48 -86.5t12 -112.5q0 -65 -12 -113.5t-48 -86.5q-25 -26 -62.5 -43t-89.5 -17t-89 17t-62 43q-36 38 -48 86.5t-12 113.5q0 64 12 112.5t48 86.5q25 26 62 43t89 17zM268 422q-45 0 -74 -29q-23 -23 -29 -60t-6 -79t6 -79t29 -60
q30 -30 74 -30q45 0 75 30q23 23 29 60t6 79t-6 79t-29 60q-29 29 -75 29zM423 618h-309v73h309v-73z" />
    <glyph glyph-name="Obreve" unicode="&#x14e;" horiz-adv-x="646" 
d="M323 718q59 0 104 -18.5t80 -53.5q26 -26 40.5 -54t21.5 -61.5t8.5 -76t1.5 -98.5t-1.5 -98.5t-8.5 -76t-21.5 -61.5t-40.5 -54q-35 -35 -80 -53.5t-104 -18.5t-104 18.5t-80 53.5q-26 26 -40.5 54t-21.5 61.5t-8.5 76t-1.5 98.5t1.5 98.5t8.5 76t21.5 61.5t40.5 54
q35 35 80 53.5t104 18.5zM323 621q-65 0 -106 -43q-13 -14 -21.5 -31t-13 -41.5t-6 -60.5t-1.5 -89t1.5 -88.5t6 -60.5t13 -41.5t21.5 -30.5q42 -44 106 -44t106 44q13 14 21.5 30.5t13 41t6 60.5t1.5 89t-1.5 89t-6 61t-13 41.5t-21.5 30.5q-41 43 -106 43zM488 929
q-5 -75 -49 -110t-115 -35q-72 0 -116 35t-49 110h72q5 -35 30 -52.5t63 -17.5q14 0 29.5 4t28.5 12.5t22.5 21.5t11.5 32h72z" />
    <glyph glyph-name="obreve" unicode="&#x14f;" 
d="M268 513q52 0 89.5 -17t62.5 -43q36 -38 48 -86.5t12 -112.5q0 -65 -12 -113.5t-48 -86.5q-25 -26 -62.5 -43t-89.5 -17t-89 17t-62 43q-36 38 -48 86.5t-12 113.5q0 64 12 112.5t48 86.5q25 26 62 43t89 17zM268 422q-45 0 -74 -29q-23 -23 -29 -60t-6 -79t6 -79t29 -60
q30 -30 74 -30q45 0 75 30q23 23 29 60t6 79t-6 79t-29 60q-29 29 -75 29zM433 738q-5 -75 -49 -110t-115 -35q-72 0 -116 35t-49 110h72q5 -35 30 -52.5t63 -17.5q14 0 29.5 4t28.5 12.5t22.5 21.5t11.5 32h72z" />
    <glyph glyph-name="Ohungarumlaut" unicode="&#x150;" horiz-adv-x="646" 
d="M323 718q59 0 104 -18.5t80 -53.5q26 -26 40.5 -54t21.5 -61.5t8.5 -76t1.5 -98.5t-1.5 -98.5t-8.5 -76t-21.5 -61.5t-40.5 -54q-35 -35 -80 -53.5t-104 -18.5t-104 18.5t-80 53.5q-26 26 -40.5 54t-21.5 61.5t-8.5 76t-1.5 98.5t1.5 98.5t8.5 76t21.5 61.5t40.5 54
q35 35 80 53.5t104 18.5zM323 621q-65 0 -106 -43q-13 -14 -21.5 -31t-13 -41.5t-6 -60.5t-1.5 -89t1.5 -88.5t6 -60.5t13 -41.5t21.5 -30.5q42 -44 106 -44t106 44q13 14 21.5 30.5t13 41t6 60.5t1.5 89t-1.5 89t-6 61t-13 41.5t-21.5 30.5q-41 43 -106 43zM447 943h105
l-104 -162h-84zM250 943h106l-104 -162h-84z" />
    <glyph glyph-name="ohungarumlaut" unicode="&#x151;" 
d="M268 513q52 0 89.5 -17t62.5 -43q36 -38 48 -86.5t12 -112.5q0 -65 -12 -113.5t-48 -86.5q-25 -26 -62.5 -43t-89.5 -17t-89 17t-62 43q-36 38 -48 86.5t-12 113.5q0 64 12 112.5t48 86.5q25 26 62 43t89 17zM268 422q-45 0 -74 -29q-23 -23 -29 -60t-6 -79t6 -79t29 -60
q30 -30 74 -30q45 0 75 30q23 23 29 60t6 79t-6 79t-29 60q-29 29 -75 29zM396 761h106l-105 -162h-84zM199 761h106l-104 -162h-84z" />
    <glyph glyph-name="OE" unicode="&#x152;" horiz-adv-x="981" 
d="M321 718q42 0 81 -15t69 -50v59h455v-97h-347v-208h296v-97h-296v-213h347v-97h-455v59q-29 -34 -69.5 -49.5t-81.5 -15.5q-59 0 -103 18.5t-79 53.5q-26 25 -40 53.5t-21 63t-8.5 77t-1.5 96.5t1.5 96.5t8.5 77t21 62.5t40 54q35 35 79.5 53.5t103.5 18.5zM323 622
q-65 0 -106 -44q-13 -14 -21.5 -31t-13 -41.5t-6 -60.5t-1.5 -89t1.5 -88.5t6 -60.5t13 -41.5t21.5 -30.5q20 -21 47 -33t59 -12t59 12t47 33q13 14 21.5 30.5t13 41.5t6 60.5t1.5 88.5t-1.5 89t-6 60.5t-13 41.5t-21.5 31q-41 44 -106 44z" />
    <glyph glyph-name="oe" unicode="&#x153;" horiz-adv-x="864" 
d="M478 224q0 -66 33 -104t96 -38q43 0 70 12.5t53 39.5l65 -61q-19 -20 -38.5 -34.5t-42 -24.5t-49 -15t-59.5 -5q-56 0 -100.5 19t-74.5 61q-24 -37 -65.5 -58.5t-97.5 -21.5q-51 0 -88.5 17t-62.5 43q-36 38 -48 86.5t-12 113.5q0 64 12 112.5t48 86.5q25 26 62.5 43
t88.5 17q57 0 98.5 -21.5t65.5 -59.5q26 40 67 60.5t93 20.5q51 0 91 -17.5t67.5 -50t42 -77.5t14.5 -99v-45h-329zM378 254q0 42 -6 79t-29 60q-29 29 -75 29q-45 0 -74 -29q-23 -23 -29 -60t-6 -79t6 -79t29 -60q30 -30 74 -30q45 0 75 30q23 23 29 60t6 79zM707 295
q-2 23 -4 37.5t-10 31.5q-13 29 -38.5 46.5t-61.5 17.5q-37 0 -62.5 -17.5t-38.5 -46.5q-8 -17 -10 -31.5t-3 -37.5h228z" />
    <glyph glyph-name="Racute" unicode="&#x154;" horiz-adv-x="655" 
d="M369 712q51 0 91.5 -15.5t69.5 -43t44.5 -66t15.5 -83.5q0 -77 -41 -124.5t-101 -64.5l164 -315h-126l-150 300h-135v-300h-108v712h276zM201 615v-223h160q54 0 87.5 29t33.5 82t-33.5 82.5t-87.5 29.5h-160zM355 781h-77l75 162h113z" />
    <glyph glyph-name="racute" unicode="&#x155;" horiz-adv-x="439" 
d="M316 513q37 0 66 -11t55 -37l-77 -77q-17 17 -33.5 25.5t-42.5 8.5q-42 0 -71.5 -30.5t-29.5 -83.5v-308h-102v507h100v-55q20 27 56 44t79 17zM257 599h-77l75 162h113z" />
    <glyph glyph-name="uni0156" unicode="&#x156;" horiz-adv-x="655" 
d="M369 712q51 0 91.5 -15.5t69.5 -43t44.5 -66t15.5 -83.5q0 -77 -41 -124.5t-101 -64.5l164 -315h-126l-150 300h-135v-300h-108v712h276zM201 615v-223h160q54 0 87.5 29t33.5 82t-33.5 82.5t-87.5 29.5h-160zM296 -64h80l-51 -146h-98z" />
    <glyph glyph-name="uni0157" unicode="&#x157;" horiz-adv-x="439" 
d="M316 513q37 0 66 -11t55 -37l-77 -77q-17 17 -33.5 25.5t-42.5 8.5q-42 0 -71.5 -30.5t-29.5 -83.5v-308h-102v507h100v-55q20 27 56 44t79 17zM129 -210h-101l70 147h82z" />
    <glyph glyph-name="Rcaron" unicode="&#x158;" horiz-adv-x="655" 
d="M369 712q51 0 91.5 -15.5t69.5 -43t44.5 -66t15.5 -83.5q0 -77 -41 -124.5t-101 -64.5l164 -315h-126l-150 300h-135v-300h-108v712h276zM201 615v-223h160q54 0 87.5 29t33.5 82t-33.5 82.5t-87.5 29.5h-160zM370 781h-86l-129 161h85l87 -97l87 97h85z" />
    <glyph glyph-name="rcaron" unicode="&#x159;" horiz-adv-x="439" 
d="M316 513q37 0 66 -11t55 -37l-77 -77q-17 17 -33.5 25.5t-42.5 8.5q-42 0 -71.5 -30.5t-29.5 -83.5v-308h-102v507h100v-55q20 27 56 44t79 17zM266 599h-86l-129 161h85l87 -97l87 97h85z" />
    <glyph glyph-name="Sacute" unicode="&#x15a;" horiz-adv-x="590" 
d="M292 718q72 0 123.5 -19t97.5 -62l-68 -68q-33 32 -72 43.5t-85 11.5q-63 0 -96 -31t-33 -80q0 -20 6 -37t20 -29t31.5 -19.5t46.5 -12.5l85 -13q49 -8 79 -20t53 -33q58 -53 58 -146q0 -49 -19 -88t-53 -66t-81 -41t-103 -14q-81 0 -140.5 21t-111.5 73l71 71
q39 -39 84 -54t99 -15q71 0 109 28.5t38 81.5q0 50 -28 74q-26 23 -78 30l-84 12q-89 14 -134 57q-53 48 -53 137q0 46 16.5 84.5t47 66t74.5 42.5t100 15zM323 781h-77l75 162h113z" />
    <glyph glyph-name="sacute" unicode="&#x15b;" horiz-adv-x="499" 
d="M248 513q58 0 105.5 -13t82.5 -44l-64 -65q-24 20 -56.5 28.5t-68.5 8.5q-47 0 -69.5 -18t-22.5 -47q0 -26 16 -40t54 -18l71 -6q79 -7 119.5 -42t40.5 -102q0 -40 -16 -70t-44 -50.5t-67 -30.5t-84 -10q-62 0 -115 14.5t-98 58.5l67 67q31 -32 69.5 -42.5t76.5 -10.5
q48 0 79.5 17t31.5 53q0 26 -15.5 41t-52.5 19l-81 7q-72 7 -111 40t-39 100q0 37 15 66t41 49t60.5 30t74.5 10zM283 599h-77l75 162h113z" />
    <glyph glyph-name="Scircumflex" unicode="&#x15c;" horiz-adv-x="590" 
d="M292 718q72 0 123.5 -19t97.5 -62l-68 -68q-33 32 -72 43.5t-85 11.5q-63 0 -96 -31t-33 -80q0 -20 6 -37t20 -29t31.5 -19.5t46.5 -12.5l85 -13q49 -8 79 -20t53 -33q58 -53 58 -146q0 -49 -19 -88t-53 -66t-81 -41t-103 -14q-81 0 -140.5 21t-111.5 73l71 71
q39 -39 84 -54t99 -15q71 0 109 28.5t38 81.5q0 50 -28 74q-26 23 -78 30l-84 12q-89 14 -134 57q-53 48 -53 137q0 46 16.5 84.5t47 66t74.5 42.5t100 15zM467 781h-85l-87 97l-87 -97h-85l129 161h86z" />
    <glyph glyph-name="scircumflex" unicode="&#x15d;" horiz-adv-x="499" 
d="M248 513q58 0 105.5 -13t82.5 -44l-64 -65q-24 20 -56.5 28.5t-68.5 8.5q-47 0 -69.5 -18t-22.5 -47q0 -26 16 -40t54 -18l71 -6q79 -7 119.5 -42t40.5 -102q0 -40 -16 -70t-44 -50.5t-67 -30.5t-84 -10q-62 0 -115 14.5t-98 58.5l67 67q31 -32 69.5 -42.5t76.5 -10.5
q48 0 79.5 17t31.5 53q0 26 -15.5 41t-52.5 19l-81 7q-72 7 -111 40t-39 100q0 37 15 66t41 49t60.5 30t74.5 10zM421 599h-85l-87 97l-87 -97h-85l129 161h86z" />
    <glyph glyph-name="Scedilla" unicode="&#x15e;" horiz-adv-x="590" 
d="M292 718q72 0 123.5 -19t97.5 -62l-68 -68q-33 32 -72 43.5t-85 11.5q-63 0 -96 -31t-33 -80q0 -20 6 -37t20 -29t31.5 -19.5t46.5 -12.5l85 -13q49 -8 79 -20t53 -33q58 -53 58 -146q0 -49 -19 -88t-53 -66t-81 -41t-103 -14q-81 0 -140.5 21t-111.5 73l71 71
q39 -39 84 -54t99 -15q71 0 109 28.5t38 81.5q0 50 -28 74q-26 23 -78 30l-84 12q-89 14 -134 57q-53 48 -53 137q0 46 16.5 84.5t47 66t74.5 42.5t100 15zM292 -209h-101l70 147h82z" />
    <glyph glyph-name="scedilla" unicode="&#x15f;" horiz-adv-x="499" 
d="M248 513q58 0 105.5 -13t82.5 -44l-64 -65q-24 20 -56.5 28.5t-68.5 8.5q-47 0 -69.5 -18t-22.5 -47q0 -26 16 -40t54 -18l71 -6q79 -7 119.5 -42t40.5 -102q0 -40 -16 -70t-44 -50.5t-67 -30.5t-84 -10q-62 0 -115 14.5t-98 58.5l67 67q31 -32 69.5 -42.5t76.5 -10.5
q48 0 79.5 17t31.5 53q0 26 -15.5 41t-52.5 19l-81 7q-72 7 -111 40t-39 100q0 37 15 66t41 49t60.5 30t74.5 10zM213 -63h82l-51 -147h-101z" />
    <glyph glyph-name="Scaron" unicode="&#x160;" horiz-adv-x="590" 
d="M292 718q72 0 123.5 -19t97.5 -62l-68 -68q-33 32 -72 43.5t-85 11.5q-63 0 -96 -31t-33 -80q0 -20 6 -37t20 -29t31.5 -19.5t46.5 -12.5l85 -13q49 -8 79 -20t53 -33q58 -53 58 -146q0 -49 -19 -88t-53 -66t-81 -41t-103 -14q-81 0 -140.5 21t-111.5 73l71 71
q39 -39 84 -54t99 -15q71 0 109 28.5t38 81.5q0 50 -28 74q-26 23 -78 30l-84 12q-89 14 -134 57q-53 48 -53 137q0 46 16.5 84.5t47 66t74.5 42.5t100 15zM338 781h-86l-129 161h85l87 -97l87 97h85z" />
    <glyph glyph-name="scaron" unicode="&#x161;" horiz-adv-x="499" 
d="M248 513q58 0 105.5 -13t82.5 -44l-64 -65q-24 20 -56.5 28.5t-68.5 8.5q-47 0 -69.5 -18t-22.5 -47q0 -26 16 -40t54 -18l71 -6q79 -7 119.5 -42t40.5 -102q0 -40 -16 -70t-44 -50.5t-67 -30.5t-84 -10q-62 0 -115 14.5t-98 58.5l67 67q31 -32 69.5 -42.5t76.5 -10.5
q48 0 79.5 17t31.5 53q0 26 -15.5 41t-52.5 19l-81 7q-72 7 -111 40t-39 100q0 37 15 66t41 49t60.5 30t74.5 10zM292 599h-86l-129 161h85l87 -97l87 97h85z" />
    <glyph glyph-name="uni0162" unicode="&#x162;" horiz-adv-x="560" 
d="M530 615h-196v-615h-108v615h-196v97h500v-97zM250 -64h80l-51 -146h-98z" />
    <glyph glyph-name="uni0163" unicode="&#x163;" horiz-adv-x="342" 
d="M195 507h98v-78h-98v-283q0 -59 56 -59h42v-87h-61q-36 0 -62 11.5t-43 31t-25.5 45t-8.5 53.5v288h-58v78h58v145h102v-145zM166 -210h-101l70 147h82z" />
    <glyph glyph-name="Tcaron" unicode="&#x164;" horiz-adv-x="560" 
d="M530 615h-196v-615h-108v615h-196v97h500v-97zM324 781h-86l-129 161h85l87 -97l87 97h85z" />
    <glyph glyph-name="tcaron" unicode="&#x165;" horiz-adv-x="342" 
d="M195 507h98v-78h-98v-283q0 -59 56 -59h42v-87h-61q-36 0 -62 11.5t-43 31t-25.5 45t-8.5 53.5v288h-58v78h58v145h102v-145zM330 571h-75l37 159h94z" />
    <glyph glyph-name="Tbar" unicode="&#x166;" horiz-adv-x="560" 
d="M530 615h-196v-214h106v-83h-106v-318h-108v318h-106v83h106v214h-196v97h500v-97z" />
    <glyph glyph-name="tbar" unicode="&#x167;" horiz-adv-x="342" 
d="M195 507h98v-78h-98v-118h84v-71h-84v-94q0 -59 56 -59h42v-87h-61q-36 0 -62 11.5t-43 31t-25.5 45t-8.5 53.5v99h-58v71h58v118h-58v78h58v145h102v-145z" />
    <glyph glyph-name="Utilde" unicode="&#x168;" horiz-adv-x="675" 
d="M593 240q0 -55 -19.5 -100.5t-54 -77.5t-81.5 -50t-101 -18t-101 18t-81 50t-53.5 77.5t-19.5 100.5v472h108v-467q0 -72 40 -113t107 -41t107.5 41t40.5 113v467h108v-472zM272 905q22 0 38.5 -6t36.5 -18q15 -9 27.5 -14t27.5 -5q12 0 25.5 5.5t33.5 25.5l48 -47
q-34 -34 -57.5 -44.5t-46.5 -10.5q-22 0 -38.5 6t-36.5 17q-14 8 -27.5 13.5t-28.5 5.5q-13 0 -25 -4.5t-33 -25.5l-48 47q34 34 57 44.5t47 10.5z" />
    <glyph glyph-name="utilde" unicode="&#x169;" horiz-adv-x="568" 
d="M487 0h-100v51q-26 -29 -61.5 -43t-73.5 -14q-39 0 -70.5 12t-54.5 34q-29 29 -40 64.5t-11 78.5v324h102v-309q0 -59 29.5 -86t72.5 -27q21 0 40.5 6.5t33.5 20.5t22.5 35.5t8.5 50.5v309h102v-507zM214 723q22 0 38.5 -6t36.5 -18q15 -9 27.5 -14t27.5 -5
q12 0 25.5 5.5t33.5 25.5l48 -47q-34 -34 -57.5 -44.5t-46.5 -10.5q-22 0 -38.5 6t-36.5 17q-14 8 -27.5 13.5t-28.5 5.5q-13 0 -25 -4.5t-33 -25.5l-48 47q34 34 57 44.5t47 10.5z" />
    <glyph glyph-name="Umacron" unicode="&#x16a;" horiz-adv-x="675" 
d="M593 240q0 -55 -19.5 -100.5t-54 -77.5t-81.5 -50t-101 -18t-101 18t-81 50t-53.5 77.5t-19.5 100.5v472h108v-467q0 -72 40 -113t107 -41t107.5 41t40.5 113v467h108v-472zM493 795h-309v73h309v-73z" />
    <glyph glyph-name="umacron" unicode="&#x16b;" horiz-adv-x="568" 
d="M487 0h-100v51q-26 -29 -61.5 -43t-73.5 -14q-39 0 -70.5 12t-54.5 34q-29 29 -40 64.5t-11 78.5v324h102v-309q0 -59 29.5 -86t72.5 -27q21 0 40.5 6.5t33.5 20.5t22.5 35.5t8.5 50.5v309h102v-507zM435 618h-309v73h309v-73z" />
    <glyph glyph-name="Ubreve" unicode="&#x16c;" horiz-adv-x="675" 
d="M593 240q0 -55 -19.5 -100.5t-54 -77.5t-81.5 -50t-101 -18t-101 18t-81 50t-53.5 77.5t-19.5 100.5v472h108v-467q0 -72 40 -113t107 -41t107.5 41t40.5 113v467h108v-472zM503 929q-5 -75 -49 -110t-115 -35q-72 0 -116 35t-49 110h72q5 -35 30 -52.5t63 -17.5
q14 0 29.5 4t28.5 12.5t22.5 21.5t11.5 32h72z" />
    <glyph glyph-name="ubreve" unicode="&#x16d;" horiz-adv-x="568" 
d="M487 0h-100v51q-26 -29 -61.5 -43t-73.5 -14q-39 0 -70.5 12t-54.5 34q-29 29 -40 64.5t-11 78.5v324h102v-309q0 -59 29.5 -86t72.5 -27q21 0 40.5 6.5t33.5 20.5t22.5 35.5t8.5 50.5v309h102v-507zM445 738q-5 -75 -49 -110t-115 -35q-72 0 -116 35t-49 110h72
q5 -35 30 -52.5t63 -17.5q14 0 29.5 4t28.5 12.5t22.5 21.5t11.5 32h72z" />
    <glyph glyph-name="Uring" unicode="&#x16e;" horiz-adv-x="675" 
d="M593 240q0 -55 -19.5 -100.5t-54 -77.5t-81.5 -50t-101 -18t-101 18t-81 50t-53.5 77.5t-19.5 100.5v472h108v-467q0 -72 40 -113t107 -41t107.5 41t40.5 113v467h108v-472zM338 1004q26 0 48.5 -10t39.5 -27t27 -39.5t10 -48.5t-10 -48.5t-27 -39.5t-39.5 -27t-48.5 -10
t-48.5 10t-39.5 27t-27 39.5t-10 48.5t10 48.5t27 39.5t39.5 27t48.5 10zM338 942q-26 0 -45 -18.5t-19 -44.5t19 -44.5t45 -18.5t45 18.5t19 44.5t-19 44.5t-45 18.5z" />
    <glyph glyph-name="uring" unicode="&#x16f;" horiz-adv-x="568" 
d="M487 0h-100v51q-26 -29 -61.5 -43t-73.5 -14q-39 0 -70.5 12t-54.5 34q-29 29 -40 64.5t-11 78.5v324h102v-309q0 -59 29.5 -86t72.5 -27q21 0 40.5 6.5t33.5 20.5t22.5 35.5t8.5 50.5v309h102v-507zM281 826q26 0 48.5 -10t39.5 -27t27 -39.5t10 -48.5t-10 -48.5
t-27 -39.5t-39.5 -27t-48.5 -10t-48.5 10t-39.5 27t-27 39.5t-10 48.5t10 48.5t27 39.5t39.5 27t48.5 10zM281 764q-26 0 -45 -18.5t-19 -44.5t19 -44.5t45 -18.5t45 18.5t19 44.5t-19 44.5t-45 18.5z" />
    <glyph glyph-name="Uhungarumlaut" unicode="&#x170;" horiz-adv-x="675" 
d="M593 240q0 -55 -19.5 -100.5t-54 -77.5t-81.5 -50t-101 -18t-101 18t-81 50t-53.5 77.5t-19.5 100.5v472h108v-467q0 -72 40 -113t107 -41t107.5 41t40.5 113v467h108v-472zM462 943h105l-104 -162h-84zM265 943h106l-104 -162h-84z" />
    <glyph glyph-name="uhungarumlaut" unicode="&#x171;" horiz-adv-x="568" 
d="M487 0h-100v51q-26 -29 -61.5 -43t-73.5 -14q-39 0 -70.5 12t-54.5 34q-29 29 -40 64.5t-11 78.5v324h102v-309q0 -59 29.5 -86t72.5 -27q21 0 40.5 6.5t33.5 20.5t22.5 35.5t8.5 50.5v309h102v-507zM408 761h106l-105 -162h-84zM211 761h106l-104 -162h-84z" />
    <glyph glyph-name="Uogonek" unicode="&#x172;" horiz-adv-x="675" 
d="M593 240q0 -55 -19.5 -100.5t-54 -77.5t-81.5 -50t-101 -18t-101 18t-81 50t-53.5 77.5t-19.5 100.5v472h108v-467q0 -72 40 -113t107 -41t107.5 41t40.5 113v467h108v-472zM419 -64h80l-51 -146h-98z" />
    <glyph glyph-name="uogonek" unicode="&#x173;" horiz-adv-x="568" 
d="M487 0h-100v51q-26 -29 -61.5 -43t-73.5 -14q-39 0 -70.5 12t-54.5 34q-29 29 -40 64.5t-11 78.5v324h102v-309q0 -59 29.5 -86t72.5 -27q21 0 40.5 6.5t33.5 20.5t22.5 35.5t8.5 50.5v309h102v-507zM396 -64h80l-51 -146h-98z" />
    <glyph glyph-name="Wcircumflex" unicode="&#x174;" horiz-adv-x="871" 
d="M674 0h-94l-145 499l-144 -499h-94l-186 712h114l124 -509l143 509h87l143 -509l124 509h114zM607 781h-85l-87 97l-87 -97h-85l129 161h86z" />
    <glyph glyph-name="wcircumflex" unicode="&#x175;" horiz-adv-x="743" 
d="M8 507h108l99 -357l116 357h80l116 -357l99 357h109l-158 -507h-88l-118 366l-118 -366h-87zM544 599h-85l-87 97l-87 -97h-85l129 161h86z" />
    <glyph glyph-name="Ycircumflex" unicode="&#x176;" horiz-adv-x="544" 
d="M326 293v-293h-108v293l-213 419h118l149 -313l149 313h118zM445 781h-85l-87 97l-87 -97h-85l129 161h86z" />
    <glyph glyph-name="ycircumflex" unicode="&#x177;" horiz-adv-x="472" 
d="M239 -105q-14 -40 -37 -63q-21 -21 -48 -29t-56 -8h-41v92h26q32 0 47 11.5t26 42.5l29 83l-177 483h108l121 -357l118 357h109zM410 599h-85l-87 97l-87 -97h-85l129 161h86z" />
    <glyph glyph-name="Ydieresis" unicode="&#x178;" horiz-adv-x="544" 
d="M326 293v-293h-108v293l-213 419h118l149 -313l149 313h118zM427 786h-92v108h92v-108zM211 786h-92v108h92v-108z" />
    <glyph glyph-name="Zacute" unicode="&#x179;" horiz-adv-x="552" 
d="M504 624l-330 -527h330v-97h-456v88l330 527h-316v97h442v-88zM306 781h-77l75 162h113z" />
    <glyph glyph-name="zacute" unicode="&#x17a;" horiz-adv-x="469" 
d="M43 79l251 337h-237v91h364v-79l-252 -337h252v-91h-378v79zM265 599h-77l75 162h113z" />
    <glyph glyph-name="Zdotaccent" unicode="&#x17b;" horiz-adv-x="552" 
d="M504 624l-330 -527h330v-97h-456v88l330 527h-316v97h442v-88zM232 894h92v-108h-92v108z" />
    <glyph glyph-name="zdotaccent" unicode="&#x17c;" horiz-adv-x="469" 
d="M43 79l251 337h-237v91h364v-79l-252 -337h252v-91h-378v79zM276 604h-92v108h92v-108z" />
    <glyph glyph-name="Zcaron" unicode="&#x17d;" horiz-adv-x="552" 
d="M504 624l-330 -527h330v-97h-456v88l330 527h-316v97h442v-88zM321 781h-86l-129 161h85l87 -97l87 97h85z" />
    <glyph glyph-name="zcaron" unicode="&#x17e;" horiz-adv-x="469" 
d="M43 79l251 337h-237v91h364v-79l-252 -337h252v-91h-378v79zM274 599h-86l-129 161h85l87 -97l87 97h85z" />
    <glyph glyph-name="longs" unicode="&#x17f;" horiz-adv-x="264" 
d="M281 625h-45q-56 0 -56 -59v-566h-102v571q0 28 8.5 53.5t25.5 45t43 31t62 11.5h64v-87z" />
    <glyph glyph-name="uni018E" unicode="&#x18e;" horiz-adv-x="603" 
d="M510 712v-712h-455v97h347v213h-296v97h296v208h-347v97h455z" />
    <glyph glyph-name="uni018F" unicode="&#x18f;" horiz-adv-x="649" 
d="M326 718q59 0 104 -18.5t80 -53.5q26 -26 40.5 -54t21.5 -61.5t8.5 -76t1.5 -98.5t-1.5 -98.5t-8.5 -76t-21.5 -61.5t-40.5 -54q-35 -35 -80 -53.5t-104 -18.5q-57 0 -106.5 19.5t-89.5 61.5q-35 38 -49.5 84.5t-14.5 116.5v128h407q-1 38 -3 65.5t-6.5 47t-12 34
t-19.5 27.5q-41 43 -106 43q-60 0 -98 -32t-52 -91h-108q7 45 27 85t52.5 70t77.5 47.5t101 17.5zM174 312v-59q0 -35 7.5 -62t27.5 -50q21 -25 51.5 -37.5t65.5 -12.5q65 0 106 43q12 13 20 27.5t12.5 34.5t6.5 48t2 68h-299z" />
    <glyph glyph-name="florin" unicode="&#x192;" horiz-adv-x="415" 
d="M385 630h-59q-29 0 -45 -15.5t-21 -43.5l-32 -180h99v-78h-113l-91 -518h-102l91 518h-58v78h72l33 185q5 27 17.5 52.5t33 45t48.5 31.5t64 12h63v-87z" />
    <glyph glyph-name="Ohorn" unicode="&#x1a0;" horiz-adv-x="661" 
d="M673 661q0 -59 -23.5 -87t-83.5 -31q9 -35 11 -80t2 -107q0 -56 -1.5 -98.5t-8.5 -76t-21.5 -61.5t-40.5 -54q-35 -35 -80 -53.5t-104 -18.5t-104 18.5t-80 53.5q-26 26 -40.5 54t-21.5 61.5t-8.5 76t-1.5 98.5t1.5 98.5t8.5 76t21.5 61.5t40.5 54q35 35 80 53.5
t104 18.5t104 -18.5t80 -53.5q20 -20 31 -38h15q24 0 34.5 14t10.5 49v79h75v-89zM323 621q-65 0 -106 -43q-13 -14 -21.5 -31t-13 -41.5t-6 -60.5t-1.5 -89t1.5 -88.5t6 -60.5t13 -41.5t21.5 -30.5q42 -44 106 -44t106 44q13 14 21.5 30.5t13 41t6 60.5t1.5 89t-1.5 89
t-6 61t-13 41.5t-21.5 30.5q-41 43 -106 43z" />
    <glyph glyph-name="ohorn" unicode="&#x1a1;" horiz-adv-x="561" 
d="M567 478q0 -56 -22 -83.5t-76 -32.5q6 -24 8 -50.5t2 -57.5q0 -65 -11.5 -113.5t-47.5 -86.5q-26 -26 -63 -43t-89 -17t-89 17t-62 43q-37 38 -48.5 86.5t-11.5 113.5q0 64 11.5 112.5t48.5 86.5q25 26 62 43t89 17t89 -17t63 -43q15 -15 23 -30h5q23 0 35 14.5t12 50.5
v52h72v-62zM268 422q-44 0 -75 -29q-24 -23 -29 -60.5t-5 -78.5q0 -42 5.5 -79t28.5 -60q30 -30 75 -30q46 0 75 30q23 23 28.5 60t5.5 79q0 41 -5.5 78t-28.5 61q-29 29 -75 29z" />
    <glyph glyph-name="Uhorn" unicode="&#x1af;" horiz-adv-x="721" 
d="M337 -6q-54 0 -101 18t-81 50t-53.5 77.5t-19.5 100.5v472h108v-467q0 -72 40 -113t107 -41t107.5 41t40.5 113v467h108v-104h22q26 0 37 14t11 49v79h75v-89q0 -63 -27.5 -90.5t-96.5 -27.5h-21v-303q0 -55 -19.5 -100.5t-54 -77.5t-81.5 -50t-101 -18z" />
    <glyph glyph-name="uhorn" unicode="&#x1b0;" horiz-adv-x="600" 
d="M619 478q0 -62 -27.5 -89.5t-95.5 -27.5h-9v-361h-100v51q-26 -29 -61 -43t-74 -14q-77 0 -125 46q-29 29 -40 64.5t-11 78.5v324h102v-309q0 -59 29.5 -86t72.5 -27q22 0 41 6.5t33 20.5t22.5 35t8.5 51v309h102v-84h13q24 0 35.5 14.5t11.5 50.5v52h72v-62z" />
    <glyph glyph-name="uni01B5" unicode="&#x1b5;" horiz-adv-x="552" 
d="M504 624l-140 -223h73v-83h-125l-138 -221h330v-97h-456v88l144 230h-76v83h128l134 214h-316v97h442v-88z" />
    <glyph glyph-name="uni01B6" unicode="&#x1b6;" horiz-adv-x="469" 
d="M421 426l-106 -140h55v-66h-105l-98 -129h254v-91h-378v81l105 139h-54v66h103l98 130h-238v91h364v-81z" />
    <glyph glyph-name="uni01CD" unicode="&#x1cd;" horiz-adv-x="625" 
d="M617 0h-115l-49 143h-281l-49 -143h-115l261 712h87zM203 235h219l-110 316zM356 781h-86l-129 161h85l87 -97l87 97h85z" />
    <glyph glyph-name="uni01CE" unicode="&#x1ce;" horiz-adv-x="530" 
d="M245 513q106 0 157.5 -44t51.5 -130v-339h-100v46q-28 -28 -58 -40t-77 -12q-48 0 -80.5 11.5t-55.5 34.5q-40 42 -40 109q0 64 44 105t132 41h133v36q0 49 -25.5 72t-85.5 23q-41 0 -65 -11.5t-46 -38.5l-66 63q18 21 36.5 35t40 23t47 12.5t57.5 3.5zM235 224
q-93 0 -93 -73q0 -35 22.5 -53.5t73.5 -18.5q27 0 49.5 5t42.5 24q22 21 22 75v41h-117zM302 599h-86l-129 161h85l87 -97l87 97h85z" />
    <glyph glyph-name="uni01CF" unicode="&#x1cf;" horiz-adv-x="294" 
d="M201 0h-108v712h108v-712zM192 781h-86l-129 161h85l87 -97l87 97h85z" />
    <glyph glyph-name="uni01D0" unicode="&#x1d0;" horiz-adv-x="264" 
d="M177 599h-86l-129 161h85l87 -97l87 97h85zM183 0h-102v507h102v-507z" />
    <glyph glyph-name="uni01D1" unicode="&#x1d1;" horiz-adv-x="646" 
d="M323 718q59 0 104 -18.5t80 -53.5q26 -26 40.5 -54t21.5 -61.5t8.5 -76t1.5 -98.5t-1.5 -98.5t-8.5 -76t-21.5 -61.5t-40.5 -54q-35 -35 -80 -53.5t-104 -18.5t-104 18.5t-80 53.5q-26 26 -40.5 54t-21.5 61.5t-8.5 76t-1.5 98.5t1.5 98.5t8.5 76t21.5 61.5t40.5 54
q35 35 80 53.5t104 18.5zM323 621q-65 0 -106 -43q-13 -14 -21.5 -31t-13 -41.5t-6 -60.5t-1.5 -89t1.5 -88.5t6 -60.5t13 -41.5t21.5 -30.5q42 -44 106 -44t106 44q13 14 21.5 30.5t13 41t6 60.5t1.5 89t-1.5 89t-6 61t-13 41.5t-21.5 30.5q-41 43 -106 43zM366 781h-86
l-129 161h85l87 -97l87 97h85z" />
    <glyph glyph-name="uni01D2" unicode="&#x1d2;" 
d="M268 513q52 0 89.5 -17t62.5 -43q36 -38 48 -86.5t12 -112.5q0 -65 -12 -113.5t-48 -86.5q-25 -26 -62.5 -43t-89.5 -17t-89 17t-62 43q-36 38 -48 86.5t-12 113.5q0 64 12 112.5t48 86.5q25 26 62 43t89 17zM268 422q-45 0 -74 -29q-23 -23 -29 -60t-6 -79t6 -79t29 -60
q30 -30 74 -30q45 0 75 30q23 23 29 60t6 79t-6 79t-29 60q-29 29 -75 29zM312 599h-86l-129 161h85l87 -97l87 97h85z" />
    <glyph glyph-name="uni01D3" unicode="&#x1d3;" horiz-adv-x="675" 
d="M593 240q0 -55 -19.5 -100.5t-54 -77.5t-81.5 -50t-101 -18t-101 18t-81 50t-53.5 77.5t-19.5 100.5v472h108v-467q0 -72 40 -113t107 -41t107.5 41t40.5 113v467h108v-472zM381 781h-86l-129 161h85l87 -97l87 97h85z" />
    <glyph glyph-name="uni01D4" unicode="&#x1d4;" horiz-adv-x="568" 
d="M487 0h-100v51q-26 -29 -61.5 -43t-73.5 -14q-39 0 -70.5 12t-54.5 34q-29 29 -40 64.5t-11 78.5v324h102v-309q0 -59 29.5 -86t72.5 -27q21 0 40.5 6.5t33.5 20.5t22.5 35.5t8.5 50.5v309h102v-507zM324 599h-86l-129 161h85l87 -97l87 97h85z" />
    <glyph glyph-name="uni01D5" unicode="&#x1d5;" horiz-adv-x="675" 
d="M493 973h-309v73h309v-73zM593 240q0 -55 -19.5 -100.5t-54 -77.5t-81.5 -50t-101 -18t-101 18t-81 50t-53.5 77.5t-19.5 100.5v472h108v-467q0 -72 40 -113t107 -41t107.5 41t40.5 113v467h108v-472zM492 786h-92v108h92v-108zM276 786h-92v108h92v-108z" />
    <glyph glyph-name="uni01D6" unicode="&#x1d6;" horiz-adv-x="568" 
d="M435 796h-309v73h309v-73zM487 0h-100v51q-26 -29 -61.5 -43t-73.5 -14q-39 0 -70.5 12t-54.5 34q-29 29 -40 64.5t-11 78.5v324h102v-309q0 -59 29.5 -86t72.5 -27q21 0 40.5 6.5t33.5 20.5t22.5 35.5t8.5 50.5v309h102v-507zM435 604h-92v108h92v-108zM219 604h-92v108
h92v-108z" />
    <glyph glyph-name="uni01D7" unicode="&#x1d7;" horiz-adv-x="675" 
d="M366 959h-77l75 162h113zM593 240q0 -55 -19.5 -100.5t-54 -77.5t-81.5 -50t-101 -18t-101 18t-81 50t-53.5 77.5t-19.5 100.5v472h108v-467q0 -72 40 -113t107 -41t107.5 41t40.5 113v467h108v-472zM492 786h-92v108h92v-108zM276 786h-92v108h92v-108z" />
    <glyph glyph-name="uni01D8" unicode="&#x1d8;" horiz-adv-x="568" 
d="M315 777h-77l75 162h113zM487 0h-100v51q-26 -29 -61.5 -43t-73.5 -14q-39 0 -70.5 12t-54.5 34q-29 29 -40 64.5t-11 78.5v324h102v-309q0 -59 29.5 -86t72.5 -27q21 0 40.5 6.5t33.5 20.5t22.5 35.5t8.5 50.5v309h102v-507zM435 604h-92v108h92v-108zM219 604h-92v108
h92v-108z" />
    <glyph glyph-name="uni01D9" unicode="&#x1d9;" horiz-adv-x="675" 
d="M381 959h-86l-129 161h85l87 -97l87 97h85zM593 240q0 -55 -19.5 -100.5t-54 -77.5t-81.5 -50t-101 -18t-101 18t-81 50t-53.5 77.5t-19.5 100.5v472h108v-467q0 -72 40 -113t107 -41t107.5 41t40.5 113v467h108v-472zM492 786h-92v108h92v-108zM276 786h-92v108h92v-108
z" />
    <glyph glyph-name="uni01DA" unicode="&#x1da;" horiz-adv-x="568" 
d="M324 777h-86l-129 161h85l87 -97l87 97h85zM487 0h-100v51q-26 -29 -61.5 -43t-73.5 -14q-39 0 -70.5 12t-54.5 34q-29 29 -40 64.5t-11 78.5v324h102v-309q0 -59 29.5 -86t72.5 -27q21 0 40.5 6.5t33.5 20.5t22.5 35.5t8.5 50.5v309h102v-507zM435 604h-92v108h92v-108z
M219 604h-92v108h92v-108z" />
    <glyph glyph-name="uni01DB" unicode="&#x1db;" horiz-adv-x="675" 
d="M384 959h-77l-111 162h113zM593 240q0 -55 -19.5 -100.5t-54 -77.5t-81.5 -50t-101 -18t-101 18t-81 50t-53.5 77.5t-19.5 100.5v472h108v-467q0 -72 40 -113t107 -41t107.5 41t40.5 113v467h108v-472zM492 786h-92v108h92v-108zM276 786h-92v108h92v-108z" />
    <glyph glyph-name="uni01DC" unicode="&#x1dc;" horiz-adv-x="568" 
d="M321 777h-77l-111 162h113zM487 0h-100v51q-26 -29 -61.5 -43t-73.5 -14q-39 0 -70.5 12t-54.5 34q-29 29 -40 64.5t-11 78.5v324h102v-309q0 -59 29.5 -86t72.5 -27q21 0 40.5 6.5t33.5 20.5t22.5 35.5t8.5 50.5v309h102v-507zM435 604h-92v108h92v-108zM219 604h-92
v108h92v-108z" />
    <glyph glyph-name="uni01DD" unicode="&#x1dd;" horiz-adv-x="540" 
d="M270 -6q-51 0 -91 17.5t-67.5 50t-42 77.5t-14.5 101v43h329q0 66 -33 104t-96 38q-43 0 -69.5 -12.5t-53.5 -39.5l-65 61q19 19 39 34t42.5 25t49 15t59.5 5q48 0 89.5 -13.5t72 -44t48.5 -80.5t18 -122q0 -125 -58.5 -192t-156.5 -67zM270 79q37 0 62.5 17.5t38.5 46.5
q8 17 10 31.5t3 37.5h-228q2 -23 4 -37.5t10 -31.5q13 -29 38.5 -46.5t61.5 -17.5z" />
    <glyph glyph-name="uni01DE" unicode="&#x1de;" horiz-adv-x="625" 
d="M468 965h-309v73h309v-73zM617 0h-115l-49 143h-281l-49 -143h-115l261 712h87zM203 235h219l-110 316zM467 786h-92v108h92v-108zM251 786h-92v108h92v-108z" />
    <glyph glyph-name="uni01DF" unicode="&#x1df;" horiz-adv-x="530" 
d="M413 796h-309v73h309v-73zM245 513q106 0 157.5 -44t51.5 -130v-339h-100v46q-28 -28 -58 -40t-77 -12q-48 0 -80.5 11.5t-55.5 34.5q-40 42 -40 109q0 64 44 105t132 41h133v36q0 49 -25.5 72t-85.5 23q-41 0 -65 -11.5t-46 -38.5l-66 63q18 21 36.5 35t40 23t47 12.5
t57.5 3.5zM235 224q-93 0 -93 -73q0 -35 22.5 -53.5t73.5 -18.5q27 0 49.5 5t42.5 24q22 21 22 75v41h-117zM413 604h-92v108h92v-108zM197 604h-92v108h92v-108z" />
    <glyph glyph-name="uni01E0" unicode="&#x1e0;" horiz-adv-x="625" 
d="M468 965h-309v73h309v-73zM617 0h-115l-49 143h-281l-49 -143h-115l261 712h87zM203 235h219l-110 316zM267 894h92v-108h-92v108z" />
    <glyph glyph-name="uni01E1" unicode="&#x1e1;" horiz-adv-x="530" 
d="M413 796h-309v73h309v-73zM245 513q106 0 157.5 -44t51.5 -130v-339h-100v46q-28 -28 -58 -40t-77 -12q-48 0 -80.5 11.5t-55.5 34.5q-40 42 -40 109q0 64 44 105t132 41h133v36q0 49 -25.5 72t-85.5 23q-41 0 -65 -11.5t-46 -38.5l-66 63q18 21 36.5 35t40 23t47 12.5
t57.5 3.5zM235 224q-93 0 -93 -73q0 -35 22.5 -53.5t73.5 -18.5q27 0 49.5 5t42.5 24q22 21 22 75v41h-117zM304 604h-92v108h92v-108z" />
    <glyph glyph-name="uni01E2" unicode="&#x1e2;" horiz-adv-x="955" 
d="M900 615h-347v-207h296v-97h-296v-214h347v-97h-455v162h-235l-84 -162h-118l374 712h518v-97zM257 254h188v361zM815 795h-309v73h309v-73z" />
    <glyph glyph-name="uni01E3" unicode="&#x1e3;" horiz-adv-x="837" 
d="M567 513q51 0 91 -17.5t67.5 -50t42 -78t14.5 -100.5v-43h-329q0 -66 33 -104t96 -38q43 0 70 12.5t53 39.5l65 -61q-19 -20 -38.5 -34.5t-42 -24.5t-49.5 -15t-60 -5q-56 0 -102 18.5t-77 60.5q-39 -47 -81 -63t-101 -16q-48 0 -80.5 11.5t-55.5 34.5q-40 42 -40 109
q0 64 44 105t132 41h133v36q0 49 -25.5 72t-85.5 23q-41 0 -65 -11.5t-46 -38.5l-66 63q18 21 36.5 35t40 23t47 12.5t57.5 3.5q124 0 172 -67q26 34 64 50.5t86 16.5zM235 224q-93 0 -93 -73q0 -35 22.5 -53.5t73.5 -18.5q27 0 49.5 5t42.5 24q22 21 22 75v41h-117z
M568 428q-37 0 -62.5 -17.5t-38.5 -46.5q-8 -17 -10 -31.5t-3 -37.5h228q-2 23 -4 37.5t-10 31.5q-13 29 -38.5 46.5t-61.5 17.5zM567 618h-309v73h309v-73z" />
    <glyph glyph-name="Gcaron" unicode="&#x1e6;" horiz-adv-x="649" 
d="M323 718q56 0 101 -17.5t77.5 -47.5t52.5 -70t27 -85h-108q-14 59 -52 91t-98 32q-65 0 -106 -43q-13 -14 -21.5 -31t-13 -41.5t-6 -60.5t-1.5 -89t1.5 -89t6 -60.5t13 -41.5t21.5 -31q41 -43 106 -43q35 0 65.5 12.5t51.5 37.5q20 23 27.5 50t7.5 62v40h-152v92h260
v-109q0 -70 -14.5 -116.5t-49.5 -84.5q-40 -42 -89.5 -61.5t-106.5 -19.5q-59 0 -104 18.5t-80 53.5q-26 26 -40.5 54t-21.5 61.5t-8.5 76t-1.5 98.5t1.5 98.5t8.5 76t21.5 61.5t40.5 54q35 35 80 53.5t104 18.5zM366 781h-86l-129 161h85l87 -97l87 97h85z" />
    <glyph glyph-name="gcaron" unicode="&#x1e7;" horiz-adv-x="549" 
d="M236 513q41 0 72.5 -12.5t60.5 -47.5v54h99v-504q0 -47 -15 -86t-43 -67.5t-68 -44.5t-91 -16q-58 0 -98.5 15t-80.5 52l65 65q24 -23 48 -34t62 -11q32 0 54.5 10.5t37 28.5t21 41t6.5 49v65q-28 -33 -60 -45.5t-71 -12.5q-38 0 -69 12t-52 33q-37 37 -47 89t-10 117
t10 117t47 89q44 44 122 44zM263 422q-35 0 -55.5 -13.5t-31 -36t-14 -51t-3.5 -58.5t3.5 -58.5t14 -51t31 -36t55.5 -13.5q34 0 54.5 13.5t31.5 36t14 51t3 58.5t-3 58.5t-14 51t-31.5 36t-54.5 13.5zM312 599h-86l-129 161h85l87 -97l87 97h85z" />
    <glyph glyph-name="uni01E8" unicode="&#x1e8;" horiz-adv-x="658" 
d="M393 433l255 -433h-127l-200 351l-120 -144v-207h-108v712h108v-358l291 358h132zM390 781h-86l-129 161h85l87 -97l87 97h85z" />
    <glyph glyph-name="uni01E9" unicode="&#x1e9;" horiz-adv-x="548" 
d="M183 273l197 234h124l-176 -199l198 -308h-126l-142 234l-75 -85v-149h-102v712h102v-439zM177 781h-86l-129 161h85l87 -97l87 97h85z" />
    <glyph glyph-name="uni01EA" unicode="&#x1ea;" horiz-adv-x="646" 
d="M323 718q59 0 104 -18.5t80 -53.5q26 -26 40.5 -54t21.5 -61.5t8.5 -76t1.5 -98.5t-1.5 -98.5t-8.5 -76t-21.5 -61.5t-40.5 -54q-35 -35 -80 -53.5t-104 -18.5t-104 18.5t-80 53.5q-26 26 -40.5 54t-21.5 61.5t-8.5 76t-1.5 98.5t1.5 98.5t8.5 76t21.5 61.5t40.5 54
q35 35 80 53.5t104 18.5zM323 621q-65 0 -106 -43q-13 -14 -21.5 -31t-13 -41.5t-6 -60.5t-1.5 -89t1.5 -88.5t6 -60.5t13 -41.5t21.5 -30.5q42 -44 106 -44t106 44q13 14 21.5 30.5t13 41t6 60.5t1.5 89t-1.5 89t-6 61t-13 41.5t-21.5 30.5q-41 43 -106 43zM292 -64h80
l-51 -146h-98z" />
    <glyph glyph-name="uni01EB" unicode="&#x1eb;" 
d="M268 513q52 0 89.5 -17t62.5 -43q36 -38 48 -86.5t12 -112.5q0 -65 -12 -113.5t-48 -86.5q-25 -26 -62.5 -43t-89.5 -17t-89 17t-62 43q-36 38 -48 86.5t-12 113.5q0 64 12 112.5t48 86.5q25 26 62 43t89 17zM268 422q-45 0 -74 -29q-23 -23 -29 -60t-6 -79t6 -79t29 -60
q30 -30 74 -30q45 0 75 30q23 23 29 60t6 79t-6 79t-29 60q-29 29 -75 29zM233 -64h80l-51 -146h-98z" />
    <glyph glyph-name="uni01EC" unicode="&#x1ec;" horiz-adv-x="646" 
d="M478 795h-309v73h309v-73zM323 718q59 0 104 -18.5t80 -53.5q26 -26 40.5 -54t21.5 -61.5t8.5 -76t1.5 -98.5t-1.5 -98.5t-8.5 -76t-21.5 -61.5t-40.5 -54q-35 -35 -80 -53.5t-104 -18.5t-104 18.5t-80 53.5q-26 26 -40.5 54t-21.5 61.5t-8.5 76t-1.5 98.5t1.5 98.5
t8.5 76t21.5 61.5t40.5 54q35 35 80 53.5t104 18.5zM323 621q-65 0 -106 -43q-13 -14 -21.5 -31t-13 -41.5t-6 -60.5t-1.5 -89t1.5 -88.5t6 -60.5t13 -41.5t21.5 -30.5q42 -44 106 -44t106 44q13 14 21.5 30.5t13 41t6 60.5t1.5 89t-1.5 89t-6 61t-13 41.5t-21.5 30.5
q-41 43 -106 43zM292 -64h80l-51 -146h-98z" />
    <glyph glyph-name="uni01ED" unicode="&#x1ed;" 
d="M423 618h-309v73h309v-73zM268 513q52 0 89.5 -17t62.5 -43q36 -38 48 -86.5t12 -112.5q0 -65 -12 -113.5t-48 -86.5q-25 -26 -62.5 -43t-89.5 -17t-89 17t-62 43q-36 38 -48 86.5t-12 113.5q0 64 12 112.5t48 86.5q25 26 62 43t89 17zM268 422q-45 0 -74 -29
q-23 -23 -29 -60t-6 -79t6 -79t29 -60q30 -30 74 -30q45 0 75 30q23 23 29 60t6 79t-6 79t-29 60q-29 29 -75 29zM233 -64h80l-51 -146h-98z" />
    <glyph glyph-name="uni01F0" unicode="&#x1f0;" horiz-adv-x="264" 
d="M183 -65q0 -28 -8 -53.5t-25 -44.5t-43.5 -30.5t-62.5 -11.5h-63v87h45q31 0 43 15t12 44v566h102v-572zM177 599h-86l-129 161h85l87 -97l87 97h85z" />
    <glyph glyph-name="uni01F4" unicode="&#x1f4;" horiz-adv-x="649" 
d="M323 718q56 0 101 -17.5t77.5 -47.5t52.5 -70t27 -85h-108q-14 59 -52 91t-98 32q-65 0 -106 -43q-13 -14 -21.5 -31t-13 -41.5t-6 -60.5t-1.5 -89t1.5 -89t6 -60.5t13 -41.5t21.5 -31q41 -43 106 -43q35 0 65.5 12.5t51.5 37.5q20 23 27.5 50t7.5 62v40h-152v92h260
v-109q0 -70 -14.5 -116.5t-49.5 -84.5q-40 -42 -89.5 -61.5t-106.5 -19.5q-59 0 -104 18.5t-80 53.5q-26 26 -40.5 54t-21.5 61.5t-8.5 76t-1.5 98.5t1.5 98.5t8.5 76t21.5 61.5t40.5 54q35 35 80 53.5t104 18.5zM351 781h-77l75 162h113z" />
    <glyph glyph-name="uni01F5" unicode="&#x1f5;" horiz-adv-x="549" 
d="M236 513q41 0 72.5 -12.5t60.5 -47.5v54h99v-504q0 -47 -15 -86t-43 -67.5t-68 -44.5t-91 -16q-58 0 -98.5 15t-80.5 52l65 65q24 -23 48 -34t62 -11q32 0 54.5 10.5t37 28.5t21 41t6.5 49v65q-28 -33 -60 -45.5t-71 -12.5q-38 0 -69 12t-52 33q-37 37 -47 89t-10 117
t10 117t47 89q44 44 122 44zM263 422q-35 0 -55.5 -13.5t-31 -36t-14 -51t-3.5 -58.5t3.5 -58.5t14 -51t31 -36t55.5 -13.5q34 0 54.5 13.5t31.5 36t14 51t3 58.5t-3 58.5t-14 51t-31.5 36t-54.5 13.5zM303 599h-77l75 162h113z" />
    <glyph glyph-name="uni01F8" unicode="&#x1f8;" horiz-adv-x="722" 
d="M629 0h-99l-329 501v-501h-108v712h99l329 -501v501h108v-712zM407 781h-77l-111 162h113z" />
    <glyph glyph-name="uni01F9" unicode="&#x1f9;" horiz-adv-x="568" 
d="M316 513q39 0 70.5 -12t54.5 -34q29 -29 40 -64.5t11 -78.5v-324h-102v309q0 59 -29.5 86t-72.5 27t-74 -27.5t-31 -85.5v-309h-102v507h100v-51q26 29 61.5 43t73.5 14zM327 599h-77l-111 162h113z" />
    <glyph glyph-name="Aringacute" unicode="&#x1fa;" horiz-adv-x="625" 
d="M312 866q26 0 48.5 -10t39.5 -27t27 -39.5t10 -48.5q0 -32 -14.5 -59t-39.5 -44l234 -638h-115l-49 143h-281l-49 -143h-115l234 638q-25 17 -40 44t-15 59q0 26 10 48.5t27 39.5t39.5 27t48.5 10zM312 804q-26 0 -45 -18.5t-19 -44.5t19 -44.5t45 -18.5t45 18.5t19 44.5
t-19 44.5t-45 18.5zM358 913h-77l75 162h113zM203 235h219l-110 316z" />
    <glyph glyph-name="aringacute" unicode="&#x1fb;" horiz-adv-x="530" 
d="M293 854h-77l75 162h113zM245 513q106 0 157.5 -44t51.5 -130v-339h-100v46q-28 -28 -58 -40t-77 -12q-48 0 -80.5 11.5t-55.5 34.5q-40 42 -40 109q0 64 44 105t132 41h133v36q0 49 -25.5 72t-85.5 23q-41 0 -65 -11.5t-46 -38.5l-66 63q18 21 36.5 35t40 23t47 12.5
t57.5 3.5zM235 224q-93 0 -93 -73q0 -35 22.5 -53.5t73.5 -18.5q27 0 49.5 5t42.5 24q22 21 22 75v41h-117zM259 826q26 0 48.5 -10t39.5 -27t27 -39.5t10 -48.5t-10 -48.5t-27 -39.5t-39.5 -27t-48.5 -10t-48.5 10t-39.5 27t-27 39.5t-10 48.5t10 48.5t27 39.5t39.5 27
t48.5 10zM259 764q-26 0 -45 -18.5t-19 -44.5t19 -44.5t45 -18.5t45 18.5t19 44.5t-19 44.5t-45 18.5z" />
    <glyph glyph-name="AEacute" unicode="&#x1fc;" horiz-adv-x="955" 
d="M900 615h-347v-207h296v-97h-296v-214h347v-97h-455v162h-235l-84 -162h-118l374 712h518v-97zM257 254h188v361zM688 781h-77l75 162h113z" />
    <glyph glyph-name="aeacute" unicode="&#x1fd;" horiz-adv-x="837" 
d="M567 513q51 0 91 -17.5t67.5 -50t42 -78t14.5 -100.5v-43h-329q0 -66 33 -104t96 -38q43 0 70 12.5t53 39.5l65 -61q-19 -20 -38.5 -34.5t-42 -24.5t-49.5 -15t-60 -5q-56 0 -102 18.5t-77 60.5q-39 -47 -81 -63t-101 -16q-48 0 -80.5 11.5t-55.5 34.5q-40 42 -40 109
q0 64 44 105t132 41h133v36q0 49 -25.5 72t-85.5 23q-41 0 -65 -11.5t-46 -38.5l-66 63q18 21 36.5 35t40 23t47 12.5t57.5 3.5q124 0 172 -67q26 34 64 50.5t86 16.5zM235 224q-93 0 -93 -73q0 -35 22.5 -53.5t73.5 -18.5q27 0 49.5 5t42.5 24q22 21 22 75v41h-117z
M568 428q-37 0 -62.5 -17.5t-38.5 -46.5q-8 -17 -10 -31.5t-3 -37.5h228q-2 23 -4 37.5t-10 31.5q-13 29 -38.5 46.5t-61.5 17.5zM447 599h-77l75 162h113z" />
    <glyph glyph-name="Oslashacute" unicode="&#x1fe;" horiz-adv-x="646" 
d="M504 649q28 -27 43 -55t22 -62.5t8.5 -77t1.5 -98.5t-1.5 -98.5t-8.5 -76t-21.5 -61.5t-40.5 -54q-35 -35 -80 -53.5t-104 -18.5q-68 0 -120 26l-30 -64h-82l51 107l-3 3q-26 26 -40.5 53.5t-21.5 61.5t-8.5 76.5t-1.5 98.5t1.5 98.5t8.5 76t21.5 61.5t40.5 54
q35 35 80 53.5t104 18.5q68 0 120 -26l30 64h83zM175 356q0 -40 1 -69.5t3 -52t6.5 -39t10.5 -29.5l207 433q-34 23 -80 23q-64 0 -106 -44q-13 -14 -21.5 -31t-13 -41.5t-6 -60.5t-1.5 -89zM471 356q0 39 -1 69t-3 52.5t-6 39t-10 29.5l-207 -433q34 -23 79 -23q32 0 59 12
t47 33q13 14 21.5 30.5t13 41.5t6 60.5t1.5 88.5zM351 781h-77l75 162h113z" />
    <glyph glyph-name="oslashacute" unicode="&#x1ff;" 
d="M420 453q36 -38 48 -86.5t12 -112.5q0 -65 -12 -113.5t-48 -86.5q-25 -26 -62.5 -43t-89.5 -17q-32 0 -57.5 7t-46.5 18l-37 -63h-69l58 99q-35 38 -47 86.5t-12 112.5t12 112.5t48 86.5q25 26 62 43t89 17q32 0 58 -7t47 -18l37 63h69zM209 103q25 -18 59 -18
q45 0 75 30q23 23 29 60t6 79q0 30 -2.5 58t-12.5 51zM268 422q-45 0 -74 -29q-23 -23 -29 -60t-6 -79q0 -30 2.5 -58t12.5 -51l154 260q-26 17 -60 17zM303 599h-77l75 162h113z" />
    <glyph glyph-name="uni0200" unicode="&#x200;" horiz-adv-x="625" 
d="M617 0h-115l-49 143h-281l-49 -143h-115l261 712h87zM203 235h219l-110 316zM268 943h105l83 -162h-84zM72 943h105l83 -162h-84z" />
    <glyph glyph-name="uni0201" unicode="&#x201;" horiz-adv-x="530" 
d="M245 513q106 0 157.5 -44t51.5 -130v-339h-100v46q-28 -28 -58 -40t-77 -12q-48 0 -80.5 11.5t-55.5 34.5q-40 42 -40 109q0 64 44 105t132 41h133v36q0 49 -25.5 72t-85.5 23q-41 0 -65 -11.5t-46 -38.5l-66 63q18 21 36.5 35t40 23t47 12.5t57.5 3.5zM235 224
q-93 0 -93 -73q0 -35 22.5 -53.5t73.5 -18.5q27 0 49.5 5t42.5 24q22 21 22 75v41h-117zM209 761h106l83 -162h-85zM13 761h106l82 -162h-84z" />
    <glyph glyph-name="uni0202" unicode="&#x202;" horiz-adv-x="625" 
d="M617 0h-115l-49 143h-281l-49 -143h-115l261 712h87zM203 235h219l-110 316zM314 925q71 0 115 -35t49 -110h-72q-2 19 -11.5 32t-22.5 21.5t-28.5 12.5t-29.5 4q-38 0 -63 -17.5t-30 -52.5h-72q5 75 49 110t116 35z" />
    <glyph glyph-name="uni0203" unicode="&#x203;" horiz-adv-x="530" 
d="M245 513q106 0 157.5 -44t51.5 -130v-339h-100v46q-28 -28 -58 -40t-77 -12q-48 0 -80.5 11.5t-55.5 34.5q-40 42 -40 109q0 64 44 105t132 41h133v36q0 49 -25.5 72t-85.5 23q-41 0 -65 -11.5t-46 -38.5l-66 63q18 21 36.5 35t40 23t47 12.5t57.5 3.5zM235 224
q-93 0 -93 -73q0 -35 22.5 -53.5t73.5 -18.5q27 0 49.5 5t42.5 24q22 21 22 75v41h-117zM94 599q5 75 49 110t116 35q71 0 115 -35t49 -110h-72q-2 19 -11.5 32t-22.5 21.5t-28.5 12.5t-29.5 4q-38 0 -63 -17.5t-30 -52.5h-72z" />
    <glyph glyph-name="uni0204" unicode="&#x204;" horiz-adv-x="603" 
d="M548 615h-347v-208h296v-97h-296v-213h347v-97h-455v712h455v-97zM264 943h105l83 -162h-84zM68 943h105l83 -162h-84z" />
    <glyph glyph-name="uni0205" unicode="&#x205;" horiz-adv-x="540" 
d="M156 224q0 -66 33 -104t96 -38q43 0 69.5 12.5t53.5 39.5l65 -61q-20 -20 -39.5 -34.5t-42 -24.5t-49 -15t-59.5 -5q-48 0 -89.5 13.5t-72 44t-48.5 80.5t-18 122q0 125 58.5 192t156.5 67q51 0 91 -17.5t67.5 -50t42 -78t14.5 -100.5v-43h-329zM384 295q-2 23 -4 37.5
t-10 31.5q-13 29 -38.5 46.5t-61.5 17.5q-37 0 -62.5 -17.5t-38.5 -46.5q-8 -17 -10 -31.5t-3 -37.5h228zM219 761h106l83 -162h-85zM23 761h106l82 -162h-84z" />
    <glyph glyph-name="uni0206" unicode="&#x206;" horiz-adv-x="603" 
d="M548 615h-347v-208h296v-97h-296v-213h347v-97h-455v712h455v-97zM310 925q71 0 115 -35t49 -110h-72q-2 19 -11.5 32t-22.5 21.5t-28.5 12.5t-29.5 4q-38 0 -63 -17.5t-30 -52.5h-72q5 75 49 110t116 35z" />
    <glyph glyph-name="uni0207" unicode="&#x207;" horiz-adv-x="540" 
d="M156 224q0 -66 33 -104t96 -38q43 0 69.5 12.5t53.5 39.5l65 -61q-20 -20 -39.5 -34.5t-42 -24.5t-49 -15t-59.5 -5q-48 0 -89.5 13.5t-72 44t-48.5 80.5t-18 122q0 125 58.5 192t156.5 67q51 0 91 -17.5t67.5 -50t42 -78t14.5 -100.5v-43h-329zM384 295q-2 23 -4 37.5
t-10 31.5q-13 29 -38.5 46.5t-61.5 17.5q-37 0 -62.5 -17.5t-38.5 -46.5q-8 -17 -10 -31.5t-3 -37.5h228zM104 599q5 75 49 110t116 35q71 0 115 -35t49 -110h-72q-2 19 -11.5 32t-22.5 21.5t-28.5 12.5t-29.5 4q-38 0 -63 -17.5t-30 -52.5h-72z" />
    <glyph glyph-name="uni0208" unicode="&#x208;" horiz-adv-x="294" 
d="M201 0h-108v712h108v-712zM104 943h105l83 -162h-84zM-92 943h105l83 -162h-84z" />
    <glyph glyph-name="uni0209" unicode="&#x209;" horiz-adv-x="264" 
d="M84 761h106l83 -162h-85zM-112 761h106l82 -162h-84zM183 0h-102v507h102v-507z" />
    <glyph glyph-name="uni020A" unicode="&#x20a;" horiz-adv-x="294" 
d="M201 0h-108v712h108v-712zM150 925q71 0 115 -35t49 -110h-72q-2 19 -11.5 32t-22.5 21.5t-28.5 12.5t-29.5 4q-38 0 -63 -17.5t-30 -52.5h-72q5 75 49 110t116 35z" />
    <glyph glyph-name="uni020B" unicode="&#x20b;" horiz-adv-x="264" 
d="M-31 599q5 75 49 110t116 35q71 0 115 -35t49 -110h-72q-2 19 -11.5 32t-22.5 21.5t-28.5 12.5t-29.5 4q-38 0 -63 -17.5t-30 -52.5h-72zM183 0h-102v507h102v-507z" />
    <glyph glyph-name="uni020C" unicode="&#x20c;" horiz-adv-x="646" 
d="M323 718q59 0 104 -18.5t80 -53.5q26 -26 40.5 -54t21.5 -61.5t8.5 -76t1.5 -98.5t-1.5 -98.5t-8.5 -76t-21.5 -61.5t-40.5 -54q-35 -35 -80 -53.5t-104 -18.5t-104 18.5t-80 53.5q-26 26 -40.5 54t-21.5 61.5t-8.5 76t-1.5 98.5t1.5 98.5t8.5 76t21.5 61.5t40.5 54
q35 35 80 53.5t104 18.5zM323 621q-65 0 -106 -43q-13 -14 -21.5 -31t-13 -41.5t-6 -60.5t-1.5 -89t1.5 -88.5t6 -60.5t13 -41.5t21.5 -30.5q42 -44 106 -44t106 44q13 14 21.5 30.5t13 41t6 60.5t1.5 89t-1.5 89t-6 61t-13 41.5t-21.5 30.5q-41 43 -106 43zM278 943h105
l83 -162h-84zM82 943h105l83 -162h-84z" />
    <glyph glyph-name="uni020D" unicode="&#x20d;" 
d="M268 513q52 0 89.5 -17t62.5 -43q36 -38 48 -86.5t12 -112.5q0 -65 -12 -113.5t-48 -86.5q-25 -26 -62.5 -43t-89.5 -17t-89 17t-62 43q-36 38 -48 86.5t-12 113.5q0 64 12 112.5t48 86.5q25 26 62 43t89 17zM268 422q-45 0 -74 -29q-23 -23 -29 -60t-6 -79t6 -79t29 -60
q30 -30 74 -30q45 0 75 30q23 23 29 60t6 79t-6 79t-29 60q-29 29 -75 29zM219 761h106l83 -162h-85zM23 761h106l82 -162h-84z" />
    <glyph glyph-name="uni020E" unicode="&#x20e;" horiz-adv-x="646" 
d="M323 718q59 0 104 -18.5t80 -53.5q26 -26 40.5 -54t21.5 -61.5t8.5 -76t1.5 -98.5t-1.5 -98.5t-8.5 -76t-21.5 -61.5t-40.5 -54q-35 -35 -80 -53.5t-104 -18.5t-104 18.5t-80 53.5q-26 26 -40.5 54t-21.5 61.5t-8.5 76t-1.5 98.5t1.5 98.5t8.5 76t21.5 61.5t40.5 54
q35 35 80 53.5t104 18.5zM323 621q-65 0 -106 -43q-13 -14 -21.5 -31t-13 -41.5t-6 -60.5t-1.5 -89t1.5 -88.5t6 -60.5t13 -41.5t21.5 -30.5q42 -44 106 -44t106 44q13 14 21.5 30.5t13 41t6 60.5t1.5 89t-1.5 89t-6 61t-13 41.5t-21.5 30.5q-41 43 -106 43zM324 925
q71 0 115 -35t49 -110h-72q-2 19 -11.5 32t-22.5 21.5t-28.5 12.5t-29.5 4q-38 0 -63 -17.5t-30 -52.5h-72q5 75 49 110t116 35z" />
    <glyph glyph-name="uni020F" unicode="&#x20f;" 
d="M268 513q52 0 89.5 -17t62.5 -43q36 -38 48 -86.5t12 -112.5q0 -65 -12 -113.5t-48 -86.5q-25 -26 -62.5 -43t-89.5 -17t-89 17t-62 43q-36 38 -48 86.5t-12 113.5q0 64 12 112.5t48 86.5q25 26 62 43t89 17zM268 422q-45 0 -74 -29q-23 -23 -29 -60t-6 -79t6 -79t29 -60
q30 -30 74 -30q45 0 75 30q23 23 29 60t6 79t-6 79t-29 60q-29 29 -75 29zM104 599q5 75 49 110t116 35q71 0 115 -35t49 -110h-72q-2 19 -11.5 32t-22.5 21.5t-28.5 12.5t-29.5 4q-38 0 -63 -17.5t-30 -52.5h-72z" />
    <glyph glyph-name="uni0210" unicode="&#x210;" horiz-adv-x="655" 
d="M369 712q51 0 91.5 -15.5t69.5 -43t44.5 -66t15.5 -83.5q0 -77 -41 -124.5t-101 -64.5l164 -315h-126l-150 300h-135v-300h-108v712h276zM201 615v-223h160q54 0 87.5 29t33.5 82t-33.5 82.5t-87.5 29.5h-160zM282 943h105l83 -162h-84zM86 943h105l83 -162h-84z" />
    <glyph glyph-name="uni0211" unicode="&#x211;" horiz-adv-x="439" 
d="M316 513q37 0 66 -11t55 -37l-77 -77q-17 17 -33.5 25.5t-42.5 8.5q-42 0 -71.5 -30.5t-29.5 -83.5v-308h-102v507h100v-55q20 27 56 44t79 17zM173 761h106l83 -162h-85zM-23 761h106l82 -162h-84z" />
    <glyph glyph-name="uni0212" unicode="&#x212;" horiz-adv-x="655" 
d="M369 712q51 0 91.5 -15.5t69.5 -43t44.5 -66t15.5 -83.5q0 -77 -41 -124.5t-101 -64.5l164 -315h-126l-150 300h-135v-300h-108v712h276zM201 615v-223h160q54 0 87.5 29t33.5 82t-33.5 82.5t-87.5 29.5h-160zM328 925q71 0 115 -35t49 -110h-72q-2 19 -11.5 32
t-22.5 21.5t-28.5 12.5t-29.5 4q-38 0 -63 -17.5t-30 -52.5h-72q5 75 49 110t116 35z" />
    <glyph glyph-name="uni0213" unicode="&#x213;" horiz-adv-x="439" 
d="M316 513q37 0 66 -11t55 -37l-77 -77q-17 17 -33.5 25.5t-42.5 8.5q-42 0 -71.5 -30.5t-29.5 -83.5v-308h-102v507h100v-55q20 27 56 44t79 17zM58 599q5 75 49 110t116 35q71 0 115 -35t49 -110h-72q-2 19 -11.5 32t-22.5 21.5t-28.5 12.5t-29.5 4q-38 0 -63 -17.5
t-30 -52.5h-72z" />
    <glyph glyph-name="uni0214" unicode="&#x214;" horiz-adv-x="675" 
d="M593 240q0 -55 -19.5 -100.5t-54 -77.5t-81.5 -50t-101 -18t-101 18t-81 50t-53.5 77.5t-19.5 100.5v472h108v-467q0 -72 40 -113t107 -41t107.5 41t40.5 113v467h108v-472zM293 943h105l83 -162h-84zM97 943h105l83 -162h-84z" />
    <glyph glyph-name="uni0215" unicode="&#x215;" horiz-adv-x="568" 
d="M487 0h-100v51q-26 -29 -61.5 -43t-73.5 -14q-39 0 -70.5 12t-54.5 34q-29 29 -40 64.5t-11 78.5v324h102v-309q0 -59 29.5 -86t72.5 -27q21 0 40.5 6.5t33.5 20.5t22.5 35.5t8.5 50.5v309h102v-507zM231 761h106l83 -162h-85zM35 761h106l82 -162h-84z" />
    <glyph glyph-name="uni0216" unicode="&#x216;" horiz-adv-x="675" 
d="M593 240q0 -55 -19.5 -100.5t-54 -77.5t-81.5 -50t-101 -18t-101 18t-81 50t-53.5 77.5t-19.5 100.5v472h108v-467q0 -72 40 -113t107 -41t107.5 41t40.5 113v467h108v-472zM339 925q71 0 115 -35t49 -110h-72q-2 19 -11.5 32t-22.5 21.5t-28.5 12.5t-29.5 4
q-38 0 -63 -17.5t-30 -52.5h-72q5 75 49 110t116 35z" />
    <glyph glyph-name="uni0217" unicode="&#x217;" horiz-adv-x="568" 
d="M487 0h-100v51q-26 -29 -61.5 -43t-73.5 -14q-39 0 -70.5 12t-54.5 34q-29 29 -40 64.5t-11 78.5v324h102v-309q0 -59 29.5 -86t72.5 -27q21 0 40.5 6.5t33.5 20.5t22.5 35.5t8.5 50.5v309h102v-507zM116 599q5 75 49 110t116 35q71 0 115 -35t49 -110h-72
q-2 19 -11.5 32t-22.5 21.5t-28.5 12.5t-29.5 4q-38 0 -63 -17.5t-30 -52.5h-72z" />
    <glyph glyph-name="uni0218" unicode="&#x218;" horiz-adv-x="590" 
d="M292 718q72 0 123.5 -19t97.5 -62l-68 -68q-33 32 -72 43.5t-85 11.5q-63 0 -96 -31t-33 -80q0 -20 6 -37t20 -29t31.5 -19.5t46.5 -12.5l85 -13q49 -8 79 -20t53 -33q58 -53 58 -146q0 -49 -19 -88t-53 -66t-81 -41t-103 -14q-81 0 -140.5 21t-111.5 73l71 71
q39 -39 84 -54t99 -15q71 0 109 28.5t38 81.5q0 50 -28 74q-26 23 -78 30l-84 12q-89 14 -134 57q-53 48 -53 137q0 46 16.5 84.5t47 66t74.5 42.5t100 15zM264 -64h80l-51 -146h-98z" />
    <glyph glyph-name="uni0219" unicode="&#x219;" horiz-adv-x="499" 
d="M248 513q58 0 105.5 -13t82.5 -44l-64 -65q-24 20 -56.5 28.5t-68.5 8.5q-47 0 -69.5 -18t-22.5 -47q0 -26 16 -40t54 -18l71 -6q79 -7 119.5 -42t40.5 -102q0 -40 -16 -70t-44 -50.5t-67 -30.5t-84 -10q-62 0 -115 14.5t-98 58.5l67 67q31 -32 69.5 -42.5t76.5 -10.5
q48 0 79.5 17t31.5 53q0 26 -15.5 41t-52.5 19l-81 7q-72 7 -111 40t-39 100q0 37 15 66t41 49t60.5 30t74.5 10zM244 -210h-101l70 147h82z" />
    <glyph glyph-name="uni021A" unicode="&#x21a;" horiz-adv-x="560" 
d="M530 615h-196v-615h-108v615h-196v97h500v-97zM250 -64h80l-51 -146h-98z" />
    <glyph glyph-name="uni021B" unicode="&#x21b;" horiz-adv-x="342" 
d="M195 507h98v-78h-98v-283q0 -59 56 -59h42v-87h-61q-36 0 -62 11.5t-43 31t-25.5 45t-8.5 53.5v288h-58v78h58v145h102v-145zM135 -63h82l-51 -147h-101z" />
    <glyph glyph-name="uni0226" unicode="&#x226;" horiz-adv-x="625" 
d="M617 0h-115l-49 143h-281l-49 -143h-115l261 712h87zM203 235h219l-110 316zM267 894h92v-108h-92v108z" />
    <glyph glyph-name="uni0227" unicode="&#x227;" horiz-adv-x="530" 
d="M245 513q106 0 157.5 -44t51.5 -130v-339h-100v46q-28 -28 -58 -40t-77 -12q-48 0 -80.5 11.5t-55.5 34.5q-40 42 -40 109q0 64 44 105t132 41h133v36q0 49 -25.5 72t-85.5 23q-41 0 -65 -11.5t-46 -38.5l-66 63q18 21 36.5 35t40 23t47 12.5t57.5 3.5zM235 224
q-93 0 -93 -73q0 -35 22.5 -53.5t73.5 -18.5q27 0 49.5 5t42.5 24q22 21 22 75v41h-117zM304 604h-92v108h92v-108z" />
    <glyph glyph-name="uni0228" unicode="&#x228;" horiz-adv-x="603" 
d="M548 615h-347v-208h296v-97h-296v-213h347v-97h-455v712h455v-97zM306 -209h-101l70 147h82z" />
    <glyph glyph-name="uni0229" unicode="&#x229;" horiz-adv-x="540" 
d="M156 224q0 -66 33 -104t96 -38q43 0 69.5 12.5t53.5 39.5l65 -61q-20 -20 -39.5 -34.5t-42 -24.5t-49 -15t-59.5 -5q-48 0 -89.5 13.5t-72 44t-48.5 80.5t-18 122q0 125 58.5 192t156.5 67q51 0 91 -17.5t67.5 -50t42 -78t14.5 -100.5v-43h-329zM384 295q-2 23 -4 37.5
t-10 31.5q-13 29 -38.5 46.5t-61.5 17.5q-37 0 -62.5 -17.5t-38.5 -46.5q-8 -17 -10 -31.5t-3 -37.5h228zM233 -63h82l-51 -147h-101z" />
    <glyph glyph-name="uni022A" unicode="&#x22a;" horiz-adv-x="646" 
d="M478 965h-309v73h309v-73zM323 718q59 0 104 -18.5t80 -53.5q26 -26 40.5 -54t21.5 -61.5t8.5 -76t1.5 -98.5t-1.5 -98.5t-8.5 -76t-21.5 -61.5t-40.5 -54q-35 -35 -80 -53.5t-104 -18.5t-104 18.5t-80 53.5q-26 26 -40.5 54t-21.5 61.5t-8.5 76t-1.5 98.5t1.5 98.5
t8.5 76t21.5 61.5t40.5 54q35 35 80 53.5t104 18.5zM323 621q-65 0 -106 -43q-13 -14 -21.5 -31t-13 -41.5t-6 -60.5t-1.5 -89t1.5 -88.5t6 -60.5t13 -41.5t21.5 -30.5q42 -44 106 -44t106 44q13 14 21.5 30.5t13 41t6 60.5t1.5 89t-1.5 89t-6 61t-13 41.5t-21.5 30.5
q-41 43 -106 43zM477 786h-92v108h92v-108zM261 786h-92v108h92v-108z" />
    <glyph glyph-name="uni022B" unicode="&#x22b;" 
d="M423 796h-309v73h309v-73zM268 513q52 0 89.5 -17t62.5 -43q36 -38 48 -86.5t12 -112.5q0 -65 -12 -113.5t-48 -86.5q-25 -26 -62.5 -43t-89.5 -17t-89 17t-62 43q-36 38 -48 86.5t-12 113.5q0 64 12 112.5t48 86.5q25 26 62 43t89 17zM268 422q-45 0 -74 -29
q-23 -23 -29 -60t-6 -79t6 -79t29 -60q30 -30 74 -30q45 0 75 30q23 23 29 60t6 79t-6 79t-29 60q-29 29 -75 29zM423 604h-92v108h92v-108zM207 604h-92v108h92v-108z" />
    <glyph glyph-name="uni022C" unicode="&#x22c;" horiz-adv-x="646" 
d="M478 973h-309v73h309v-73zM323 718q59 0 104 -18.5t80 -53.5q26 -26 40.5 -54t21.5 -61.5t8.5 -76t1.5 -98.5t-1.5 -98.5t-8.5 -76t-21.5 -61.5t-40.5 -54q-35 -35 -80 -53.5t-104 -18.5t-104 18.5t-80 53.5q-26 26 -40.5 54t-21.5 61.5t-8.5 76t-1.5 98.5t1.5 98.5
t8.5 76t21.5 61.5t40.5 54q35 35 80 53.5t104 18.5zM323 621q-65 0 -106 -43q-13 -14 -21.5 -31t-13 -41.5t-6 -60.5t-1.5 -89t1.5 -88.5t6 -60.5t13 -41.5t21.5 -30.5q42 -44 106 -44t106 44q13 14 21.5 30.5t13 41t6 60.5t1.5 89t-1.5 89t-6 61t-13 41.5t-21.5 30.5
q-41 43 -106 43zM257 905q22 0 38.5 -6t36.5 -18q15 -9 27.5 -14t27.5 -5q12 0 25.5 5.5t33.5 25.5l48 -47q-34 -34 -57.5 -44.5t-46.5 -10.5q-22 0 -38.5 6t-36.5 17q-14 8 -27.5 13.5t-28.5 5.5q-13 0 -25 -4.5t-33 -25.5l-48 47q34 34 57 44.5t47 10.5z" />
    <glyph glyph-name="uni022D" unicode="&#x22d;" 
d="M423 796h-309v73h309v-73zM268 513q52 0 89.5 -17t62.5 -43q36 -38 48 -86.5t12 -112.5q0 -65 -12 -113.5t-48 -86.5q-25 -26 -62.5 -43t-89.5 -17t-89 17t-62 43q-36 38 -48 86.5t-12 113.5q0 64 12 112.5t48 86.5q25 26 62 43t89 17zM268 422q-45 0 -74 -29
q-23 -23 -29 -60t-6 -79t6 -79t29 -60q30 -30 74 -30q45 0 75 30q23 23 29 60t6 79t-6 79t-29 60q-29 29 -75 29zM202 723q22 0 38.5 -6t36.5 -18q15 -9 27.5 -14t27.5 -5q12 0 25.5 5.5t33.5 25.5l48 -47q-34 -34 -57.5 -44.5t-46.5 -10.5q-22 0 -38.5 6t-36.5 17
q-14 8 -27.5 13.5t-28.5 5.5q-13 0 -25 -4.5t-33 -25.5l-48 47q34 34 57 44.5t47 10.5z" />
    <glyph glyph-name="uni022E" unicode="&#x22e;" horiz-adv-x="646" 
d="M323 718q59 0 104 -18.5t80 -53.5q26 -26 40.5 -54t21.5 -61.5t8.5 -76t1.5 -98.5t-1.5 -98.5t-8.5 -76t-21.5 -61.5t-40.5 -54q-35 -35 -80 -53.5t-104 -18.5t-104 18.5t-80 53.5q-26 26 -40.5 54t-21.5 61.5t-8.5 76t-1.5 98.5t1.5 98.5t8.5 76t21.5 61.5t40.5 54
q35 35 80 53.5t104 18.5zM323 621q-65 0 -106 -43q-13 -14 -21.5 -31t-13 -41.5t-6 -60.5t-1.5 -89t1.5 -88.5t6 -60.5t13 -41.5t21.5 -30.5q42 -44 106 -44t106 44q13 14 21.5 30.5t13 41t6 60.5t1.5 89t-1.5 89t-6 61t-13 41.5t-21.5 30.5q-41 43 -106 43zM277 894h92
v-108h-92v108z" />
    <glyph glyph-name="uni022F" unicode="&#x22f;" 
d="M268 513q52 0 89.5 -17t62.5 -43q36 -38 48 -86.5t12 -112.5q0 -65 -12 -113.5t-48 -86.5q-25 -26 -62.5 -43t-89.5 -17t-89 17t-62 43q-36 38 -48 86.5t-12 113.5q0 64 12 112.5t48 86.5q25 26 62 43t89 17zM268 422q-45 0 -74 -29q-23 -23 -29 -60t-6 -79t6 -79t29 -60
q30 -30 74 -30q45 0 75 30q23 23 29 60t6 79t-6 79t-29 60q-29 29 -75 29zM314 604h-92v108h92v-108z" />
    <glyph glyph-name="uni0230" unicode="&#x230;" horiz-adv-x="646" 
d="M478 973h-309v73h309v-73zM323 718q59 0 104 -18.5t80 -53.5q26 -26 40.5 -54t21.5 -61.5t8.5 -76t1.5 -98.5t-1.5 -98.5t-8.5 -76t-21.5 -61.5t-40.5 -54q-35 -35 -80 -53.5t-104 -18.5t-104 18.5t-80 53.5q-26 26 -40.5 54t-21.5 61.5t-8.5 76t-1.5 98.5t1.5 98.5
t8.5 76t21.5 61.5t40.5 54q35 35 80 53.5t104 18.5zM323 621q-65 0 -106 -43q-13 -14 -21.5 -31t-13 -41.5t-6 -60.5t-1.5 -89t1.5 -88.5t6 -60.5t13 -41.5t21.5 -30.5q42 -44 106 -44t106 44q13 14 21.5 30.5t13 41t6 60.5t1.5 89t-1.5 89t-6 61t-13 41.5t-21.5 30.5
q-41 43 -106 43zM277 894h92v-108h-92v108z" />
    <glyph glyph-name="uni0231" unicode="&#x231;" 
d="M423 796h-309v73h309v-73zM268 513q52 0 89.5 -17t62.5 -43q36 -38 48 -86.5t12 -112.5q0 -65 -12 -113.5t-48 -86.5q-25 -26 -62.5 -43t-89.5 -17t-89 17t-62 43q-36 38 -48 86.5t-12 113.5q0 64 12 112.5t48 86.5q25 26 62 43t89 17zM268 422q-45 0 -74 -29
q-23 -23 -29 -60t-6 -79t6 -79t29 -60q30 -30 74 -30q45 0 75 30q23 23 29 60t6 79t-6 79t-29 60q-29 29 -75 29zM314 604h-92v108h92v-108z" />
    <glyph glyph-name="uni0232" unicode="&#x232;" horiz-adv-x="544" 
d="M326 293v-293h-108v293l-213 419h118l149 -313l149 313h118zM428 795h-309v73h309v-73z" />
    <glyph glyph-name="uni0233" unicode="&#x233;" horiz-adv-x="472" 
d="M239 -105q-14 -40 -37 -63q-21 -21 -48 -29t-56 -8h-41v92h26q32 0 47 11.5t26 42.5l29 83l-177 483h108l121 -357l118 357h109zM392 618h-309v73h309v-73z" />
    <glyph glyph-name="uni0237" unicode="&#x237;" horiz-adv-x="264" 
d="M183 -65q0 -28 -8 -53.5t-25 -44.5t-43.5 -30.5t-62.5 -11.5h-63v87h45q31 0 43 15t12 44v566h102v-572z" />
    <glyph glyph-name="uni0259" unicode="&#x259;" horiz-adv-x="540" 
d="M270 -6q-51 0 -91 17.5t-67.5 50t-42 77.5t-14.5 101v43h329q0 66 -33 104t-96 38q-43 0 -69.5 -12.5t-53.5 -39.5l-65 61q19 19 39 34t42.5 25t49 15t59.5 5q48 0 89.5 -13.5t72 -44t48.5 -80.5t18 -122q0 -125 -58.5 -192t-156.5 -67zM270 79q37 0 62.5 17.5t38.5 46.5
q8 17 10 31.5t3 37.5h-228q2 -23 4 -37.5t10 -31.5q13 -29 38.5 -46.5t61.5 -17.5z" />
    <glyph glyph-name="uni02BB" unicode="&#x2bb;" horiz-adv-x="268" 
d="M190 600h-112v112l112 92v-204z" />
    <glyph glyph-name="uni02BC" unicode="&#x2bc;" horiz-adv-x="268" 
d="M190 600l-112 -92v204h112v-112z" />
    <glyph glyph-name="uni02C0" unicode="&#x2c0;" 
d="M234 782q49 0 78.5 -28.5t29.5 -70.5t-29.5 -70t-78.5 -28v54q20 0 33 13t13 31t-13 31t-33 13v55z" />
    <glyph glyph-name="circumflex" unicode="&#x2c6;" 
d="M441 599h-85l-87 97l-87 -97h-85l129 161h86z" />
    <glyph glyph-name="caron" unicode="&#x2c7;" 
d="M312 599h-86l-129 161h85l87 -97l87 97h85z" />
    <glyph glyph-name="breve" unicode="&#x2d8;" 
d="M433 738q-5 -75 -49 -110t-115 -35q-72 0 -116 35t-49 110h72q5 -35 30 -52.5t63 -17.5q14 0 29.5 4t28.5 12.5t22.5 21.5t11.5 32h72z" />
    <glyph glyph-name="dotaccent" unicode="&#x2d9;" 
d="M314 604h-92v108h92v-108z" />
    <glyph glyph-name="ring" unicode="&#x2da;" 
d="M269 826q26 0 48.5 -10t39.5 -27t27 -39.5t10 -48.5t-10 -48.5t-27 -39.5t-39.5 -27t-48.5 -10t-48.5 10t-39.5 27t-27 39.5t-10 48.5t10 48.5t27 39.5t39.5 27t48.5 10zM269 764q-26 0 -45 -18.5t-19 -44.5t19 -44.5t45 -18.5t45 18.5t19 44.5t-19 44.5t-45 18.5z" />
    <glyph glyph-name="ogonek" unicode="&#x2db;" 
d="M233 -64h80l-51 -146h-98z" />
    <glyph glyph-name="tilde" unicode="&#x2dc;" 
d="M202 723q22 0 38.5 -6t36.5 -18q15 -9 27.5 -14t27.5 -5q12 0 25.5 5.5t33.5 25.5l48 -47q-34 -34 -57.5 -44.5t-46.5 -10.5q-22 0 -38.5 6t-36.5 17q-14 8 -27.5 13.5t-28.5 5.5q-13 0 -25 -4.5t-33 -25.5l-48 47q34 34 57 44.5t47 10.5z" />
    <glyph glyph-name="hungarumlaut" unicode="&#x2dd;" 
d="M396 761h106l-105 -162h-84zM199 761h106l-104 -162h-84z" />
    <glyph glyph-name="gravecomb" unicode="&#x300;" horiz-adv-x="1" 
d="M96 599h-77l-111 162h113z" />
    <glyph glyph-name="acutecomb" unicode="&#x301;" horiz-adv-x="1" 
d="M-15 599h-77l75 162h113z" />
    <glyph glyph-name="uni0302" unicode="&#x302;" horiz-adv-x="1" 
d="M174 599h-85l-87 97l-87 -97h-85l129 161h86z" />
    <glyph glyph-name="tildecomb" unicode="&#x303;" horiz-adv-x="1" 
d="M-65 723q22 0 38.5 -6t36.5 -18q15 -9 27.5 -14t27.5 -5q12 0 25.5 5.5t33.5 25.5l48 -47q-34 -34 -57.5 -44.5t-46.5 -10.5q-22 0 -38.5 6t-36.5 17q-14 8 -27.5 13.5t-28.5 5.5q-13 0 -25 -4.5t-33 -25.5l-48 47q34 34 57 44.5t47 10.5z" />
    <glyph glyph-name="uni0304" unicode="&#x304;" horiz-adv-x="1" 
d="M156 618h-309v73h309v-73z" />
    <glyph glyph-name="uni0306" unicode="&#x306;" horiz-adv-x="1" 
d="M166 738q-5 -75 -49 -110t-115 -35q-72 0 -116 35t-49 110h72q5 -35 30 -52.5t63 -17.5q14 0 29.5 4t28.5 12.5t22.5 21.5t11.5 32h72z" />
    <glyph glyph-name="uni0307" unicode="&#x307;" horiz-adv-x="1" 
d="M48 604h-92v108h92v-108z" />
    <glyph glyph-name="uni0308" unicode="&#x308;" horiz-adv-x="1" 
d="M156 604h-92v108h92v-108zM-60 604h-92v108h92v-108z" />
    <glyph glyph-name="hookabovecomb" unicode="&#x309;" horiz-adv-x="1" 
d="M-52 782q49 0 78.5 -28.5t29.5 -70.5t-29.5 -70t-78.5 -28v54q20 0 33 13t13 31t-13 31t-33 13v55z" />
    <glyph glyph-name="uni030A" unicode="&#x30a;" horiz-adv-x="1" 
d="M2 826q26 0 48.5 -10t39.5 -27t27 -39.5t10 -48.5t-10 -48.5t-27 -39.5t-39.5 -27t-48.5 -10t-48.5 10t-39.5 27t-27 39.5t-10 48.5t10 48.5t27 39.5t39.5 27t48.5 10zM2 764q-26 0 -45 -18.5t-19 -44.5t19 -44.5t45 -18.5t45 18.5t19 44.5t-19 44.5t-45 18.5z" />
    <glyph glyph-name="uni030B" unicode="&#x30b;" horiz-adv-x="1" 
d="M88 761h106l-105 -162h-84zM-109 761h106l-104 -162h-84z" />
    <glyph glyph-name="uni030C" unicode="&#x30c;" horiz-adv-x="1" 
d="M45 599h-86l-129 161h85l87 -97l87 97h85z" />
    <glyph glyph-name="uni030F" unicode="&#x30f;" horiz-adv-x="1" 
d="M5 761h106l83 -162h-85zM-191 761h106l82 -162h-84z" />
    <glyph glyph-name="uni0310" unicode="&#x310;" horiz-adv-x="1" 
d="M165 738q-5 -75 -49 -110t-115 -35q-72 0 -116 35t-49 110h72q5 -35 30 -52.5t63 -17.5q14 0 29.5 4t28.5 12.5t22.5 21.5t11.5 32h72zM47 764h-92v108h92v-108z" />
    <glyph glyph-name="uni0311" unicode="&#x311;" horiz-adv-x="1" 
d="M-163 599q5 75 49 110t116 35q71 0 115 -35t49 -110h-72q-2 19 -11.5 32t-22.5 21.5t-28.5 12.5t-29.5 4q-38 0 -63 -17.5t-30 -52.5h-72z" />
    <glyph glyph-name="uni0312" unicode="&#x312;" horiz-adv-x="1" 
d="M7 599h-82l51 147h101z" />
    <glyph glyph-name="uni0313" unicode="&#x313;" horiz-adv-x="1" 
d="M10 571h-75l37 159h94z" />
    <glyph glyph-name="uni0316" unicode="&#x316;" horiz-adv-x="1" 
d="M95 -224h-77l-111 162h113z" />
    <glyph glyph-name="uni0317" unicode="&#x317;" horiz-adv-x="1" 
d="M-16 -224h-77l75 162h113z" />
    <glyph glyph-name="uni031B" unicode="&#x31b;" horiz-adv-x="1" 
d="M73 478q0 -62 -27 -89.5t-95 -27.5h-23v62h27q24 0 35 14.5t11 50.5v52h72v-62z" />
    <glyph glyph-name="uni031C" unicode="&#x31c;" horiz-adv-x="1" 
d="M55 -89q-20 0 -33 -13t-13 -31t13 -31t33 -13v-55q-49 0 -78.5 28.5t-29.5 70.5t29.5 70.5t78.5 28.5v-55z" />
    <glyph glyph-name="dotbelowcomb" unicode="&#x323;" horiz-adv-x="1" 
d="M48 -184h-92v108h92v-108z" />
    <glyph glyph-name="uni0324" unicode="&#x324;" horiz-adv-x="1" 
d="M156 -182h-92v108h92v-108zM-60 -182h-92v108h92v-108z" />
    <glyph glyph-name="uni0325" unicode="&#x325;" horiz-adv-x="1" 
d="M2 -35q26 0 48.5 -10t39.5 -27t27 -39.5t10 -48.5t-10 -48.5t-27 -39.5t-39.5 -27t-48.5 -10t-48.5 10t-39.5 27t-27 39.5t-10 48.5t10 48.5t27 39.5t39.5 27t48.5 10zM2 -97q-26 0 -45 -18.5t-19 -44.5t19 -44.5t45 -18.5t45 18.5t19 44.5t-19 44.5t-45 18.5z" />
    <glyph glyph-name="uni0326" unicode="&#x326;" horiz-adv-x="1" 
d="M27 -210h-101l70 147h82z" />
    <glyph glyph-name="uni0327" unicode="&#x327;" horiz-adv-x="1" 
d="M-4 -63h82l-51 -147h-101z" />
    <glyph glyph-name="uni0328" unicode="&#x328;" horiz-adv-x="1" 
d="M-4 -64h80l-51 -146h-98z" />
    <glyph glyph-name="uni032C" unicode="&#x32c;" horiz-adv-x="1" 
d="M44 -223h-86l-129 161h85l87 -97l87 97h85z" />
    <glyph glyph-name="uni032D" unicode="&#x32d;" horiz-adv-x="1" 
d="M174 -224h-85l-87 97l-87 -97h-85l129 161h86z" />
    <glyph glyph-name="uni032E" unicode="&#x32e;" horiz-adv-x="1" 
d="M167 -61q-5 -75 -49.5 -110t-115.5 -35t-115.5 35t-49.5 110h72q5 -35 30.5 -53t62.5 -18t62.5 18t30.5 53h72z" />
    <glyph glyph-name="uni032F" unicode="&#x32f;" horiz-adv-x="1" 
d="M-164 -201q5 75 49 110t116 35q71 0 115 -35t49 -110h-72q-2 19 -11.5 32t-22.5 21.5t-28.5 12.5t-29.5 4q-38 0 -63 -17.5t-30 -52.5h-72z" />
    <glyph glyph-name="uni0330" unicode="&#x330;" horiz-adv-x="1" 
d="M-65 -72q22 0 38.5 -6t36.5 -18q15 -9 27.5 -14t27.5 -5q12 0 25.5 5.5t33.5 25.5l48 -47q-34 -34 -57.5 -44.5t-46.5 -10.5q-22 0 -38.5 6t-36.5 17q-14 8 -27.5 13.5t-28.5 5.5q-13 0 -25 -4.5t-33 -25.5l-48 47q34 34 57 44.5t47 10.5z" />
    <glyph glyph-name="uni0331" unicode="&#x331;" horiz-adv-x="1" 
d="M156 -157h-309v73h309v-73z" />
    <glyph glyph-name="uni0340" unicode="&#x340;" horiz-adv-x="1" 
d="M107 673h-85l-128 162h106z" />
    <glyph glyph-name="uni0341" unicode="&#x341;" horiz-adv-x="1" 
d="M-16 674h-77l75 162h113z" />
    <glyph glyph-name="uni037E" unicode="&#x37e;" horiz-adv-x="303" 
d="M222 -60l-116 -95v271h116v-176zM225 285h-121v122h121v-122z" />
    <glyph glyph-name="tonos" unicode="&#x384;" 
d="M315 606l-92 -43v149h92v-106z" />
    <glyph glyph-name="dieresistonos" unicode="&#x385;" 
d="M317 641l-92 -42v148h92v-106zM176 604h-92v108h92v-108zM453 604h-92v108h92v-108z" />
    <glyph glyph-name="Alphatonos" unicode="&#x386;" horiz-adv-x="625" 
d="M617 0h-115l-49 143h-281l-49 -143h-115l261 712h87zM203 235h219l-110 316zM94 605l-92 -42v149h92v-107z" />
    <glyph glyph-name="anoteleia" unicode="&#x387;" horiz-adv-x="278" 
d="M200 217h-122v122h122v-122z" />
    <glyph glyph-name="Epsilontonos" unicode="&#x388;" horiz-adv-x="603" 
d="M548 615h-347v-208h296v-97h-296v-213h347v-97h-455v712h455v-97zM14 605l-92 -42v149h92v-107z" />
    <glyph glyph-name="Etatonos" unicode="&#x389;" horiz-adv-x="691" 
d="M598 0h-108v311h-289v-311h-108v712h108v-304h289v304h108v-712zM14 605l-92 -42v149h92v-107z" />
    <glyph glyph-name="Iotatonos" unicode="&#x38a;" horiz-adv-x="294" 
d="M201 0h-108v712h108v-712zM14 605l-92 -42v149h92v-107z" />
    <glyph glyph-name="Omicrontonos" unicode="&#x38c;" horiz-adv-x="646" 
d="M323 718q59 0 104 -18.5t80 -53.5q26 -26 40.5 -54t21.5 -61.5t8.5 -76t1.5 -98.5t-1.5 -98.5t-8.5 -76t-21.5 -61.5t-40.5 -54q-35 -35 -80 -53.5t-104 -18.5t-104 18.5t-80 53.5q-26 26 -40.5 54t-21.5 61.5t-8.5 76t-1.5 98.5t1.5 98.5t8.5 76t21.5 61.5t40.5 54
q35 35 80 53.5t104 18.5zM323 621q-65 0 -106 -43q-13 -14 -21.5 -31t-13 -41.5t-6 -60.5t-1.5 -89t1.5 -88.5t6 -60.5t13 -41.5t21.5 -30.5q42 -44 106 -44t106 44q13 14 21.5 30.5t13 41t6 60.5t1.5 89t-1.5 89t-6 61t-13 41.5t-21.5 30.5q-41 43 -106 43zM35 605l-92 -42
v149h92v-107z" />
    <glyph glyph-name="Upsilontonos" unicode="&#x38e;" horiz-adv-x="544" 
d="M326 293v-293h-108v293l-213 419h118l149 -313l149 313h118zM-16 605l-92 -42v149h92v-107z" />
    <glyph glyph-name="Omegatonos" unicode="&#x38f;" horiz-adv-x="646" 
d="M67 96h70q-30 29 -45 60q-17 37 -21 85.5t-4 114.5q0 56 1.5 98.5t8.5 76t21.5 61.5t40.5 54q35 35 80 53.5t104 18.5t104 -18.5t80 -53.5q26 -26 40.5 -54t21.5 -61.5t8.5 -76t1.5 -98.5q0 -66 -4 -114.5t-21 -85.5q-8 -16 -18 -30.5t-27 -29.5h70v-96h-207v87
q24 12 41.5 25.5t31.5 34.5q8 12 13 29t8 41.5t4 58.5t1 80q0 53 -1.5 89t-6 60.5t-13 41.5t-21.5 31q-40 43 -106 43t-106 -43q-13 -14 -21.5 -31t-13 -41.5t-6 -60.5t-1.5 -89q0 -46 1.5 -80t4.5 -58.5t8 -41.5t13 -29q13 -21 30.5 -34.5t41.5 -25.5v-87h-207v96zM34 605
l-92 -42v149h92v-107z" />
    <glyph glyph-name="iotadieresistonos" unicode="&#x390;" horiz-adv-x="311" 
d="M180 146q0 -29 12 -44t43 -15h45v-87h-63q-36 0 -62.5 11.5t-43.5 30.5t-25 44.5t-8 53.5v367h102v-361zM179 641l-92 -42v148h92v-106zM38 604h-92v108h92v-108zM315 604h-92v108h92v-108z" />
    <glyph glyph-name="Alpha" unicode="&#x391;" horiz-adv-x="625" 
d="M617 0h-115l-49 143h-281l-49 -143h-115l261 712h87zM203 235h219l-110 316z" />
    <glyph glyph-name="Beta" unicode="&#x392;" horiz-adv-x="663" 
d="M370 712q100 0 157.5 -52t57.5 -143q0 -29 -8.5 -53.5t-22 -44t-30.5 -33t-35 -20.5q21 -8 40 -22.5t34 -34.5t24 -47t9 -61q0 -49 -16 -86.5t-44.5 -63t-68 -38.5t-86.5 -13h-288v712h277zM201 314v-217h170q57 0 87 30.5t30 78.5t-30 78t-87 30h-170zM201 615v-204h160
q52 0 84 26t32 76t-32 76t-84 26h-160z" />
    <glyph glyph-name="Gamma" unicode="&#x393;" horiz-adv-x="561" 
d="M531 615h-330v-615h-108v712h438v-97z" />
    <glyph glyph-name="uni0394" unicode="&#x394;" horiz-adv-x="624" 
d="M269 712h86l261 -712h-608zM474 92l-163 460l-161 -460h324z" />
    <glyph glyph-name="Epsilon" unicode="&#x395;" horiz-adv-x="603" 
d="M548 615h-347v-208h296v-97h-296v-213h347v-97h-455v712h455v-97z" />
    <glyph glyph-name="Zeta" unicode="&#x396;" horiz-adv-x="552" 
d="M504 624l-330 -527h330v-97h-456v88l330 527h-316v97h442v-88z" />
    <glyph glyph-name="Eta" unicode="&#x397;" horiz-adv-x="691" 
d="M598 0h-108v311h-289v-311h-108v712h108v-304h289v304h108v-712z" />
    <glyph glyph-name="Theta" unicode="&#x398;" horiz-adv-x="646" 
d="M323 -6q-59 0 -104 18.5t-80 53.5q-26 26 -40.5 54t-21.5 61.5t-8.5 76t-1.5 98.5t1.5 98.5t8.5 76t21.5 61.5t40.5 54q35 35 80 53.5t104 18.5t104 -18.5t80 -53.5q26 -26 40.5 -54t21.5 -61.5t8.5 -76t1.5 -98.5t-1.5 -98.5t-8.5 -76t-21.5 -61.5t-40.5 -54
q-35 -35 -80 -53.5t-104 -18.5zM323 91q64 0 106 44q12 12 20 26.5t12.5 34.5t6.5 47.5t3 67.5h-296q1 -40 3 -67.5t7 -47.5t12.5 -34t19.5 -27q42 -44 106 -44zM471 408q-1 38 -3 64.5t-7 46t-12.5 33.5t-19.5 26q-41 43 -106 43t-106 -43q-11 -12 -19 -26t-12.5 -33.5
t-7 -46t-3.5 -64.5h296z" />
    <glyph glyph-name="Iota" unicode="&#x399;" horiz-adv-x="294" 
d="M201 0h-108v712h108v-712z" />
    <glyph glyph-name="Kappa" unicode="&#x39a;" horiz-adv-x="658" 
d="M393 433l255 -433h-127l-200 351l-120 -144v-207h-108v712h108v-358l291 358h132z" />
    <glyph glyph-name="Lambda" unicode="&#x39b;" horiz-adv-x="569" 
d="M243 712h83l235 -712h-113l-163 519l-164 -519h-113z" />
    <glyph glyph-name="Mu" unicode="&#x39c;" horiz-adv-x="814" 
d="M721 0h-108v476l-164 -347h-80l-168 347v-476h-108v712h108l208 -443l204 443h108v-712z" />
    <glyph glyph-name="Nu" unicode="&#x39d;" horiz-adv-x="722" 
d="M629 0h-99l-329 501v-501h-108v712h99l329 -501v501h108v-712z" />
    <glyph glyph-name="Xi" unicode="&#x39e;" horiz-adv-x="586" 
d="M531 615h-184v-208h133v-97h-133v-213h184v-97h-476v97h184v213h-133v97h133v208h-184v97h476v-97z" />
    <glyph glyph-name="Omicron" unicode="&#x39f;" horiz-adv-x="646" 
d="M323 718q59 0 104 -18.5t80 -53.5q26 -26 40.5 -54t21.5 -61.5t8.5 -76t1.5 -98.5t-1.5 -98.5t-8.5 -76t-21.5 -61.5t-40.5 -54q-35 -35 -80 -53.5t-104 -18.5t-104 18.5t-80 53.5q-26 26 -40.5 54t-21.5 61.5t-8.5 76t-1.5 98.5t1.5 98.5t8.5 76t21.5 61.5t40.5 54
q35 35 80 53.5t104 18.5zM323 621q-65 0 -106 -43q-13 -14 -21.5 -31t-13 -41.5t-6 -60.5t-1.5 -89t1.5 -88.5t6 -60.5t13 -41.5t21.5 -30.5q42 -44 106 -44t106 44q13 14 21.5 30.5t13 41t6 60.5t1.5 89t-1.5 89t-6 61t-13 41.5t-21.5 30.5q-41 43 -106 43z" />
    <glyph glyph-name="Pi" unicode="&#x3a0;" horiz-adv-x="682" 
d="M589 0h-108v615h-280v-615h-108v712h496v-712z" />
    <glyph glyph-name="Rho" unicode="&#x3a1;" horiz-adv-x="629" 
d="M363 712q52 0 94 -16.5t72 -45t46 -68.5t16 -86q0 -47 -16 -86t-46 -68t-72 -45t-94 -16h-162v-281h-108v712h270zM201 615v-237h156q57 0 91.5 30.5t34.5 87.5t-34.5 88t-91.5 31h-156z" />
    <glyph glyph-name="Sigma" unicode="&#x3a3;" horiz-adv-x="552" 
d="M504 615h-320l164 -240l-175 -278h331v-97h-456v87l178 287l-170 252v86h448v-97z" />
    <glyph glyph-name="Tau" unicode="&#x3a4;" horiz-adv-x="560" 
d="M530 615h-196v-615h-108v615h-196v97h500v-97z" />
    <glyph glyph-name="Upsilon" unicode="&#x3a5;" horiz-adv-x="544" 
d="M326 293v-293h-108v293l-213 419h118l149 -313l149 313h118z" />
    <glyph glyph-name="Phi" unicode="&#x3a6;" horiz-adv-x="752" 
d="M430 658q60 0 108.5 -17t92.5 -61q22 -22 35.5 -48.5t20.5 -55t9 -58.5t2 -59t-2 -59t-9 -59t-20.5 -55t-35.5 -48q-44 -44 -92.5 -61t-108.5 -17v-60h-108v60q-60 0 -108.5 17t-92.5 61q-22 22 -35.5 48t-20.5 55t-9 59t-2 59t2 59t9 58.5t20.5 55t35.5 48.5
q44 44 92.5 61t108.5 17v54h108v-54zM322 562q-38 0 -67.5 -11t-53.5 -38q-27 -29 -33 -71t-6 -83q0 -42 6 -83.5t33 -71.5q24 -26 53.5 -37t67.5 -11v406zM430 156q38 0 68 10.5t54 37.5q27 29 32.5 71t5.5 84t-6 83.5t-32 70.5q-25 27 -54.5 38t-67.5 11v-406z" />
    <glyph glyph-name="Chi" unicode="&#x3a7;" horiz-adv-x="578" 
d="M347 365l221 -365h-125l-155 273l-154 -273h-124l220 365l-206 347h124l140 -255l141 255h124z" />
    <glyph glyph-name="Psi" unicode="&#x3a8;" horiz-adv-x="737" 
d="M676 394q0 -54 -17.5 -97t-51.5 -77q-68 -70 -184 -76v-144h-108v144q-117 6 -185 76q-34 34 -51.5 77t-17.5 97v318h108v-318q0 -36 11.5 -63.5t30.5 -46.5q42 -41 104 -45v473h108v-473q63 5 103 45q20 19 31 46.5t11 63.5v318h108v-318z" />
    <glyph glyph-name="uni03A9" unicode="&#x3a9;" horiz-adv-x="646" 
d="M67 96h70q-30 29 -45 60q-17 37 -21 85.5t-4 114.5q0 56 1.5 98.5t8.5 76t21.5 61.5t40.5 54q35 35 80 53.5t104 18.5t104 -18.5t80 -53.5q26 -26 40.5 -54t21.5 -61.5t8.5 -76t1.5 -98.5q0 -66 -4 -114.5t-21 -85.5q-8 -16 -18 -30.5t-27 -29.5h70v-96h-207v87
q24 12 41.5 25.5t31.5 34.5q8 12 13 29t8 41.5t4 58.5t1 80q0 53 -1.5 89t-6 60.5t-13 41.5t-21.5 31q-40 43 -106 43t-106 -43q-13 -14 -21.5 -31t-13 -41.5t-6 -60.5t-1.5 -89q0 -46 1.5 -80t4.5 -58.5t8 -41.5t13 -29q13 -21 30.5 -34.5t41.5 -25.5v-87h-207v96z" />
    <glyph glyph-name="Iotadieresis" unicode="&#x3aa;" horiz-adv-x="294" 
d="M201 0h-108v712h108v-712zM303 786h-92v108h92v-108zM87 786h-92v108h92v-108z" />
    <glyph glyph-name="Upsilondieresis" unicode="&#x3ab;" horiz-adv-x="544" 
d="M326 293v-293h-108v293l-213 419h118l149 -313l149 313h118zM427 786h-92v108h92v-108zM211 786h-92v108h92v-108z" />
    <glyph glyph-name="alphatonos" unicode="&#x3ac;" horiz-adv-x="553" 
d="M237 513q42 0 74 -12.5t61 -47.5v54h100v-507h-100v54q-29 -35 -61 -47.5t-74 -12.5q-38 0 -70 12t-53 33q-18 19 -29.5 43t-17.5 52t-8 58t-2 62q0 31 2 61.5t8 58t17.5 51.5t29.5 43q21 21 53 33t70 12zM264 421q-35 0 -55.5 -13.5t-31.5 -36.5t-14.5 -53t-3.5 -64
t3.5 -64.5t14.5 -53.5t31.5 -36.5t55.5 -13.5t56 13.5t32 36.5t14.5 53.5t3.5 64.5t-3.5 64t-14.5 53t-32 36.5t-56 13.5zM306 606l-92 -43v149h92v-106z" />
    <glyph glyph-name="epsilontonos" unicode="&#x3ad;" horiz-adv-x="510" 
d="M263 513q61 0 110 -16.5t92 -57.5l-66 -65q-27 28 -58.5 41t-74.5 13q-38 0 -65 -18t-27 -51q0 -32 21 -48t57 -16h80v-74h-88q-42 0 -63 -19t-21 -51q0 -34 28 -52t71 -18q48 0 80 12t63 44l65 -64q-47 -44 -96 -61.5t-113 -17.5q-42 0 -78.5 9t-63.5 27t-42.5 45.5
t-15.5 64.5q0 48 23 77.5t61 43.5q-32 15 -51 41t-19 67q0 33 14 59.5t39 45t60.5 29t77.5 10.5zM296 606l-92 -43v149h92v-106z" />
    <glyph glyph-name="etatonos" unicode="&#x3ae;" horiz-adv-x="568" 
d="M333 606l-92 -43v149h92v-106zM316 513q39 0 70.5 -12t54.5 -34q29 -29 40 -64.5t11 -78.5v-324h-102v309q0 59 -29.5 86t-72.5 27t-74 -27.5t-31 -85.5v-309h-102v507h100v-51q26 29 61.5 43t73.5 14z" />
    <glyph glyph-name="iotatonos" unicode="&#x3af;" horiz-adv-x="311" 
d="M180 146q0 -29 12 -44t43 -15h45v-87h-63q-36 0 -62.5 11.5t-43.5 30.5t-25 44.5t-8 53.5v367h102v-361zM177 606l-92 -43v149h92v-106z" />
    <glyph glyph-name="upsilondieresistonos" unicode="&#x3b0;" horiz-adv-x="563" 
d="M487 197q0 -96 -52 -149q-29 -29 -69 -41.5t-85 -12.5t-85 12t-69 42q-51 52 -51 149v310h102v-296q0 -62 25.5 -94t77.5 -32q53 0 78.5 32t25.5 94v296h102v-310zM330 641l-92 -42v148h92v-106zM189 604h-92v108h92v-108zM466 604h-92v108h92v-108z" />
    <glyph glyph-name="alpha" unicode="&#x3b1;" horiz-adv-x="553" 
d="M237 513q42 0 74 -12.5t61 -47.5v54h100v-507h-100v54q-29 -35 -61 -47.5t-74 -12.5q-38 0 -70 12t-53 33q-18 19 -29.5 43t-17.5 52t-8 58t-2 62q0 31 2 61.5t8 58t17.5 51.5t29.5 43q21 21 53 33t70 12zM264 421q-35 0 -55.5 -13.5t-31.5 -36.5t-14.5 -53t-3.5 -64
t3.5 -64.5t14.5 -53.5t31.5 -36.5t55.5 -13.5t56 13.5t32 36.5t14.5 53.5t3.5 64.5t-3.5 64t-14.5 53t-32 36.5t-56 13.5z" />
    <glyph glyph-name="beta" unicode="&#x3b2;" horiz-adv-x="578" 
d="M285 718q94 0 146.5 -45t52.5 -131q0 -55 -22.5 -96.5t-69.5 -56.5q61 -17 95 -61t34 -125q0 -46 -14.5 -84.5t-41.5 -66t-65 -43t-84 -15.5q-39 0 -76 16.5t-59 42.5v-53h-100v530q0 44 15.5 79t42.5 59t64.5 37t81.5 13zM285 629q-49 0 -75.5 -28.5t-26.5 -82.5v-318
q0 -60 31.5 -87.5t86.5 -27.5q60 0 89.5 33t29.5 86q0 77 -35.5 107t-105.5 30h-35v85h41q31 0 50.5 9.5t30 25t14.5 34t4 36.5q0 48 -25.5 73t-73.5 25z" />
    <glyph glyph-name="gamma" unicode="&#x3b3;" horiz-adv-x="471" 
d="M286 12v-217h-102v217l-176 495h108l120 -372l119 372h108z" />
    <glyph glyph-name="delta" unicode="&#x3b4;" horiz-adv-x="536" 
d="M429 625h-189l135 -135q30 -30 50 -58t32 -57t17 -60t5 -66q0 -63 -12 -110.5t-47 -84.5q-25 -26 -63 -43t-89 -17t-89 17t-62 43q-35 37 -47.5 84.5t-12.5 110.5q0 54 12.5 98.5t45.5 78.5q22 23 53 36.5t69 13.5q17 0 38 -7l-164 161v82h318v-87zM268 401
q-45 0 -75 -30q-23 -23 -28.5 -55.5t-5.5 -66.5q0 -40 5.5 -75.5t28.5 -58.5q30 -30 75 -30q46 0 75 30q23 23 28.5 58.5t5.5 75.5q0 35 -5.5 67t-28.5 55q-30 30 -75 30z" />
    <glyph glyph-name="epsilon" unicode="&#x3b5;" horiz-adv-x="510" 
d="M263 513q61 0 110 -16.5t92 -57.5l-66 -65q-27 28 -58.5 41t-74.5 13q-38 0 -65 -18t-27 -51q0 -32 21 -48t57 -16h80v-74h-88q-42 0 -63 -19t-21 -51q0 -34 28 -52t71 -18q48 0 80 12t63 44l65 -64q-47 -44 -96 -61.5t-113 -17.5q-42 0 -78.5 9t-63.5 27t-42.5 45.5
t-15.5 64.5q0 48 23 77.5t61 43.5q-32 15 -51 41t-19 67q0 33 14 59.5t39 45t60.5 29t77.5 10.5z" />
    <glyph glyph-name="zeta" unicode="&#x3b6;" horiz-adv-x="467" 
d="M322 -143q1 7 3 23.5t4.5 34.5t4 33.5t1.5 21.5q0 19 -11.5 24.5t-31.5 5.5h-71q-40 0 -72.5 7.5t-56 23.5t-36.5 42t-13 64q0 29 9.5 54t25.5 47.5t38 43t46 40.5l116 94h-210v91h359v-84l-181 -144q-48 -38 -73.5 -68t-25.5 -67q0 -29 20.5 -41t62.5 -12h87
q22 0 42.5 -3t36 -12t24.5 -25t9 -41q0 -12 -2.5 -33t-5.5 -44t-6 -44t-4 -32h-89z" />
    <glyph glyph-name="eta" unicode="&#x3b7;" horiz-adv-x="568" 
d="M316 513q39 0 70.5 -12t54.5 -34q29 -29 40 -64.5t11 -78.5v-324h-102v309q0 59 -29.5 86t-72.5 27t-74 -27.5t-31 -85.5v-309h-102v507h100v-51q26 29 61.5 43t73.5 14z" />
    <glyph glyph-name="theta" unicode="&#x3b8;" horiz-adv-x="553" 
d="M277 -6q-50 0 -86 15.5t-66 47.5q-24 26 -37 60.5t-19 73.5t-7 81t-1 84t1 84t7 81t19 73.5t37 60.5q30 32 66 47.5t86 15.5q49 0 85 -15.5t66 -47.5q24 -26 37 -60.5t19 -73.5t7 -81t1 -84t-1 -84t-7 -81t-19 -73.5t-37 -60.5q-30 -32 -66 -47.5t-85 -15.5zM277 85
q26 0 44 10t33 27q23 25 29 77.5t6 126.5h-225q0 -74 6 -126.5t29 -77.5q15 -17 33.5 -27t44.5 -10zM389 412q0 55 -6 104t-29 74q-15 17 -33 27t-44 10t-44.5 -10t-33.5 -27q-23 -25 -29 -74t-6 -104h225z" />
    <glyph glyph-name="iota" unicode="&#x3b9;" horiz-adv-x="311" 
d="M180 146q0 -29 12 -44t43 -15h45v-87h-63q-36 0 -62.5 11.5t-43.5 30.5t-25 44.5t-8 53.5v367h102v-361z" />
    <glyph glyph-name="kappa" unicode="&#x3ba;" horiz-adv-x="548" 
d="M328 308l198 -308h-127l-141 234l-75 -85v-149h-102v507h102v-234l197 234h124z" />
    <glyph glyph-name="lambda" unicode="&#x3bb;" horiz-adv-x="476" 
d="M191 478l-31 93q-5 15 -10.5 25t-13 15.5t-19 7.5t-27.5 2h-22v91h38q56 0 87.5 -22t49.5 -73l223 -617h-107l-118 355l-123 -355h-108z" />
    <glyph glyph-name="uni03BC" unicode="&#x3bc;" horiz-adv-x="574" 
d="M392 0v51q-26 -29 -61 -43t-73 -14q-45 0 -75 25v-224h-102v712h102v-309q0 -59 30 -86t73 -27t73.5 27t30.5 86v309h102v-507h-100z" />
    <glyph glyph-name="nu" unicode="&#x3bd;" horiz-adv-x="471" 
d="M277 0h-83l-186 507h108l120 -357l119 357h108z" />
    <glyph glyph-name="xi" unicode="&#x3be;" horiz-adv-x="487" 
d="M356 -143q1 7 3 23.5t4 34.5t4 33.5t2 21.5q0 19 -10.5 24.5t-30.5 5.5h-53q-47 0 -87 11.5t-69 35t-45.5 59.5t-16.5 86q0 39 11.5 70.5t29.5 54.5t40.5 38.5t45.5 23.5q-21 7 -39.5 20t-32.5 32t-22 43t-8 53q0 46 16 81.5t43.5 60t64.5 37t80 12.5q57 0 106.5 -19
t86.5 -58l-60 -71q-24 26 -55 42.5t-73 16.5q-50 0 -77.5 -27.5t-27.5 -79.5q0 -50 28 -74.5t79 -24.5h114v-92h-116q-30 0 -54.5 -9.5t-41.5 -26.5t-26.5 -40t-9.5 -49q0 -31 10 -53t26.5 -35.5t38.5 -20t46 -6.5h70q22 0 42.5 -3t36 -12t24.5 -25t9 -41q0 -12 -2 -33
t-5 -44t-6 -44t-5 -32h-88z" />
    <glyph glyph-name="omicron" unicode="&#x3bf;" 
d="M268 513q52 0 89.5 -17t62.5 -43q36 -38 48 -86.5t12 -112.5q0 -65 -12 -113.5t-48 -86.5q-25 -26 -62.5 -43t-89.5 -17t-89 17t-62 43q-36 38 -48 86.5t-12 113.5q0 64 12 112.5t48 86.5q25 26 62 43t89 17zM268 422q-45 0 -74 -29q-23 -23 -29 -60t-6 -79t6 -79t29 -60
q30 -30 74 -30q45 0 75 30q23 23 29 60t6 79t-6 79t-29 60q-29 29 -75 29z" />
    <glyph glyph-name="pi" unicode="&#x3c0;" horiz-adv-x="568" 
d="M487 0h-102v416h-202v-416h-102v507h406v-507z" />
    <glyph glyph-name="rho" unicode="&#x3c1;" horiz-adv-x="548" 
d="M281 513q47 0 84.5 -15t62.5 -41q39 -41 51 -92t12 -111t-13 -111t-49 -91q-24 -28 -59 -43t-80 -15q-33 0 -63.5 15.5t-48.5 41.5v-256h-102v459q0 57 10.5 106.5t43.5 87.5q56 65 151 65zM284 422q-42 0 -72 -28q-23 -23 -28.5 -60.5t-5.5 -78.5t5.5 -79.5t28.5 -61.5
q15 -14 30 -21.5t38 -7.5q26 0 44 7.5t30 21.5q21 23 28 59t7 81q0 46 -7.5 82t-27.5 58q-28 28 -70 28z" />
    <glyph glyph-name="sigma1" unicode="&#x3c2;" horiz-adv-x="487" 
d="M314 -143q1 7 3 23.5t4.5 34.5t4 33.5t1.5 21.5q0 19 -10.5 24.5t-30.5 5.5h-13q-103 0 -159.5 64.5t-56.5 184.5q0 72 18.5 122t50 81.5t72 46t85.5 14.5q53 0 92 -16.5t75 -54.5l-69 -68q-24 26 -46 37t-52 11q-60 0 -93 -45q-17 -21 -24 -50.5t-7 -77.5q0 -40 7 -69
t24 -50q18 -23 42.5 -31t55.5 -8h20q22 0 42.5 -3t36 -12t24.5 -25t9 -41q0 -12 -2 -33t-5 -44t-6 -44t-5 -32h-88z" />
    <glyph glyph-name="sigma" unicode="&#x3c3;" horiz-adv-x="561" 
d="M502 420h-86q31 -24 47 -70.5t16 -95.5q0 -65 -11.5 -113.5t-47.5 -86.5q-26 -26 -62.5 -43t-89.5 -17q-52 0 -89 17t-62 43q-37 38 -48.5 86.5t-11.5 113.5q0 64 11 111t47 85q26 26 62.5 41.5t88.5 15.5h236v-87zM268 85q45 0 75 30q23 23 28.5 60t5.5 79q0 41 -5 77.5
t-28 59.5q-30 30 -76 30t-76 -30q-23 -23 -28 -59.5t-5 -77.5q0 -42 5.5 -79t28.5 -60q30 -30 75 -30z" />
    <glyph glyph-name="tau" unicode="&#x3c4;" horiz-adv-x="426" 
d="M391 416h-127v-416h-102v416h-127v91h356v-91z" />
    <glyph glyph-name="upsilon" unicode="&#x3c5;" horiz-adv-x="563" 
d="M487 197q0 -96 -52 -149q-29 -29 -69 -41.5t-85 -12.5t-85 12t-69 42q-51 52 -51 149v310h102v-296q0 -62 25.5 -94t77.5 -32q53 0 78.5 32t25.5 94v296h102v-310z" />
    <glyph glyph-name="phi" unicode="&#x3c6;" horiz-adv-x="724" 
d="M312 -6q-66 1 -108.5 16t-71.5 41q-33 30 -54 77.5t-21 125.5q0 76 16.5 121.5t39.5 74.5q13 16 30.5 32t41.5 31l58 -72q-18 -11 -31 -24t-24 -28q-14 -20 -21.5 -51.5t-7.5 -83.5q0 -56 13.5 -89.5t32.5 -51.5q17 -17 41.5 -25t65.5 -9v434h98q66 0 109.5 -15.5
t72.5 -41.5q33 -30 54 -77.5t21 -124.5q0 -78 -21 -125.5t-54 -77.5q-29 -26 -71.5 -41t-108.5 -16v-199h-100v199zM412 79q41 1 65.5 9t41.5 25q19 18 32.5 51.5t13.5 89.5t-13.5 89t-32.5 51q-17 17 -41.5 24.5t-65.5 9.5v-349z" />
    <glyph glyph-name="chi" unicode="&#x3c7;" horiz-adv-x="503" 
d="M308 259l173 -259h-123l-106 173l-107 -173h-123l174 259l-167 248h123l100 -165l99 165h123z" />
    <glyph glyph-name="psi" unicode="&#x3c8;" horiz-adv-x="736" 
d="M317 -6q-55 2 -97 16t-74 43q-34 30 -52 74.5t-18 108.5v271h102v-261q0 -51 10.5 -80.5t30.5 -47.5t44.5 -26t53.5 -10v425h101v-425q29 2 53.5 9.5t44.5 26.5q20 18 31 47.5t11 80.5v261h102v-271q0 -64 -18.5 -108.5t-52.5 -74.5q-32 -29 -74 -43t-97 -16v-199h-101
v199z" />
    <glyph glyph-name="omega" unicode="&#x3c9;" horiz-adv-x="724" 
d="M230 -6q-45 0 -74.5 16t-52.5 45q-26 35 -36 81t-10 109q0 68 19.5 122t54.5 91q14 16 30.5 29t39.5 25l59 -72q-19 -11 -32.5 -21.5t-24.5 -23.5q-23 -27 -33.5 -62.5t-10.5 -86.5q0 -32 2.5 -66t15.5 -59q19 -36 62 -36q37 0 55 31.5t18 79.5v151h100v-151
q0 -48 17.5 -79.5t54.5 -31.5q43 0 62 36q14 25 16.5 59t2.5 66q0 51 -11 86.5t-34 62.5q-11 13 -24 23.5t-32 21.5l58 72q43 -23 71 -54q35 -37 54.5 -91t19.5 -122q0 -63 -10.5 -109t-36.5 -81q-22 -29 -51.5 -45t-75.5 -16q-49 0 -82.5 25t-49.5 66q-15 -41 -48.5 -66
t-82.5 -25z" />
    <glyph glyph-name="iotadieresis" unicode="&#x3ca;" horiz-adv-x="311" 
d="M180 146q0 -29 12 -44t43 -15h45v-87h-63q-36 0 -62.5 11.5t-43.5 30.5t-25 44.5t-8 53.5v367h102v-361zM285 604h-92v108h92v-108zM69 604h-92v108h92v-108z" />
    <glyph glyph-name="upsilondieresis" unicode="&#x3cb;" horiz-adv-x="563" 
d="M487 197q0 -96 -52 -149q-29 -29 -69 -41.5t-85 -12.5t-85 12t-69 42q-51 52 -51 149v310h102v-296q0 -62 25.5 -94t77.5 -32q53 0 78.5 32t25.5 94v296h102v-310zM435 604h-92v108h92v-108zM219 604h-92v108h92v-108z" />
    <glyph glyph-name="omicrontonos" unicode="&#x3cc;" 
d="M268 513q52 0 89.5 -17t62.5 -43q36 -38 48 -86.5t12 -112.5q0 -65 -12 -113.5t-48 -86.5q-25 -26 -62.5 -43t-89.5 -17t-89 17t-62 43q-36 38 -48 86.5t-12 113.5q0 64 12 112.5t48 86.5q25 26 62 43t89 17zM268 422q-45 0 -74 -29q-23 -23 -29 -60t-6 -79t6 -79t29 -60
q30 -30 74 -30q45 0 75 30q23 23 29 60t6 79t-6 79t-29 60q-29 29 -75 29zM315 606l-92 -43v149h92v-106z" />
    <glyph glyph-name="upsilontonos" unicode="&#x3cd;" horiz-adv-x="563" 
d="M487 197q0 -96 -52 -149q-29 -29 -69 -41.5t-85 -12.5t-85 12t-69 42q-51 52 -51 149v310h102v-296q0 -62 25.5 -94t77.5 -32q53 0 78.5 32t25.5 94v296h102v-310zM327 606l-92 -43v149h92v-106z" />
    <glyph glyph-name="omegatonos" unicode="&#x3ce;" horiz-adv-x="724" 
d="M230 -6q-45 0 -74.5 16t-52.5 45q-26 35 -36 81t-10 109q0 68 19.5 122t54.5 91q14 16 30.5 29t39.5 25l59 -72q-19 -11 -32.5 -21.5t-24.5 -23.5q-23 -27 -33.5 -62.5t-10.5 -86.5q0 -32 2.5 -66t15.5 -59q19 -36 62 -36q37 0 55 31.5t18 79.5v151h100v-151
q0 -48 17.5 -79.5t54.5 -31.5q43 0 62 36q14 25 16.5 59t2.5 66q0 51 -11 86.5t-34 62.5q-11 13 -24 23.5t-32 21.5l58 72q43 -23 71 -54q35 -37 54.5 -91t19.5 -122q0 -63 -10.5 -109t-36.5 -81q-22 -29 -51.5 -45t-75.5 -16q-49 0 -82.5 25t-49.5 66q-15 -41 -48.5 -66
t-82.5 -25zM408 606l-92 -43v149h92v-106z" />
    <glyph glyph-name="uni0400" unicode="&#x400;" horiz-adv-x="603" 
d="M548 615h-347v-208h296v-97h-296v-213h347v-97h-455v712h455v-97zM355 781h-77l-111 162h113z" />
    <glyph glyph-name="uni0401" unicode="&#x401;" horiz-adv-x="603" 
d="M548 615h-347v-208h296v-97h-296v-213h347v-97h-455v712h455v-97zM463 786h-92v108h92v-108zM247 786h-92v108h92v-108z" />
    <glyph glyph-name="uni0402" unicode="&#x402;" horiz-adv-x="710" 
d="M530 615h-226v-173h144q51 0 92.5 -14.5t71 -43t45.5 -69.5t16 -93q0 -53 -16 -94t-45.5 -69.5t-71 -43.5t-92.5 -15h-41v94h32q59 0 92.5 32t33.5 95t-33.5 95t-92.5 32h-135v-348h-108v615h-166v97h500v-97z" />
    <glyph glyph-name="uni0403" unicode="&#x403;" horiz-adv-x="561" 
d="M531 615h-330v-615h-108v712h438v-97zM316 781h-77l75 162h113z" />
    <glyph glyph-name="uni0404" unicode="&#x404;" horiz-adv-x="628" 
d="M323 718q99 0 167 -56t87 -161h-108q-13 55 -49.5 89t-96.5 34q-32 0 -59.5 -12t-47.5 -33q-12 -13 -20 -27.5t-12.5 -34.5t-6.5 -47t-3 -65h243v-94h-243q1 -39 3 -67t6.5 -48.5t12.5 -35t20 -27.5q20 -21 47.5 -33t59.5 -12q60 0 97 34t50 89h107q-19 -105 -87 -161
t-167 -56q-59 0 -104 18.5t-80 53.5q-26 26 -40.5 54t-21.5 61.5t-8.5 76t-1.5 98.5t1.5 98.5t8.5 76t21.5 61.5t40.5 54q35 35 80 53.5t104 18.5z" />
    <glyph glyph-name="uni0405" unicode="&#x405;" horiz-adv-x="590" 
d="M292 718q72 0 123.5 -19t97.5 -62l-68 -68q-33 32 -72 43.5t-85 11.5q-63 0 -96 -31t-33 -80q0 -20 6 -37t20 -29t31.5 -19.5t46.5 -12.5l85 -13q49 -8 79 -20t53 -33q58 -53 58 -146q0 -49 -19 -88t-53 -66t-81 -41t-103 -14q-81 0 -140.5 21t-111.5 73l71 71
q39 -39 84 -54t99 -15q71 0 109 28.5t38 81.5q0 50 -28 74q-26 23 -78 30l-84 12q-89 14 -134 57q-53 48 -53 137q0 46 16.5 84.5t47 66t74.5 42.5t100 15z" />
    <glyph glyph-name="uni0406" unicode="&#x406;" horiz-adv-x="294" 
d="M201 0h-108v712h108v-712z" />
    <glyph glyph-name="uni0407" unicode="&#x407;" horiz-adv-x="294" 
d="M201 0h-108v712h108v-712zM303 786h-92v108h92v-108zM87 786h-92v108h92v-108z" />
    <glyph glyph-name="uni0408" unicode="&#x408;" horiz-adv-x="505" 
d="M423 225q0 -56 -18.5 -99t-51 -72t-75.5 -44.5t-92 -15.5q-55 0 -95.5 16t-77.5 53l72 71q19 -19 40.5 -31t60.5 -12q60 0 94.5 36t34.5 106v479h108v-487z" />
    <glyph glyph-name="uni0409" unicode="&#x409;" horiz-adv-x="1012" 
d="M585 432h165q51 0 92.5 -16t71 -44.5t45.5 -68t16 -87.5t-16.5 -88t-46 -68.5t-71 -44t-91.5 -15.5h-273v615h-209v-225q0 -112 -13.5 -187t-40.5 -120t-67 -64t-94 -19h-45v97h19q30 0 55 12t43 45.5t28 93.5t10 157v307h422v-280zM585 335v-238h156q60 0 93 31.5
t33 87.5q0 55 -33 87t-93 32h-156z" />
    <glyph glyph-name="uni040A" unicode="&#x40a;" horiz-adv-x="1026" 
d="M598 432h166q51 0 92.5 -16t71 -44.5t45.5 -68t16 -87.5t-16 -88t-45.5 -68.5t-71 -44t-92.5 -15.5h-274v335h-289v-335h-108v712h108v-280h289v280h108v-280zM598 335v-238h156q60 0 93.5 31.5t33.5 87.5q0 55 -33.5 87t-93.5 32h-156z" />
    <glyph glyph-name="uni040B" unicode="&#x40b;" horiz-adv-x="748" 
d="M529 615h-226v-173h144q51 0 92.5 -15.5t71 -43t46 -67t16.5 -87.5v-229h-108v229q0 55 -33.5 86.5t-93.5 31.5h-135v-347h-108v615h-165v97h499v-97z" />
    <glyph glyph-name="uni040C" unicode="&#x40c;" horiz-adv-x="622" 
d="M320 376l306 -376h-134l-290 372l269 340h130zM201 0h-108v712h108v-712zM349 781h-77l75 162h113z" />
    <glyph glyph-name="uni040D" unicode="&#x40d;" horiz-adv-x="711" 
d="M618 0h-108v517l-319 -517h-98v712h108v-516l318 516h99v-712zM402 781h-77l-111 162h113z" />
    <glyph glyph-name="uni040E" unicode="&#x40e;" horiz-adv-x="565" 
d="M303 116q-21 -49 -56.5 -82.5t-93.5 -33.5h-74v97h51q32 0 51.5 14t31.5 43l25 58l-231 500h114l170 -381l153 381h114zM447 929q-5 -75 -49 -110t-115 -35q-72 0 -116 35t-49 110h72q5 -35 30 -52.5t63 -17.5q14 0 29.5 4t28.5 12.5t22.5 21.5t11.5 32h72z" />
    <glyph glyph-name="uni040F" unicode="&#x40f;" horiz-adv-x="692" 
d="M599 0h-200v-164h-106v164h-200v712h108v-615h290v615h108v-712z" />
    <glyph glyph-name="uni0410" unicode="&#x410;" horiz-adv-x="625" 
d="M617 0h-115l-49 143h-281l-49 -143h-115l261 712h87zM203 235h219l-110 316z" />
    <glyph glyph-name="uni0411" unicode="&#x411;" horiz-adv-x="632" 
d="M550 616h-349v-183h167q51 0 92.5 -16t71 -44.5t45.5 -68.5t16 -88t-16 -88t-45.5 -68.5t-71 -44t-92.5 -15.5h-275v712h457v-96zM201 336v-240h158q59 0 92.5 31.5t33.5 88.5q0 56 -33.5 88t-92.5 32h-158z" />
    <glyph glyph-name="uni0412" unicode="&#x412;" horiz-adv-x="663" 
d="M370 712q100 0 157.5 -52t57.5 -143q0 -29 -8.5 -53.5t-22 -44t-30.5 -33t-35 -20.5q21 -8 40 -22.5t34 -34.5t24 -47t9 -61q0 -49 -16 -86.5t-44.5 -63t-68 -38.5t-86.5 -13h-288v712h277zM201 314v-217h170q57 0 87 30.5t30 78.5t-30 78t-87 30h-170zM201 615v-204h160
q52 0 84 26t32 76t-32 76t-84 26h-160z" />
    <glyph glyph-name="uni0413" unicode="&#x413;" horiz-adv-x="561" 
d="M531 615h-330v-615h-108v712h438v-97z" />
    <glyph glyph-name="uni0414" unicode="&#x414;" horiz-adv-x="707" 
d="M579 96h83v-260h-105v164h-437v-164h-104v260h67q22 44 38 91.5t26 103t14.5 120.5t4.5 144v157h413v-616zM270 616v-153q0 -111 -18.5 -200.5t-56.5 -166.5h276v520h-201z" />
    <glyph glyph-name="uni0415" unicode="&#x415;" horiz-adv-x="603" 
d="M548 615h-347v-208h296v-97h-296v-213h347v-97h-455v712h455v-97z" />
    <glyph glyph-name="uni0416" unicode="&#x416;" horiz-adv-x="915" 
d="M287 376l-266 336h128l254 -340l-275 -372h-132zM404 712h108v-712h-108v712zM513 372l253 340h128l-266 -336l291 -376h-132z" />
    <glyph glyph-name="uni0417" unicode="&#x417;" horiz-adv-x="611" 
d="M302 718q50 0 92.5 -13.5t73 -38.5t48 -61t17.5 -80q0 -55 -25.5 -94.5t-72.5 -62.5q52 -21 80.5 -62.5t28.5 -104.5q0 -47 -18.5 -85.5t-51.5 -65.5t-78 -41.5t-98 -14.5q-48 0 -89.5 14t-74 42t-55 68t-31.5 93h109q13 -54 49 -88t94 -34q60 0 97.5 31t37.5 85
q0 56 -32 85t-94 29h-91v90h93q54 0 83.5 28.5t29.5 80.5q0 51 -33 78.5t-90 27.5q-59 0 -95 -34.5t-49 -88.5h-109q9 52 31.5 92.5t55.5 68.5t75.5 42t91.5 14z" />
    <glyph glyph-name="uni0418" unicode="&#x418;" horiz-adv-x="711" 
d="M618 0h-108v517l-319 -517h-98v712h108v-516l318 516h99v-712z" />
    <glyph glyph-name="uni0419" unicode="&#x419;" horiz-adv-x="711" 
d="M618 0h-108v517l-319 -517h-98v712h108v-516l318 516h99v-712zM521 929q-5 -75 -49 -110t-115 -35q-72 0 -116 35t-49 110h72q5 -35 30 -52.5t63 -17.5q14 0 29.5 4t28.5 12.5t22.5 21.5t11.5 32h72z" />
    <glyph glyph-name="uni041A" unicode="&#x41a;" horiz-adv-x="622" 
d="M320 376l306 -376h-134l-290 372l269 340h130zM201 0h-108v712h108v-712z" />
    <glyph glyph-name="uni041B" unicode="&#x41b;" horiz-adv-x="678" 
d="M585 0h-108v615h-209v-225q0 -112 -13.5 -187t-40.5 -120t-67 -64t-94 -19h-45v97h19q30 0 55 12t43 45.5t28 93.5t10 157v307h422v-712z" />
    <glyph glyph-name="uni041C" unicode="&#x41c;" horiz-adv-x="814" 
d="M721 0h-108v476l-164 -347h-80l-168 347v-476h-108v712h108l208 -443l204 443h108v-712z" />
    <glyph glyph-name="uni041D" unicode="&#x41d;" horiz-adv-x="691" 
d="M598 0h-108v311h-289v-311h-108v712h108v-304h289v304h108v-712z" />
    <glyph glyph-name="uni041E" unicode="&#x41e;" horiz-adv-x="646" 
d="M323 718q59 0 104 -18.5t80 -53.5q26 -26 40.5 -54t21.5 -61.5t8.5 -76t1.5 -98.5t-1.5 -98.5t-8.5 -76t-21.5 -61.5t-40.5 -54q-35 -35 -80 -53.5t-104 -18.5t-104 18.5t-80 53.5q-26 26 -40.5 54t-21.5 61.5t-8.5 76t-1.5 98.5t1.5 98.5t8.5 76t21.5 61.5t40.5 54
q35 35 80 53.5t104 18.5zM323 621q-65 0 -106 -43q-13 -14 -21.5 -31t-13 -41.5t-6 -60.5t-1.5 -89t1.5 -88.5t6 -60.5t13 -41.5t21.5 -30.5q42 -44 106 -44t106 44q13 14 21.5 30.5t13 41t6 60.5t1.5 89t-1.5 89t-6 61t-13 41.5t-21.5 30.5q-41 43 -106 43z" />
    <glyph glyph-name="uni041F" unicode="&#x41f;" horiz-adv-x="692" 
d="M599 0h-108v615h-290v-615h-108v712h506v-712z" />
    <glyph glyph-name="uni0420" unicode="&#x420;" horiz-adv-x="629" 
d="M363 712q52 0 94 -16.5t72 -45t46 -68.5t16 -86q0 -47 -16 -86t-46 -68t-72 -45t-94 -16h-162v-281h-108v712h270zM201 615v-237h156q57 0 91.5 30.5t34.5 87.5t-34.5 88t-91.5 31h-156z" />
    <glyph glyph-name="uni0421" unicode="&#x421;" horiz-adv-x="628" 
d="M323 718q99 0 167 -56.5t87 -162.5h-110q-12 55 -48 88.5t-96 33.5q-65 0 -105 -43q-14 -14 -22 -31t-13 -41.5t-6.5 -60.5t-1.5 -89t1.5 -89t6.5 -60.5t13 -41.5t22 -31q40 -43 105 -43q60 0 96 33.5t48 88.5h110q-19 -106 -87.5 -162.5t-166.5 -56.5q-59 0 -104 18.5
t-80 53.5q-26 26 -40.5 54t-21.5 61.5t-8.5 76t-1.5 98.5t1.5 98.5t8.5 76t21.5 61.5t40.5 54q35 35 80 53.5t104 18.5z" />
    <glyph glyph-name="uni0422" unicode="&#x422;" horiz-adv-x="560" 
d="M530 615h-196v-615h-108v615h-196v97h500v-97z" />
    <glyph glyph-name="uni0423" unicode="&#x423;" horiz-adv-x="565" 
d="M303 116q-21 -49 -56.5 -82.5t-93.5 -33.5h-74v97h51q32 0 51.5 14t31.5 43l25 58l-231 500h114l170 -381l153 381h114z" />
    <glyph glyph-name="uni0424" unicode="&#x424;" horiz-adv-x="804" 
d="M456 672q158 -5 228.5 -80.5t70.5 -212.5t-70.5 -213t-228.5 -81v-89h-108v89q-158 5 -228.5 81t-70.5 213t70.5 212.5t228.5 80.5v69h108v-69zM349 580q-54 -2 -91 -15.5t-59.5 -39t-32 -62t-9.5 -84.5t9.5 -85t32 -62.5t59.5 -39t91 -15.5v403zM455 177q54 2 90.5 15.5
t59 39t32.5 62.5t10 85t-10 84.5t-32.5 62t-59 39t-90.5 15.5v-403z" />
    <glyph glyph-name="uni0425" unicode="&#x425;" horiz-adv-x="578" 
d="M347 365l221 -365h-125l-155 273l-154 -273h-124l220 365l-206 347h124l140 -255l141 255h124z" />
    <glyph glyph-name="uni0426" unicode="&#x426;" horiz-adv-x="715" 
d="M599 97h82v-261h-105v164h-483v712h108v-615h290v615h108v-615z" />
    <glyph glyph-name="uni0427" unicode="&#x427;" horiz-adv-x="647" 
d="M554 0h-108v311q-15 -3 -37 -7t-47.5 -7.5t-53 -6t-53.5 -2.5q-35 0 -68.5 9.5t-59.5 30.5t-41.5 54.5t-15.5 80.5v249h108v-223q0 -31 9 -51t24 -32t35 -16.5t42 -4.5q18 0 39.5 2t43 5t41.5 6.5t34 6.5v307h108v-712z" />
    <glyph glyph-name="uni0428" unicode="&#x428;" horiz-adv-x="992" 
d="M899 0h-806v712h108v-615h241v615h108v-615h241v615h108v-712z" />
    <glyph glyph-name="uni0429" unicode="&#x429;" horiz-adv-x="1016" 
d="M899 97h83v-261h-105v164h-784v712h108v-615h241v615h108v-615h241v615h108v-615z" />
    <glyph glyph-name="uni042A" unicode="&#x42a;" horiz-adv-x="727" 
d="M300 432h165q51 0 92.5 -16t71 -44.5t45.5 -68t16 -87.5t-16.5 -88t-46 -68.5t-71 -44t-91.5 -15.5h-273v615h-162v97h270v-280zM300 335v-238h156q60 0 93 31.5t33 87.5q0 55 -33 87t-93 32h-156z" />
    <glyph glyph-name="uni042B" unicode="&#x42b;" horiz-adv-x="921" 
d="M828 0h-108v712h108v-712zM201 432h165q51 0 92.5 -16t71 -44.5t45.5 -68t16 -87.5t-16.5 -88t-46 -68.5t-71 -44t-91.5 -15.5h-273v712h108v-280zM201 335v-238h156q60 0 93 31.5t33 87.5q0 55 -33 87t-93 32h-156z" />
    <glyph glyph-name="uni042C" unicode="&#x42c;" horiz-adv-x="628" 
d="M201 432h165q51 0 92.5 -16t71 -44.5t45.5 -68t16 -87.5t-16.5 -88t-46 -68.5t-71 -44t-91.5 -15.5h-273v712h108v-280zM201 335v-238h156q60 0 93 31.5t33 87.5q0 55 -33 87t-93 32h-156z" />
    <glyph glyph-name="uni042D" unicode="&#x42d;" horiz-adv-x="628" 
d="M305 718q59 0 104 -18.5t80 -53.5q26 -26 40.5 -54t21.5 -61.5t8.5 -76t1.5 -98.5t-1.5 -98.5t-8.5 -76t-21.5 -61.5t-40.5 -54q-35 -35 -80 -53.5t-104 -18.5q-98 0 -166.5 56t-87.5 161h107q13 -55 50 -89t97 -34q32 0 59.5 12t47.5 33q12 13 20 27.5t12.5 35t6.5 48.5
t3 67h-243v94h243q-1 38 -3 65t-6.5 47t-12.5 34.5t-20 27.5q-20 21 -47.5 33t-59.5 12q-60 0 -96.5 -34t-49.5 -89h-108q19 105 87 161t167 56z" />
    <glyph glyph-name="uni042E" unicode="&#x42e;" horiz-adv-x="909" 
d="M586 718q59 0 104 -18.5t80 -53.5q26 -26 40.5 -54t21.5 -61.5t8.5 -76t1.5 -98.5t-1.5 -98.5t-8.5 -76t-21.5 -61.5t-40.5 -54q-35 -35 -80 -53.5t-104 -18.5t-104 18.5t-80 53.5q-24 23 -38 47.5t-21.5 53.5t-10 64t-2.5 80h-129v-311h-108v712h108v-304h129
q0 43 3 76.5t10.5 62t21.5 52.5t37 47q35 35 80 53.5t104 18.5zM586 622q-64 0 -106 -44q-13 -14 -21.5 -31t-13 -41.5t-6 -60.5t-1.5 -89t1.5 -88.5t6 -60.5t13 -41.5t21.5 -30.5q20 -21 47 -33t59 -12t59 12t47 33q13 14 21.5 30.5t13 41t6 60.5t1.5 89t-1.5 89t-6 61
t-13 41.5t-21.5 30.5q-42 44 -106 44z" />
    <glyph glyph-name="uni042F" unicode="&#x42f;" horiz-adv-x="651" 
d="M558 0h-108v280h-141l-138 -280h-128l155 300q-63 22 -100 73t-37 123q0 49 16.5 89t46.5 68.5t71.5 43.5t92.5 15h270v-712zM295 616q-59 0 -92.5 -31.5t-33.5 -87.5q0 -55 33.5 -87.5t92.5 -32.5h155v239h-155z" />
    <glyph glyph-name="uni0430" unicode="&#x430;" horiz-adv-x="530" 
d="M245 513q106 0 157.5 -44t51.5 -130v-339h-100v46q-28 -28 -58 -40t-77 -12q-48 0 -80.5 11.5t-55.5 34.5q-40 42 -40 109q0 64 44 105t132 41h133v36q0 49 -25.5 72t-85.5 23q-41 0 -65 -11.5t-46 -38.5l-66 63q18 21 36.5 35t40 23t47 12.5t57.5 3.5zM235 224
q-93 0 -93 -73q0 -35 22.5 -53.5t73.5 -18.5q27 0 49.5 5t42.5 24q22 21 22 75v41h-117z" />
    <glyph glyph-name="uni0431" unicode="&#x431;" horiz-adv-x="543" 
d="M443 628q-20 -2 -49 -3t-60.5 -4t-61.5 -10t-52 -22q-35 -23 -51.5 -61t-16.5 -96q15 27 56 47q19 9 41 14.5t46 5.5q80 0 125 -42q34 -32 50 -84.5t16 -120.5q0 -76 -15.5 -122.5t-46.5 -78.5q-26 -28 -64 -42.5t-82 -14.5q-125 0 -180 103q-8 15 -14.5 33t-10.5 40.5
t-6 50.5t-2 65q0 86 1.5 145.5t9.5 101.5t24.5 71t46.5 53q27 22 66.5 33.5t81.5 17t81.5 7t66.5 3.5v-90zM276 413q-22 0 -42 -7.5t-34 -24.5q-16 -19 -24.5 -50t-8.5 -82q0 -54 8.5 -84t25.5 -49q14 -16 33.5 -23.5t41.5 -7.5q47 0 76 31q17 19 24.5 49.5t7.5 82.5
q0 51 -7 82t-24 50q-14 17 -34 25t-43 8z" />
    <glyph glyph-name="uni0432" unicode="&#x432;" horiz-adv-x="545" 
d="M324 507q70 0 112.5 -37t42.5 -99q0 -75 -73 -109q38 -17 59.5 -46t21.5 -73q0 -66 -41.5 -104.5t-113.5 -38.5h-251v507h243zM183 220v-140h125q36 0 56.5 19t20.5 51q0 33 -20.5 51.5t-56.5 18.5h-125zM183 427v-128h119q75 0 75 65q0 30 -19.5 46.5t-55.5 16.5h-119z
" />
    <glyph glyph-name="uni0433" unicode="&#x433;" horiz-adv-x="422" 
d="M410 416h-227v-416h-102v507h329v-91z" />
    <glyph glyph-name="uni0434" unicode="&#x434;" horiz-adv-x="568" 
d="M474 91h69v-225h-97v134h-330v-134h-98v225h57q13 27 23.5 56.5t18.5 67t12.5 87t4.5 118.5v87h340v-416zM231 417v-61q0 -52 -4.5 -92.5t-11.5 -72t-16.5 -56t-19.5 -44.5h193v326h-141z" />
    <glyph glyph-name="uni0435" unicode="&#x435;" horiz-adv-x="540" 
d="M156 224q0 -66 33 -104t96 -38q43 0 69.5 12.5t53.5 39.5l65 -61q-20 -20 -39.5 -34.5t-42 -24.5t-49 -15t-59.5 -5q-48 0 -89.5 13.5t-72 44t-48.5 80.5t-18 122q0 125 58.5 192t156.5 67q51 0 91 -17.5t67.5 -50t42 -78t14.5 -100.5v-43h-329zM384 295q-2 23 -4 37.5
t-10 31.5q-13 29 -38.5 46.5t-61.5 17.5q-37 0 -62.5 -17.5t-38.5 -46.5q-8 -17 -10 -31.5t-3 -37.5h228z" />
    <glyph glyph-name="uni0436" unicode="&#x436;" horiz-adv-x="740" 
d="M535 269l205 -269h-123l-195 264l184 243h119zM318 264l-195 -264h-123l206 269l-190 238h119zM421 0h-102v507h102v-507z" />
    <glyph glyph-name="uni0437" unicode="&#x437;" horiz-adv-x="489" 
d="M239 513q37 0 70.5 -9t58.5 -26t39.5 -43t14.5 -59q0 -37 -19.5 -67t-54.5 -44q37 -14 59.5 -45t22.5 -73q0 -35 -15.5 -63.5t-42 -48t-61.5 -30t-74 -10.5q-60 0 -114 15t-99 57l61 64q30 -27 63 -38.5t74 -11.5q20 0 39.5 4.5t34.5 13.5t24.5 22.5t9.5 31.5
q0 35 -24 51.5t-64 16.5h-75v76h74q37 0 59 18t22 50t-27 48t-72 16q-33 0 -64 -9t-58 -29l-57 65q42 32 91.5 44.5t103.5 12.5z" />
    <glyph glyph-name="uni0438" unicode="&#x438;" horiz-adv-x="583" 
d="M502 0h-102v349l-217 -349h-102v507h102v-344l217 344h102v-507z" />
    <glyph glyph-name="uni0439" unicode="&#x439;" horiz-adv-x="583" 
d="M502 0h-102v349l-217 -349h-102v507h102v-344l217 344h102v-507zM456 738q-5 -75 -49 -110t-115 -35q-72 0 -116 35t-49 110h72q5 -35 30 -52.5t63 -17.5q14 0 29.5 4t28.5 12.5t22.5 21.5t11.5 32h72z" />
    <glyph glyph-name="uni043A" unicode="&#x43a;" horiz-adv-x="514" 
d="M297 269l217 -269h-125l-205 264l193 243h122zM183 0h-102v507h102v-507z" />
    <glyph glyph-name="uni043B" unicode="&#x43b;" horiz-adv-x="555" 
d="M474 0h-102v416h-147v-145q0 -81 -11.5 -133t-32.5 -83t-51 -43t-67 -12h-48v90h16q16 0 33.5 4.5t31 25t22.5 61.5t9 115v211h347v-507z" />
    <glyph glyph-name="uni043C" unicode="&#x43c;" horiz-adv-x="666" 
d="M585 0h-102v331l-118 -214h-62l-120 214v-331h-102v507h101l153 -283l150 283h100v-507z" />
    <glyph glyph-name="uni043D" unicode="&#x43d;" horiz-adv-x="568" 
d="M487 0h-102v216h-202v-216h-102v507h102v-202h202v202h102v-507z" />
    <glyph glyph-name="uni043E" unicode="&#x43e;" 
d="M268 513q52 0 89.5 -17t62.5 -43q36 -38 48 -86.5t12 -112.5q0 -65 -12 -113.5t-48 -86.5q-25 -26 -62.5 -43t-89.5 -17t-89 17t-62 43q-36 38 -48 86.5t-12 113.5q0 64 12 112.5t48 86.5q25 26 62 43t89 17zM268 422q-45 0 -74 -29q-23 -23 -29 -60t-6 -79t6 -79t29 -60
q30 -30 74 -30q45 0 75 30q23 23 29 60t6 79t-6 79t-29 60q-29 29 -75 29z" />
    <glyph glyph-name="uni043F" unicode="&#x43f;" horiz-adv-x="568" 
d="M487 0h-102v416h-202v-416h-102v507h406v-507z" />
    <glyph glyph-name="uni0440" unicode="&#x440;" horiz-adv-x="553" 
d="M315 513q39 0 71 -12t53 -33q18 -19 29.5 -43t17.5 -51.5t8 -58t2 -61.5t-2 -61.5t-8 -58.5t-17.5 -52t-29.5 -43q-21 -21 -52.5 -33t-70.5 -12q-41 0 -73 12t-60 46v-257h-102v712h100v-54q29 35 61 47.5t73 12.5zM289 422q-35 0 -56 -13.5t-32 -36.5t-14.5 -53.5
t-3.5 -64.5t3.5 -64.5t14.5 -54t32 -37t56 -13.5q34 0 55 13.5t32 37t14.5 54t3.5 64.5t-3.5 64.5t-14.5 53.5t-32 36.5t-55 13.5z" />
    <glyph glyph-name="uni0441" unicode="&#x441;" horiz-adv-x="487" 
d="M283 513q53 0 92 -16.5t75 -54.5l-70 -68q-24 26 -45.5 37t-51.5 11q-60 0 -94 -45q-17 -21 -23.5 -49.5t-6.5 -73.5t6.5 -74t23.5 -50q34 -45 94 -45q30 0 51.5 11t45.5 37l70 -67q-36 -38 -75 -55t-92 -17q-43 0 -83.5 14t-72 45t-51 80.5t-19.5 120.5t19.5 120.5
t51 80t72 44.5t83.5 14z" />
    <glyph glyph-name="uni0442" unicode="&#x442;" horiz-adv-x="453" 
d="M443 416h-160v-416h-102v416h-171v91h433v-91z" />
    <glyph glyph-name="uni0443" unicode="&#x443;" horiz-adv-x="472" 
d="M239 -105q-14 -40 -37 -63q-21 -21 -48 -29t-56 -8h-41v92h26q32 0 47 11.5t26 42.5l29 83l-177 483h108l121 -357l118 357h109z" />
    <glyph glyph-name="uni0444" unicode="&#x444;" horiz-adv-x="712" 
d="M407 512q58 -3 104.5 -20t79 -48t50 -78t17.5 -110t-17.5 -110.5t-50 -79.5t-79 -49.5t-104.5 -21.5v-200h-102v200q-57 4 -103.5 21.5t-79.5 49.5t-50.5 79.5t-17.5 110.5t17.5 110t50.5 78t79.5 48t103.5 20v200h102v-200zM306 422q-73 -2 -111.5 -44.5t-38.5 -123.5
t38 -123.5t112 -45.5v337zM406 85q150 6 150 169q0 81 -38 123.5t-112 44.5v-337z" />
    <glyph glyph-name="uni0445" unicode="&#x445;" horiz-adv-x="503" 
d="M308 259l173 -259h-123l-106 173l-107 -173h-123l174 259l-167 248h123l100 -165l99 165h123z" />
    <glyph glyph-name="uni0446" unicode="&#x446;" horiz-adv-x="588" 
d="M487 91h72v-225h-97v134h-381v507h102v-416h202v416h102v-416z" />
    <glyph glyph-name="uni0447" unicode="&#x447;" 
d="M456 0h-102v217q-26 -5 -63 -10.5t-82 -5.5q-63 0 -103.5 35.5t-40.5 105.5v165h102v-140q0 -41 19.5 -58t54.5 -17q32 0 62 4t51 8v203h102v-507z" />
    <glyph glyph-name="uni0448" unicode="&#x448;" horiz-adv-x="811" 
d="M730 0h-649v507h102v-416h172v416h102v-416h171v416h102v-507z" />
    <glyph glyph-name="uni0449" unicode="&#x449;" horiz-adv-x="831" 
d="M730 91h72v-225h-97v134h-624v507h102v-416h172v416h102v-416h171v416h102v-416z" />
    <glyph glyph-name="uni044A" unicode="&#x44a;" horiz-adv-x="584" 
d="M239 316h138q37 0 67 -11.5t51.5 -32.5t33.5 -50t12 -64q0 -71 -45 -114.5t-119 -43.5h-240v416h-122v91h224v-191zM239 234v-152h118q40 0 61 20t21 56q0 35 -21 55.5t-61 20.5h-118z" />
    <glyph glyph-name="uni044B" unicode="&#x44b;" horiz-adv-x="758" 
d="M677 0h-102v507h102v-507zM183 316h138q37 0 67 -11.5t51.5 -32.5t33.5 -50t12 -64q0 -71 -45 -114.5t-119 -43.5h-240v507h102v-191zM183 234v-152h118q40 0 61 20t21 56q0 35 -21 55.5t-61 20.5h-118z" />
    <glyph glyph-name="uni044C" unicode="&#x44c;" horiz-adv-x="528" 
d="M183 316h138q37 0 67 -11.5t51.5 -32.5t33.5 -50t12 -64q0 -71 -45 -114.5t-119 -43.5h-240v507h102v-191zM183 234v-152h118q40 0 61 20t21 56q0 35 -21 55.5t-61 20.5h-118z" />
    <glyph glyph-name="uni044D" unicode="&#x44d;" horiz-adv-x="487" 
d="M203 -6q-27 0 -49.5 4t-42 12.5t-37.5 22t-37 32.5l68 67q24 -25 45.5 -37t53.5 -12q31 0 53.5 11t37.5 29.5t23 44t10 55.5h-182v72h181q-5 57 -35 93t-88 36q-32 0 -53.5 -12.5t-45.5 -36.5l-68 66q19 19 37.5 32.5t38 22.5t41.5 13t49 4q107 0 167 -68t60 -189
q0 -125 -59 -193.5t-168 -68.5z" />
    <glyph glyph-name="uni044E" unicode="&#x44e;" horiz-adv-x="752" 
d="M483 513q52 0 89.5 -17t62.5 -43q36 -38 48 -86.5t12 -112.5q0 -65 -12 -113.5t-48 -86.5q-25 -26 -62.5 -43t-89.5 -17t-89 17t-62 43q-31 32 -44 72t-16 91h-89v-217h-102v507h102v-203h90q4 46 17 82.5t42 66.5q25 26 62 43t89 17zM483 422q-45 0 -74 -29
q-23 -23 -29 -60t-6 -79t6 -79t29 -60q30 -30 74 -30q45 0 75 30q23 23 29 60t6 79t-6 79t-29 60q-29 29 -75 29z" />
    <glyph glyph-name="uni044F" unicode="&#x44f;" horiz-adv-x="525" 
d="M444 0h-102v189h-85l-96 -189h-119l113 207q-48 14 -77 52t-29 92q0 35 12 63.5t33.5 49t52 32t66.5 11.5h231v-507zM231 424q-38 0 -60 -20.5t-22 -55.5q0 -36 22 -56t60 -20h111v152h-111z" />
    <glyph glyph-name="uni0450" unicode="&#x450;" horiz-adv-x="540" 
d="M156 224q0 -66 33 -104t96 -38q43 0 69.5 12.5t53.5 39.5l65 -61q-20 -20 -39.5 -34.5t-42 -24.5t-49 -15t-59.5 -5q-48 0 -89.5 13.5t-72 44t-48.5 80.5t-18 122q0 125 58.5 192t156.5 67q51 0 91 -17.5t67.5 -50t42 -78t14.5 -100.5v-43h-329zM384 295q-2 23 -4 37.5
t-10 31.5q-13 29 -38.5 46.5t-61.5 17.5q-37 0 -62.5 -17.5t-38.5 -46.5q-8 -17 -10 -31.5t-3 -37.5h228zM309 599h-77l-111 162h113z" />
    <glyph glyph-name="uni0451" unicode="&#x451;" horiz-adv-x="540" 
d="M156 224q0 -66 33 -104t96 -38q43 0 69.5 12.5t53.5 39.5l65 -61q-20 -20 -39.5 -34.5t-42 -24.5t-49 -15t-59.5 -5q-48 0 -89.5 13.5t-72 44t-48.5 80.5t-18 122q0 125 58.5 192t156.5 67q51 0 91 -17.5t67.5 -50t42 -78t14.5 -100.5v-43h-329zM384 295q-2 23 -4 37.5
t-10 31.5q-13 29 -38.5 46.5t-61.5 17.5q-37 0 -62.5 -17.5t-38.5 -46.5q-8 -17 -10 -31.5t-3 -37.5h228zM423 604h-92v108h92v-108zM207 604h-92v108h92v-108z" />
    <glyph glyph-name="uni0452" unicode="&#x452;" horiz-adv-x="568" 
d="M183 629h237v-72h-237v-117q28 29 59.5 43t73.5 14t74.5 -13.5t55.5 -39.5q26 -28 36 -62t10 -74v-327q0 -33 -8.5 -62t-27 -51t-49 -35t-74.5 -13h-55v87h36q38 0 57 24t19 55v307q0 59 -30 86t-73 27t-73.5 -27t-30.5 -86v-293h-102v557h-56v72h56v83h102v-83z" />
    <glyph glyph-name="uni0453" unicode="&#x453;" horiz-adv-x="422" 
d="M410 416h-227v-416h-102v507h329v-91zM256 599h-77l75 162h113z" />
    <glyph glyph-name="uni0454" unicode="&#x454;" horiz-adv-x="487" 
d="M284 -6q-109 0 -168 68.5t-59 193.5q0 121 60 189t167 68q27 0 49 -4t41.5 -13t37.5 -22.5t38 -32.5l-68 -66q-24 24 -45.5 36.5t-53.5 12.5q-58 0 -88 -36t-35 -93h181v-72h-182q2 -30 10 -55.5t23 -44t37.5 -29.5t53.5 -11q32 0 53.5 12t45.5 37l68 -67
q-19 -19 -37 -32.5t-37.5 -22t-42 -12.5t-49.5 -4z" />
    <glyph glyph-name="uni0455" unicode="&#x455;" horiz-adv-x="499" 
d="M248 513q58 0 105.5 -13t82.5 -44l-64 -65q-24 20 -56.5 28.5t-68.5 8.5q-47 0 -69.5 -18t-22.5 -47q0 -26 16 -40t54 -18l71 -6q79 -7 119.5 -42t40.5 -102q0 -40 -16 -70t-44 -50.5t-67 -30.5t-84 -10q-62 0 -115 14.5t-98 58.5l67 67q31 -32 69.5 -42.5t76.5 -10.5
q48 0 79.5 17t31.5 53q0 26 -15.5 41t-52.5 19l-81 7q-72 7 -111 40t-39 100q0 37 15 66t41 49t60.5 30t74.5 10z" />
    <glyph glyph-name="uni0456" unicode="&#x456;" horiz-adv-x="264" 
d="M183 0h-102v507h102v-507zM186 607h-108v108h108v-108z" />
    <glyph glyph-name="uni0457" unicode="&#x457;" horiz-adv-x="264" 
d="M288 604h-92v108h92v-108zM72 604h-92v108h92v-108zM183 0h-102v507h102v-507z" />
    <glyph glyph-name="uni0458" unicode="&#x458;" horiz-adv-x="264" 
d="M183 -65q0 -28 -8 -53.5t-25 -44.5t-43.5 -30.5t-62.5 -11.5h-63v87h45q31 0 43 15t12 44v566h102v-572zM186 607h-108v108h108v-108z" />
    <glyph glyph-name="uni0459" unicode="&#x459;" horiz-adv-x="817" 
d="M472 316h138q37 0 67 -11.5t51.5 -32.5t33.5 -50t12 -64q0 -71 -45 -114.5t-119 -43.5h-240v416h-145v-145q0 -81 -11.5 -133t-32.5 -83t-51 -43t-67 -12h-48v90h16q16 0 33.5 4.5t31 25t22.5 61.5t9 115v211h345v-191zM472 234v-152h118q40 0 61 20t21 56q0 35 -21 55.5
t-61 20.5h-118z" />
    <glyph glyph-name="uni045A" unicode="&#x45a;" horiz-adv-x="832" 
d="M487 316h138q37 0 67 -11.5t51.5 -32.5t33.5 -50t12 -64q0 -71 -45 -114.5t-119 -43.5h-240v232h-202v-232h-102v507h102v-191h202v191h102v-191zM487 234v-152h118q40 0 61 20t21 56q0 35 -21 55.5t-61 20.5h-118z" />
    <glyph glyph-name="uni045B" unicode="&#x45b;" horiz-adv-x="567" 
d="M182 629h237v-72h-237v-117q26 29 60 43t73 14t70.5 -12t54.5 -34q29 -29 40 -64.5t11 -78.5v-308h-102v293q0 59 -29.5 86t-72.5 27t-74 -27.5t-31 -85.5v-293h-102v557h-55v72h55v83h102v-83z" />
    <glyph glyph-name="uni045C" unicode="&#x45c;" horiz-adv-x="514" 
d="M297 269l217 -269h-125l-205 264l193 243h122zM183 0h-102v507h102v-507zM305 599h-77l75 162h113z" />
    <glyph glyph-name="uni045D" unicode="&#x45d;" horiz-adv-x="583" 
d="M502 0h-102v349l-217 -349h-102v507h102v-344l217 344h102v-507zM332 599h-77l-111 162h113z" />
    <glyph glyph-name="uni045E" unicode="&#x45e;" horiz-adv-x="472" 
d="M239 -105q-14 -40 -37 -63q-21 -21 -48 -29t-56 -8h-41v92h26q32 0 47 11.5t26 42.5l29 83l-177 483h108l121 -357l118 357h109zM402 738q-5 -75 -49 -110t-115 -35q-72 0 -116 35t-49 110h72q5 -35 30 -52.5t63 -17.5q14 0 29.5 4t28.5 12.5t22.5 21.5t11.5 32h72z" />
    <glyph glyph-name="uni045F" unicode="&#x45f;" horiz-adv-x="568" 
d="M487 0h-155v-134h-96v134h-155v507h102v-416h202v416h102v-507z" />
    <glyph glyph-name="uni0462" unicode="&#x462;" horiz-adv-x="647" 
d="M220 625h138v-83h-138v-110h165q51 0 92.5 -16t71 -44.5t45.5 -68t16 -87.5t-16.5 -88t-46 -68.5t-71 -44t-91.5 -15.5h-273v542h-74v83h74v87h108v-87zM220 335v-238h156q60 0 93 31.5t33 87.5q0 55 -33 87t-93 32h-156z" />
    <glyph glyph-name="uni0463" unicode="&#x463;" horiz-adv-x="530" 
d="M185 507h98v-78h-98v-113h138q37 0 67 -11.5t51.5 -32.5t33.5 -50t12 -64q0 -71 -45 -114.5t-119 -43.5h-240v429h-58v78h58v205h102v-205zM185 234v-152h118q40 0 61 20t21 56q0 35 -21 55.5t-61 20.5h-118z" />
    <glyph glyph-name="uni0472" unicode="&#x472;" horiz-adv-x="646" 
d="M323 -6q-59 0 -104 18.5t-80 53.5q-26 26 -40.5 54t-21.5 61.5t-8.5 76t-1.5 98.5t1.5 98.5t8.5 76t21.5 61.5t40.5 54q35 35 80 53.5t104 18.5t104 -18.5t80 -53.5q26 -26 40.5 -54t21.5 -61.5t8.5 -76t1.5 -98.5t-1.5 -98.5t-8.5 -76t-21.5 -61.5t-40.5 -54
q-35 -35 -80 -53.5t-104 -18.5zM323 91q64 0 106 44q12 12 20 26.5t12.5 34.5t6.5 47.5t3 67.5h-296q1 -40 3 -67.5t7 -47.5t12.5 -34t19.5 -27q42 -44 106 -44zM471 408q-1 38 -3 64.5t-7 46t-12.5 33.5t-19.5 26q-41 43 -106 43t-106 -43q-11 -12 -19 -26t-12.5 -33.5
t-7 -46t-3.5 -64.5h296z" />
    <glyph glyph-name="uni0473" unicode="&#x473;" 
d="M268 513q52 0 89.5 -17t62.5 -43q36 -38 48 -86.5t12 -112.5q0 -65 -12 -113.5t-48 -86.5q-25 -26 -62.5 -43t-89.5 -17t-89 17t-62 43q-36 38 -48 86.5t-12 113.5q0 64 12 112.5t48 86.5q25 26 62 43t89 17zM159 224q2 -33 8.5 -61.5t26.5 -47.5q30 -30 74 -30
q45 0 75 30q19 19 25.5 47.5t8.5 61.5h-218zM268 422q-45 0 -74 -29q-17 -17 -24.5 -43t-9.5 -55h217q-2 29 -9.5 55t-24.5 43q-29 29 -75 29z" />
    <glyph glyph-name="uni0474" unicode="&#x474;" horiz-adv-x="564" 
d="M6 712h112l164 -519l164 519h112l-235 -712h-83z" />
    <glyph glyph-name="uni0475" unicode="&#x475;" horiz-adv-x="471" 
d="M277 0h-83l-186 507h108l120 -357l119 357h108z" />
    <glyph glyph-name="uni0490" unicode="&#x490;" horiz-adv-x="561" 
d="M531 615h-330v-615h-108v712h333v108h105v-205z" />
    <glyph glyph-name="uni0491" unicode="&#x491;" horiz-adv-x="422" 
d="M410 416h-227v-416h-102v507h231v134h98v-225z" />
    <glyph glyph-name="uni0492" unicode="&#x492;" horiz-adv-x="580" 
d="M550 615h-330v-214h138v-83h-138v-318h-108v318h-74v83h74v311h438v-97z" />
    <glyph glyph-name="uni0493" unicode="&#x493;" horiz-adv-x="432" 
d="M420 416h-227v-120h99v-71h-99v-225h-102v225h-58v71h58v211h329v-91z" />
    <glyph glyph-name="uni0496" unicode="&#x496;" horiz-adv-x="935" 
d="M628 376l217 -280h73v-260h-104v164h-27l-274 372l253 340h128zM403 372l-275 -372h-132l291 376l-266 336h128zM512 0h-108v712h108v-712z" />
    <glyph glyph-name="uni0497" unicode="&#x497;" horiz-adv-x="776" 
d="M643 0h-26l-195 264l184 243h119l-190 -238l135 -178h71v-225h-98v134zM206 269l-190 238h119l183 -243l-195 -264h-123zM319 507h102v-507h-102v507z" />
    <glyph glyph-name="uni049A" unicode="&#x49a;" horiz-adv-x="642" 
d="M320 376l228 -280h78v-260h-105v164h-29l-290 372l269 340h130zM201 0h-108v712h108v-712z" />
    <glyph glyph-name="uni049B" unicode="&#x49b;" horiz-adv-x="549" 
d="M297 269l144 -178h73v-225h-97v134h-28l-205 264l193 243h122zM183 0h-102v507h102v-507z" />
    <glyph glyph-name="uni049C" unicode="&#x49c;" horiz-adv-x="688" 
d="M439 368l253 -368h-134l-208 317h-36v-152h-72v152h-41v-317h-108v712h108v-299h41v136h72v-136h35l188 299h129z" />
    <glyph glyph-name="uni049D" unicode="&#x49d;" horiz-adv-x="580" 
d="M413 269l167 -269h-125l-130 217h-35v-117h-64v117h-43v-217h-102v507h102v-205h43v107h64v-107h32l121 205h121z" />
    <glyph glyph-name="uni04A2" unicode="&#x4a2;" horiz-adv-x="690" 
d="M598 96h51v-260h-105v164h-54v311h-289v-311h-108v712h108v-304h289v304h108v-616z" />
    <glyph glyph-name="uni04A3" unicode="&#x4a3;" horiz-adv-x="560" 
d="M487 91h44v-225h-97v134h-49v216h-202v-216h-102v507h102v-202h202v202h102v-416z" />
    <glyph glyph-name="uni04AE" unicode="&#x4ae;" horiz-adv-x="544" 
d="M326 293v-293h-108v293l-213 419h118l149 -313l149 313h118z" />
    <glyph glyph-name="uni04AF" unicode="&#x4af;" horiz-adv-x="471" 
d="M286 12v-217h-102v217l-176 495h108l120 -372l119 372h108z" />
    <glyph glyph-name="uni04B0" unicode="&#x4b0;" horiz-adv-x="544" 
d="M326 293h111v-83h-111v-210h-108v210h-112v83h112l-213 419h118l149 -313l149 313h118z" />
    <glyph glyph-name="uni04B1" unicode="&#x4b1;" horiz-adv-x="471" 
d="M184 -68h-98v78h98v2l-176 495h108l120 -372l119 372h108l-177 -495v-2h99v-78h-99v-137h-102v137z" />
    <glyph glyph-name="uni04B2" unicode="&#x4b2;" horiz-adv-x="587" 
d="M347 365l163 -269h67v-260h-104v164h-30l-155 273l-154 -273h-124l220 365l-206 347h124l140 -255l141 255h124z" />
    <glyph glyph-name="uni04B3" unicode="&#x4b3;" horiz-adv-x="513" 
d="M308 259l112 -168h71v-225h-97v134h-36l-106 173l-107 -173h-123l174 259l-167 248h123l100 -165l99 165h123z" />
    <glyph glyph-name="uni04B6" unicode="&#x4b6;" horiz-adv-x="647" 
d="M554 96h51v-260h-105v164h-54v311q-15 -3 -37 -7t-47.5 -7.5t-53 -6t-53.5 -2.5q-35 0 -68.5 9.5t-59.5 30.5t-41.5 54.5t-15.5 80.5v249h108v-223q0 -31 9 -51t24 -32t35 -16.5t42 -4.5q18 0 39.5 2t43 5t41.5 6.5t34 6.5v307h108v-616z" />
    <glyph glyph-name="uni04B7" unicode="&#x4b7;" horiz-adv-x="527" 
d="M456 91h42v-225h-97v134h-47v217q-26 -5 -63 -10.5t-82 -5.5q-63 0 -103.5 35.5t-40.5 105.5v165h102v-140q0 -41 19.5 -58t54.5 -17q32 0 62 4t51 8v203h102v-416z" />
    <glyph glyph-name="uni04B8" unicode="&#x4b8;" horiz-adv-x="656" 
d="M455 312q-19 -4 -47.5 -9t-56.5 -8v-157h-72v151h-23q-35 0 -68.5 10t-59.5 31t-42 54t-16 80v248h108v-222q0 -30 8.5 -49.5t22 -30.5t31.5 -16.5t36 -6.5h3v133h72v-132q28 3 56.5 8t47.5 9v307h108v-712h-108v312z" />
    <glyph glyph-name="uni04B9" unicode="&#x4b9;" horiz-adv-x="560" 
d="M377 217q-15 -3 -33.5 -6t-40.5 -5v-117h-64v113q-20 -1 -26 -1h-7q-64 0 -102.5 36.5t-38.5 104.5v165h102v-140q0 -39 19.5 -56t52.5 -19v105h64v-103q23 2 41 4.5t33 6.5v202h102v-507h-102v217z" />
    <glyph glyph-name="uni04BA" unicode="&#x4ba;" horiz-adv-x="647" 
d="M201 401q15 3 37 7t47.5 7.5t53 6t53.5 2.5q35 0 68.5 -9.5t59.5 -30.5t41.5 -54.5t15.5 -80.5v-249h-108v223q0 31 -9 51t-24 32t-35 16.5t-42 4.5q-18 0 -39.5 -2t-43.5 -5t-41.5 -6.5t-33.5 -6.5v-307h-108v712h108v-311z" />
    <glyph glyph-name="uni04BB" unicode="&#x4bb;" 
d="M183 304q26 5 63 10.5t82 5.5q63 0 103.5 -35.5t40.5 -105.5v-179h-102v154q0 41 -19.5 58t-54.5 17q-32 0 -62 -4t-51 -8v-217h-102v507h102v-203z" />
    <glyph glyph-name="uni04C0" unicode="&#x4c0;" horiz-adv-x="294" 
d="M201 0h-108v712h108v-712z" />
    <glyph glyph-name="uni04CF" unicode="&#x4cf;" horiz-adv-x="264" 
d="M183 0h-102v712h102v-712z" />
    <glyph glyph-name="uni04D8" unicode="&#x4d8;" horiz-adv-x="649" 
d="M326 718q59 0 104 -18.5t80 -53.5q26 -26 40.5 -54t21.5 -61.5t8.5 -76t1.5 -98.5t-1.5 -98.5t-8.5 -76t-21.5 -61.5t-40.5 -54q-35 -35 -80 -53.5t-104 -18.5q-57 0 -106.5 19.5t-89.5 61.5q-35 38 -49.5 84.5t-14.5 116.5v128h407q-1 38 -3 65.5t-6.5 47t-12 34
t-19.5 27.5q-41 43 -106 43q-60 0 -98 -32t-52 -91h-108q7 45 27 85t52.5 70t77.5 47.5t101 17.5zM174 312v-59q0 -35 7.5 -62t27.5 -50q21 -25 51.5 -37.5t65.5 -12.5q65 0 106 43q12 13 20 27.5t12.5 34.5t6.5 48t2 68h-299z" />
    <glyph glyph-name="uni04D9" unicode="&#x4d9;" horiz-adv-x="544" 
d="M270 -6q-51 0 -91 17.5t-67.5 50t-42 77.5t-14.5 101v43h329q0 66 -33 104t-96 38q-43 0 -69.5 -12.5t-53.5 -39.5l-65 61q19 19 39 34t42.5 25t49 15t59.5 5q48 0 89.5 -13.5t72 -44t48.5 -80.5t18 -122q0 -125 -58.5 -192t-156.5 -67zM270 79q37 0 62.5 17.5t38.5 46.5
q8 17 10 31.5t3 37.5h-228q2 -23 4 -37.5t10 -31.5q13 -29 38.5 -46.5t61.5 -17.5z" />
    <glyph glyph-name="uni04E2" unicode="&#x4e2;" horiz-adv-x="711" 
d="M618 0h-108v517l-319 -517h-98v712h108v-516l318 516h99v-712zM511 795h-309v73h309v-73z" />
    <glyph glyph-name="uni04E3" unicode="&#x4e3;" horiz-adv-x="583" 
d="M502 0h-102v349l-217 -349h-102v507h102v-344l217 344h102v-507zM446 618h-309v73h309v-73z" />
    <glyph glyph-name="uni04E8" unicode="&#x4e8;" horiz-adv-x="646" 
d="M323 -6q-59 0 -104 18.5t-80 53.5q-26 26 -40.5 54t-21.5 61.5t-8.5 76t-1.5 98.5t1.5 98.5t8.5 76t21.5 61.5t40.5 54q35 35 80 53.5t104 18.5t104 -18.5t80 -53.5q26 -26 40.5 -54t21.5 -61.5t8.5 -76t1.5 -98.5t-1.5 -98.5t-8.5 -76t-21.5 -61.5t-40.5 -54
q-35 -35 -80 -53.5t-104 -18.5zM323 91q64 0 106 44q12 12 20 26.5t12.5 34.5t6.5 47.5t3 67.5h-296q1 -40 3 -67.5t7 -47.5t12.5 -34t19.5 -27q42 -44 106 -44zM471 408q-1 38 -3 64.5t-7 46t-12.5 33.5t-19.5 26q-41 43 -106 43t-106 -43q-11 -12 -19 -26t-12.5 -33.5
t-7 -46t-3.5 -64.5h296z" />
    <glyph glyph-name="uni04E9" unicode="&#x4e9;" 
d="M268 513q52 0 89.5 -17t62.5 -43q36 -38 48 -86.5t12 -112.5q0 -65 -12 -113.5t-48 -86.5q-25 -26 -62.5 -43t-89.5 -17t-89 17t-62 43q-36 38 -48 86.5t-12 113.5q0 64 12 112.5t48 86.5q25 26 62 43t89 17zM159 224q2 -33 8.5 -61.5t26.5 -47.5q30 -30 74 -30
q45 0 75 30q19 19 25.5 47.5t8.5 61.5h-218zM268 422q-45 0 -74 -29q-17 -17 -24.5 -43t-9.5 -55h217q-2 29 -9.5 55t-24.5 43q-29 29 -75 29z" />
    <glyph glyph-name="uni04EE" unicode="&#x4ee;" horiz-adv-x="565" 
d="M303 116q-21 -49 -56.5 -82.5t-93.5 -33.5h-74v97h51q32 0 51.5 14t31.5 43l25 58l-231 500h114l170 -381l153 381h114zM437 795h-309v73h309v-73z" />
    <glyph glyph-name="uni04EF" unicode="&#x4ef;" horiz-adv-x="472" 
d="M239 -105q-14 -40 -37 -63q-21 -21 -48 -29t-56 -8h-41v92h26q32 0 47 11.5t26 42.5l29 83l-177 483h108l121 -357l118 357h109zM392 618h-309v73h309v-73z" />
    <glyph glyph-name="uni1E00" unicode="&#x1e00;" horiz-adv-x="625" 
d="M617 0h-115l-49 143h-281l-49 -143h-115l261 712h87zM203 235h219l-110 316zM313 -35q26 0 48.5 -10t39.5 -27t27 -39.5t10 -48.5t-10 -48.5t-27 -39.5t-39.5 -27t-48.5 -10t-48.5 10t-39.5 27t-27 39.5t-10 48.5t10 48.5t27 39.5t39.5 27t48.5 10zM313 -97
q-26 0 -45 -18.5t-19 -44.5t19 -44.5t45 -18.5t45 18.5t19 44.5t-19 44.5t-45 18.5z" />
    <glyph glyph-name="uni1E01" unicode="&#x1e01;" horiz-adv-x="530" 
d="M245 513q106 0 157.5 -44t51.5 -130v-339h-100v46q-28 -28 -58 -40t-77 -12q-48 0 -80.5 11.5t-55.5 34.5q-40 42 -40 109q0 64 44 105t132 41h133v36q0 49 -25.5 72t-85.5 23q-41 0 -65 -11.5t-46 -38.5l-66 63q18 21 36.5 35t40 23t47 12.5t57.5 3.5zM235 224
q-93 0 -93 -73q0 -35 22.5 -53.5t73.5 -18.5q27 0 49.5 5t42.5 24q22 21 22 75v41h-117zM259 -35q26 0 48.5 -10t39.5 -27t27 -39.5t10 -48.5t-10 -48.5t-27 -39.5t-39.5 -27t-48.5 -10t-48.5 10t-39.5 27t-27 39.5t-10 48.5t10 48.5t27 39.5t39.5 27t48.5 10zM259 -97
q-26 0 -45 -18.5t-19 -44.5t19 -44.5t45 -18.5t45 18.5t19 44.5t-19 44.5t-45 18.5z" />
    <glyph glyph-name="uni1E02" unicode="&#x1e02;" horiz-adv-x="663" 
d="M370 712q100 0 157.5 -52t57.5 -143q0 -29 -8.5 -53.5t-22 -44t-30.5 -33t-35 -20.5q21 -8 40 -22.5t34 -34.5t24 -47t9 -61q0 -49 -16 -86.5t-44.5 -63t-68 -38.5t-86.5 -13h-288v712h277zM201 314v-217h170q57 0 87 30.5t30 78.5t-30 78t-87 30h-170zM201 615v-204h160
q52 0 84 26t32 76t-32 76t-84 26h-160zM281 894h92v-108h-92v108z" />
    <glyph glyph-name="uni1E03" unicode="&#x1e03;" horiz-adv-x="553" 
d="M183 456q28 33 60 45t73 12q38 0 70 -12t53 -33q18 -19 29.5 -43t17.5 -51.5t8 -58t2 -61.5q0 -63 -10 -120t-47 -95q-21 -21 -53.5 -33t-70.5 -12q-41 0 -73 12.5t-61 47.5v-54h-100v712h102v-256zM289 422q-35 0 -56 -13.5t-32 -36.5t-14.5 -53.5t-3.5 -64.5t3.5 -64.5
t14.5 -54t32 -37t56 -13.5q34 0 55 13.5t32 37t14.5 54t3.5 64.5t-3.5 64.5t-14.5 53.5t-32 36.5t-55 13.5zM364 604h-92v108h92v-108z" />
    <glyph glyph-name="uni1E04" unicode="&#x1e04;" horiz-adv-x="663" 
d="M370 712q100 0 157.5 -52t57.5 -143q0 -29 -8.5 -53.5t-22 -44t-30.5 -33t-35 -20.5q21 -8 40 -22.5t34 -34.5t24 -47t9 -61q0 -49 -16 -86.5t-44.5 -63t-68 -38.5t-86.5 -13h-288v712h277zM201 314v-217h170q57 0 87 30.5t30 78.5t-30 78t-87 30h-170zM201 615v-204h160
q52 0 84 26t32 76t-32 76t-84 26h-160zM373 -184h-92v108h92v-108z" />
    <glyph glyph-name="uni1E05" unicode="&#x1e05;" horiz-adv-x="553" 
d="M183 456q28 33 60 45t73 12q38 0 70 -12t53 -33q18 -19 29.5 -43t17.5 -51.5t8 -58t2 -61.5q0 -63 -10 -120t-47 -95q-21 -21 -53.5 -33t-70.5 -12q-41 0 -73 12.5t-61 47.5v-54h-100v712h102v-256zM289 422q-35 0 -56 -13.5t-32 -36.5t-14.5 -53.5t-3.5 -64.5t3.5 -64.5
t14.5 -54t32 -37t56 -13.5q34 0 55 13.5t32 37t14.5 54t3.5 64.5t-3.5 64.5t-14.5 53.5t-32 36.5t-55 13.5zM364 -184h-92v108h92v-108z" />
    <glyph glyph-name="uni1E06" unicode="&#x1e06;" horiz-adv-x="663" 
d="M370 712q100 0 157.5 -52t57.5 -143q0 -29 -8.5 -53.5t-22 -44t-30.5 -33t-35 -20.5q21 -8 40 -22.5t34 -34.5t24 -47t9 -61q0 -49 -16 -86.5t-44.5 -63t-68 -38.5t-86.5 -13h-288v712h277zM201 314v-217h170q57 0 87 30.5t30 78.5t-30 78t-87 30h-170zM201 615v-204h160
q52 0 84 26t32 76t-32 76t-84 26h-160zM482 -157h-309v73h309v-73z" />
    <glyph glyph-name="uni1E07" unicode="&#x1e07;" horiz-adv-x="553" 
d="M183 456q28 33 60 45t73 12q38 0 70 -12t53 -33q18 -19 29.5 -43t17.5 -51.5t8 -58t2 -61.5q0 -63 -10 -120t-47 -95q-21 -21 -53.5 -33t-70.5 -12q-41 0 -73 12.5t-61 47.5v-54h-100v712h102v-256zM289 422q-35 0 -56 -13.5t-32 -36.5t-14.5 -53.5t-3.5 -64.5t3.5 -64.5
t14.5 -54t32 -37t56 -13.5q34 0 55 13.5t32 37t14.5 54t3.5 64.5t-3.5 64.5t-14.5 53.5t-32 36.5t-55 13.5zM473 -157h-309v73h309v-73z" />
    <glyph glyph-name="uni1E08" unicode="&#x1e08;" horiz-adv-x="628" 
d="M351 781h-77l75 162h113zM323 718q99 0 167 -56.5t87 -162.5h-110q-12 55 -48 88.5t-96 33.5q-65 0 -105 -43q-14 -14 -22 -31t-13 -41.5t-6.5 -60.5t-1.5 -89t1.5 -89t6.5 -60.5t13 -41.5t22 -31q40 -43 105 -43q60 0 96 33.5t48 88.5h110q-19 -106 -87.5 -162.5
t-166.5 -56.5q-59 0 -104 18.5t-80 53.5q-26 26 -40.5 54t-21.5 61.5t-8.5 76t-1.5 98.5t1.5 98.5t8.5 76t21.5 61.5t40.5 54q35 35 80 53.5t104 18.5zM320 -209h-101l70 147h82z" />
    <glyph glyph-name="uni1E09" unicode="&#x1e09;" horiz-adv-x="487" 
d="M233 -63h82l-51 -147h-101zM283 513q53 0 92 -16.5t75 -54.5l-70 -68q-24 26 -45.5 37t-51.5 11q-60 0 -94 -45q-17 -21 -23.5 -49.5t-6.5 -73.5t6.5 -74t23.5 -50q34 -45 94 -45q30 0 51.5 11t45.5 37l70 -67q-36 -38 -75 -55t-92 -17q-43 0 -83.5 14t-72 45t-51 80.5
t-19.5 120.5t19.5 120.5t51 80t72 44.5t83.5 14zM303 599h-77l75 162h113z" />
    <glyph glyph-name="uni1E0A" unicode="&#x1e0a;" horiz-adv-x="666" 
d="M343 712q67 0 115.5 -21.5t86.5 -68.5q19 -24 30 -52.5t16.5 -61.5t6.5 -71t1 -81t-1 -81t-6.5 -71t-16.5 -61.5t-30 -52.5q-38 -47 -86.5 -68.5t-115.5 -21.5h-250v712h250zM201 615v-518h130q38 0 68.5 11t53.5 37q26 29 32 80t6 131t-6 131t-32 80q-23 26 -53.5 37
t-68.5 11h-130zM286 894h92v-108h-92v108z" />
    <glyph glyph-name="uni1E0B" unicode="&#x1e0b;" horiz-adv-x="553" 
d="M472 0h-100v54q-29 -35 -61 -47.5t-73 -12.5q-39 0 -71 12t-53 33q-18 19 -29.5 43t-17.5 51.5t-8 58t-2 61.5t2 61.5t8 58.5t17.5 52t29.5 43q21 21 52.5 33t70.5 12q41 0 73 -12t60 -46v257h102v-712zM264 422q-35 0 -55.5 -14t-31.5 -37t-14.5 -53.5t-3.5 -64.5
t3.5 -64.5t14.5 -53.5t31.5 -36.5t55.5 -13.5t56 13.5t32 36.5t14.5 53.5t3.5 64.5t-3.5 64.5t-14.5 53.5t-32 37t-56 14zM265 604h-92v108h92v-108z" />
    <glyph glyph-name="uni1E0C" unicode="&#x1e0c;" horiz-adv-x="666" 
d="M343 712q67 0 115.5 -21.5t86.5 -68.5q19 -24 30 -52.5t16.5 -61.5t6.5 -71t1 -81t-1 -81t-6.5 -71t-16.5 -61.5t-30 -52.5q-38 -47 -86.5 -68.5t-115.5 -21.5h-250v712h250zM201 615v-518h130q38 0 68.5 11t53.5 37q26 29 32 80t6 131t-6 131t-32 80q-23 26 -53.5 37
t-68.5 11h-130zM378 -184h-92v108h92v-108z" />
    <glyph glyph-name="uni1E0D" unicode="&#x1e0d;" horiz-adv-x="553" 
d="M472 0h-100v54q-29 -35 -61 -47.5t-73 -12.5q-39 0 -71 12t-53 33q-18 19 -29.5 43t-17.5 51.5t-8 58t-2 61.5t2 61.5t8 58.5t17.5 52t29.5 43q21 21 52.5 33t70.5 12q41 0 73 -12t60 -46v257h102v-712zM264 422q-35 0 -55.5 -14t-31.5 -37t-14.5 -53.5t-3.5 -64.5
t3.5 -64.5t14.5 -53.5t31.5 -36.5t55.5 -13.5t56 13.5t32 36.5t14.5 53.5t3.5 64.5t-3.5 64.5t-14.5 53.5t-32 37t-56 14zM314 -184h-92v108h92v-108z" />
    <glyph glyph-name="uni1E0E" unicode="&#x1e0e;" horiz-adv-x="666" 
d="M343 712q67 0 115.5 -21.5t86.5 -68.5q19 -24 30 -52.5t16.5 -61.5t6.5 -71t1 -81t-1 -81t-6.5 -71t-16.5 -61.5t-30 -52.5q-38 -47 -86.5 -68.5t-115.5 -21.5h-250v712h250zM201 615v-518h130q38 0 68.5 11t53.5 37q26 29 32 80t6 131t-6 131t-32 80q-23 26 -53.5 37
t-68.5 11h-130zM487 -157h-309v73h309v-73z" />
    </font>
</defs>
</svg>
